<?xml version="1.0" encoding="UTF-8" standalone="no"?>
<svg
   width="1280"
   height="400"
   overflow="hidden"
   version="1.1"
   id="svg42"
   sodipodi:docname="he-comp.svg"
   inkscape:version="1.2.2 (732a01da63, 2022-12-09)"
   xmlns:inkscape="http://www.inkscape.org/namespaces/inkscape"
   xmlns:sodipodi="http://sodipodi.sourceforge.net/DTD/sodipodi-0.dtd"
   xmlns="http://www.w3.org/2000/svg"
   xmlns:svg="http://www.w3.org/2000/svg">
  <defs
     id="defs46" />
  <sodipodi:namedview
     id="namedview44"
     pagecolor="#ffffff"
     bordercolor="#000000"
     borderopacity="0.25"
     inkscape:showpageshadow="2"
     inkscape:pageopacity="0.0"
     inkscape:pagecheckerboard="0"
     inkscape:deskcolor="#d1d1d1"
     showgrid="false"
     inkscape:zoom="1.1929687"
     inkscape:cx="612.75704"
     inkscape:cy="359.60707"
     inkscape:window-width="3440"
     inkscape:window-height="1334"
     inkscape:window-x="-11"
     inkscape:window-y="-11"
     inkscape:window-maximized="1"
     inkscape:current-layer="svg42" />
  <g
     id="g40"
     transform="translate(0,-160)">
    <rect
       x="0"
       y="0"
       width="1280"
       height="720"
       fill="#ffffff"
       id="rect2" />
    <path
       d="m 202.5,225 c 0,-8.008 6.492,-14.5 14.5,-14.5 h 108 c 8.008,0 14.5,6.492 14.5,14.5 v 58 c 0,8.008 -6.492,14.5 -14.5,14.5 H 217 c -8.008,0 -14.5,-6.492 -14.5,-14.5 z"
       stroke="#042433"
       stroke-width="3"
       stroke-miterlimit="8"
       fill="none"
       fill-rule="evenodd"
       id="path4" />
    <text
       font-family="'Cambria Math', 'Cambria Math_MSFontService', sans-serif"
       font-weight="400"
       font-size="48px"
       transform="translate(252.567,270)"
       id="text6">𝑆</text>
    <path
       d="m 568.5,225 c 0,-8.008 6.492,-14.5 14.5,-14.5 h 108 c 8.008,0 14.5,6.492 14.5,14.5 v 58 c 0,8.008 -6.492,14.5 -14.5,14.5 H 583 c -8.008,0 -14.5,-6.492 -14.5,-14.5 z"
       stroke="#042433"
       stroke-width="3"
       stroke-miterlimit="8"
       fill="none"
       fill-rule="evenodd"
       id="path8" />
    <text
       font-family="'Cambria Math', 'Cambria Math_MSFontService', sans-serif"
       font-weight="400"
       font-size="48px"
       transform="translate(621.447,270)"
       id="text10">𝐼</text>
    <path
       d="m 933.5,225 c 0,-8.008 6.492,-14.5 14.5,-14.5 h 108 c 8.01,0 14.5,6.492 14.5,14.5 v 58 c 0,8.008 -6.49,14.5 -14.5,14.5 H 948 c -8.008,0 -14.5,-6.492 -14.5,-14.5 z"
       stroke="#042433"
       stroke-width="3"
       stroke-miterlimit="8"
       fill="none"
       fill-rule="evenodd"
       id="path12" />
    <text
       font-family="'Cambria Math', 'Cambria Math_MSFontService', sans-serif"
       font-weight="400"
       font-size="48px"
       transform="translate(980.846,270)"
       id="text14">𝑅</text>
    <path
       d="m 202.5,445 c 0,-8.008 6.492,-14.5 14.5,-14.5 h 108 c 8.008,0 14.5,6.492 14.5,14.5 v 58 c 0,8.008 -6.492,14.5 -14.5,14.5 H 217 c -8.008,0 -14.5,-6.492 -14.5,-14.5 z"
       stroke="#042433"
       stroke-width="3"
       stroke-miterlimit="8"
       fill="none"
       fill-rule="evenodd"
       id="path16" />
    <text
       font-family="'Cambria Math', 'Cambria Math_MSFontService', sans-serif"
       font-weight="400"
       font-size="48px"
       transform="translate(249.941,490)"
       id="text18">𝑉</text>
    <path
       d="m 339,252 h 218.589 v 4 H 339 Z m 216.59,-4 12,6 -12,6 z"
       id="path20" />
    <path
       d="m 705,252 h 218.589 v 4 H 705 Z m 216.589,-4 12,6 -12,6 z"
       id="path22" />
    <path
       d="M 2,-1.58326e-6 2.0001,122.621 h -4 L -2,1.58326e-6 Z M 6.0001,120.621 l -5.999995013,12 -6.000004987,-12 z"
       transform="matrix(-1,0,0,1,271,297)"
       id="path24" />
    <path
       d="M 1.0199,-1.72041 289.508,169.302 287.468,172.743 -1.0199,1.72041 Z M 289.827,164.841 l 7.263,11.28 -13.382,-0.958 z"
       transform="matrix(1,0,0,-1,339,473.121)"
       id="path26" />
    <path
       d="m 568.5,445 c 0,-8.008 6.492,-14.5 14.5,-14.5 h 108 c 8.008,0 14.5,6.492 14.5,14.5 v 58 c 0,8.008 -6.492,14.5 -14.5,14.5 H 583 c -8.008,0 -14.5,-6.492 -14.5,-14.5 z"
       stroke="#042433"
       stroke-width="3"
       stroke-miterlimit="8"
       fill="none"
       fill-rule="evenodd"
       id="path28" />
    <text
       font-family="'Cambria Math', 'Cambria Math_MSFontService', sans-serif"
       font-weight="400"
       font-size="48px"
       transform="translate(614.007,490)"
       id="text30">𝐷</text>
    <path
       d="m 638,297 v 122.621 h -4 V 297 Z m 4,120.621 -6,12 -6,-12 z"
       id="path32" />
    <text
       font-family="'Cambria Math', 'Cambria Math_MSFontService', sans-serif"
       font-weight="400"
       font-size="48px"
       transform="translate(410.533,230)"
       id="text34">𝜆</text>
    <path
       d="m 477.803,193.573 c 4.562,1.203 8.066,3.801 10.511,7.793 2.446,3.992 3.668,8.809 3.668,14.449 0,5.657 -1.218,10.473 -3.656,14.449 -2.437,3.977 -5.945,6.567 -10.523,7.77 l -0.563,-1.805 c 3.609,-1.203 6.293,-3.578 8.051,-7.125 1.758,-3.547 2.637,-8.054 2.637,-13.523 0,-5.281 -0.875,-9.668 -2.625,-13.16 -1.75,-3.492 -4.461,-5.84 -8.133,-7.043 z m -23.219,0 0.633,1.805 c -3.656,1.203 -6.363,3.551 -8.121,7.043 -1.758,3.492 -2.637,7.879 -2.637,13.16 0,5.469 0.879,9.976 2.637,13.523 1.758,3.547 4.441,5.922 8.051,7.125 l -0.563,1.805 c -4.578,-1.203 -8.086,-3.793 -10.523,-7.77 -2.438,-3.976 -3.656,-8.792 -3.656,-14.449 0,-5.64 1.222,-10.457 3.668,-14.449 2.445,-3.992 5.949,-6.59 10.511,-7.793 z"
       fill-rule="evenodd"
       id="path36" />
    <text
       font-family="'Cambria Math', 'Cambria Math_MSFontService', sans-serif"
       font-weight="400"
       font-size="48px"
       transform="translate(456.106,230)"
       id="text38">𝑡</text>
  </g>
</svg>
