<?xml version="1.0" encoding="UTF-8" standalone="no"?>
<svg
   width="1280"
   height="400"
   overflow="hidden"
   version="1.1"
   id="svg42"
   sodipodi:docname="he-markov.svg"
   inkscape:version="1.2.2 (732a01da63, 2022-12-09)"
   xmlns:inkscape="http://www.inkscape.org/namespaces/inkscape"
   xmlns:sodipodi="http://sodipodi.sourceforge.net/DTD/sodipodi-0.dtd"
   xmlns="http://www.w3.org/2000/svg"
   xmlns:svg="http://www.w3.org/2000/svg">
  <defs
     id="defs46" />
  <sodipodi:namedview
     id="namedview44"
     pagecolor="#ffffff"
     bordercolor="#000000"
     borderopacity="0.25"
     inkscape:showpageshadow="2"
     inkscape:pageopacity="0.0"
     inkscape:pagecheckerboard="0"
     inkscape:deskcolor="#d1d1d1"
     showgrid="false"
     inkscape:zoom="1.1929687"
     inkscape:cx="613.59528"
     inkscape:cy="360.0262"
     inkscape:window-width="1716"
     inkscape:window-height="1321"
     inkscape:window-x="1711"
     inkscape:window-y="0"
     inkscape:window-maximized="0"
     inkscape:current-layer="svg42" />
  <g
     id="g40"
     transform="translate(0,-160)">
    <rect
       x="0"
       y="0"
       width="1280"
       height="720"
       fill="#ffffff"
       id="rect2" />
    <path
       d="m 202.5,225 c 0,-8.008 6.492,-14.5 14.5,-14.5 h 108 c 8.008,0 14.5,6.492 14.5,14.5 v 58 c 0,8.008 -6.492,14.5 -14.5,14.5 H 217 c -8.008,0 -14.5,-6.492 -14.5,-14.5 z"
       stroke="#042433"
       stroke-width="3"
       stroke-miterlimit="8"
       fill="none"
       fill-rule="evenodd"
       id="path4" />
    <text
       font-family="'Cambria Math', 'Cambria Math_MSFontService', sans-serif"
       font-weight="400"
       font-size="48px"
       transform="translate(252.567,270)"
       id="text6">𝑆</text>
    <path
       d="m 568.5,225 c 0,-8.008 6.492,-14.5 14.5,-14.5 h 108 c 8.008,0 14.5,6.492 14.5,14.5 v 58 c 0,8.008 -6.492,14.5 -14.5,14.5 H 583 c -8.008,0 -14.5,-6.492 -14.5,-14.5 z"
       stroke="#042433"
       stroke-width="3"
       stroke-miterlimit="8"
       fill="none"
       fill-rule="evenodd"
       id="path8" />
    <text
       font-family="'Cambria Math', 'Cambria Math_MSFontService', sans-serif"
       font-weight="400"
       font-size="48px"
       transform="translate(621.447,270)"
       id="text10">𝐼</text>
    <path
       d="m 933.5,225 c 0,-8.008 6.492,-14.5 14.5,-14.5 h 108 c 8.01,0 14.5,6.492 14.5,14.5 v 58 c 0,8.008 -6.49,14.5 -14.5,14.5 H 948 c -8.008,0 -14.5,-6.492 -14.5,-14.5 z"
       stroke="#042433"
       stroke-width="3"
       stroke-miterlimit="8"
       fill="none"
       fill-rule="evenodd"
       id="path12" />
    <text
       font-family="'Cambria Math', 'Cambria Math_MSFontService', sans-serif"
       font-weight="400"
       font-size="48px"
       transform="translate(980.846,270)"
       id="text14">𝑅</text>
    <path
       d="m 202.5,445 c 0,-8.008 6.492,-14.5 14.5,-14.5 h 108 c 8.008,0 14.5,6.492 14.5,14.5 v 58 c 0,8.008 -6.492,14.5 -14.5,14.5 H 217 c -8.008,0 -14.5,-6.492 -14.5,-14.5 z"
       stroke="#042433"
       stroke-width="3"
       stroke-miterlimit="8"
       fill="none"
       fill-rule="evenodd"
       id="path16" />
    <text
       font-family="'Cambria Math', 'Cambria Math_MSFontService', sans-serif"
       font-weight="400"
       font-size="48px"
       transform="translate(249.941,490)"
       id="text18">𝑉</text>
    <path
       d="m 339,252 h 218.589 v 4 H 339 Z m 216.59,-4 12,6 -12,6 z"
       id="path20" />
    <path
       d="m 705,252 h 218.589 v 4 H 705 Z m 216.589,-4 12,6 -12,6 z"
       id="path22" />
    <path
       d="M 2,-1.58326e-6 2.0001,122.621 h -4 L -2,1.58326e-6 Z M 6.0001,120.621 l -5.999995013,12 -6.000004987,-12 z"
       transform="matrix(-1,0,0,1,271,297)"
       id="path24" />
    <path
       d="M 1.0199,-1.72041 289.508,169.302 287.468,172.743 -1.0199,1.72041 Z M 289.827,164.841 l 7.263,11.28 -13.382,-0.958 z"
       transform="matrix(1,0,0,-1,339,473.121)"
       id="path26" />
    <path
       d="m 568.5,445 c 0,-8.008 6.492,-14.5 14.5,-14.5 h 108 c 8.008,0 14.5,6.492 14.5,14.5 v 58 c 0,8.008 -6.492,14.5 -14.5,14.5 H 583 c -8.008,0 -14.5,-6.492 -14.5,-14.5 z"
       stroke="#042433"
       stroke-width="3"
       stroke-miterlimit="8"
       fill="none"
       fill-rule="evenodd"
       id="path28" />
    <text
       font-family="'Cambria Math', 'Cambria Math_MSFontService', sans-serif"
       font-weight="400"
       font-size="48px"
       transform="translate(614.007,490)"
       id="text30">𝐷</text>
    <path
       d="M 2,-1.58326e-6 2.0001,122.621 h -4 L -2,1.58326e-6 Z M 6.0001,120.621 l -5.999995013,12 -6.000004987,-12 z"
       transform="matrix(-1,0,0,1,636,297)"
       id="path32" />
    <path
       d="m 339.328,251.507 2.247,-0.193 -0.319,0.054 2.23,-0.565 -0.395,0.146 4.336,-2.142 -0.384,0.247 4.055,-3.329 -0.261,0.258 3.633,-4.317 -0.184,0.257 3.07,-5.109 -0.133,0.264 2.368,-5.702 -0.094,0.282 1.524,-6.098 -0.053,0.315 0.54,-6.296 -10e-4,0.338 -0.265,-3.159 0.051,0.311 -0.773,-3.135 0.087,0.271 -1.247,-3.086 0.109,0.228 -1.688,-3.012 0.121,0.19 -2.095,-2.913 0.126,0.158 -2.467,-2.789 0.191,0.188 -5.917,-5.108 0.257,0.188 -7.001,-4.317 0.266,0.137 -7.813,-3.329 0.287,0.098 -8.356,-2.142 0.236,0.045 -4.296,-0.564 0.171,0.015 -4.33,-0.194 0.214,-0.002 -8.627,0.539 0.234,-0.028 -8.356,1.523 0.222,-0.053 -7.814,2.367 0.223,-0.083 -7.001,3.071 0.244,-0.128 -5.917,3.633 0.206,-0.145 -2.467,1.983 0.448,-0.506 -1.297,2.096 -3.401,-2.105 1.477,-2.388 2.833,-2.277 6.142,-3.771 7.236,-3.174 8.037,-2.435 8.584,-1.565 8.851,-0.553 4.524,0.203 4.501,0.591 8.62,2.21 8.091,3.447 7.265,4.481 6.14,5.301 2.623,2.965 2.219,3.086 1.805,3.221 1.349,3.335 0.846,3.428 0.292,3.487 -0.567,6.623 -1.598,6.397 -2.481,5.976 -3.228,5.371 -3.854,4.581 -4.375,3.591 -4.731,2.338 -2.593,0.656 -2.408,0.208 z M 282,202.318 271,210 l 0.454,-13.409 z"
       id="path34" />
    <path
       d="m 339.328,471.507 2.247,-0.193 -0.319,0.054 2.23,-0.565 -0.395,0.146 4.336,-2.142 -0.384,0.247 4.055,-3.329 -0.261,0.258 3.633,-4.317 -0.184,0.257 3.07,-5.109 -0.133,0.264 2.368,-5.702 -0.094,0.282 1.524,-6.098 -0.053,0.315 0.54,-6.296 -10e-4,0.338 -0.265,-3.159 0.051,0.311 -0.773,-3.135 0.087,0.271 -1.247,-3.086 0.109,0.228 -1.688,-3.012 0.121,0.19 -2.095,-2.913 0.126,0.158 -2.467,-2.789 0.191,0.188 -5.917,-5.108 0.257,0.188 -7.001,-4.317 0.266,0.137 -7.813,-3.328 0.287,0.097 -8.356,-2.142 0.236,0.045 -4.296,-0.564 0.171,0.015 -4.33,-0.194 0.214,-0.002 -8.627,0.539 0.234,-0.028 -8.356,1.523 0.222,-0.053 -7.814,2.367 0.223,-0.083 -7.001,3.071 0.244,-0.128 -5.917,3.633 0.206,-0.145 -2.467,1.983 0.448,-0.506 -1.297,2.096 -3.401,-2.105 1.477,-2.388 2.833,-2.277 6.142,-3.771 7.236,-3.174 8.037,-2.434 8.584,-1.566 8.851,-0.553 4.524,0.203 4.501,0.591 8.62,2.21 8.091,3.447 7.265,4.481 6.14,5.301 2.623,2.965 2.219,3.086 1.805,3.221 1.349,3.335 0.846,3.428 0.292,3.487 -0.567,6.623 -1.598,6.397 -2.481,5.976 -3.228,5.371 -3.854,4.581 -4.375,3.591 -4.731,2.338 -2.593,0.656 -2.408,0.208 z M 282,422.318 271,430 l 0.454,-13.409 z"
       id="path36" />
    <path
       d="m 704.328,251.507 2.247,-0.193 -0.319,0.054 2.23,-0.565 -0.395,0.146 4.336,-2.142 -0.384,0.247 4.055,-3.329 -0.261,0.258 3.633,-4.317 -0.184,0.257 3.07,-5.109 -0.133,0.264 2.368,-5.702 -0.094,0.282 1.524,-6.098 -0.053,0.315 0.54,-6.296 -0.001,0.338 -0.265,-3.159 0.051,0.311 -0.773,-3.135 0.087,0.271 -1.247,-3.086 0.109,0.228 -1.688,-3.012 0.121,0.19 -2.095,-2.913 0.126,0.158 -2.467,-2.789 0.191,0.188 -5.917,-5.108 0.257,0.188 -7.001,-4.317 0.266,0.137 -7.813,-3.329 0.287,0.098 -8.356,-2.142 0.236,0.045 -4.296,-0.564 0.171,0.015 -4.33,-0.194 0.214,-0.002 -8.627,0.539 0.234,-0.028 -8.356,1.523 0.222,-0.053 -7.814,2.367 0.223,-0.083 -7.001,3.071 0.244,-0.128 -5.917,3.633 0.206,-0.145 -2.467,1.983 0.448,-0.506 -1.297,2.096 -3.401,-2.105 1.477,-2.388 2.833,-2.277 6.142,-3.771 7.236,-3.174 8.037,-2.435 8.584,-1.565 8.851,-0.553 4.524,0.203 4.501,0.591 8.62,2.21 8.091,3.447 7.265,4.481 6.14,5.301 2.623,2.965 2.219,3.086 1.805,3.221 1.349,3.335 0.846,3.428 0.292,3.487 -0.567,6.623 -1.598,6.397 -2.481,5.976 -3.228,5.371 -3.854,4.581 -4.375,3.591 -4.731,2.338 -2.592,0.656 -2.409,0.208 z M 647,202.318 636,210 l 0.454,-13.409 z"
       id="path38" />
  </g>
</svg>
