<?xml version="1.0" encoding="UTF-8" standalone="no"?>
<svg
   width="1280"
   height="400"
   overflow="hidden"
   version="1.1"
   id="svg76"
   sodipodi:docname="leaky-mod.svg"
   inkscape:version="1.2.2 (732a01da63, 2022-12-09)"
   xmlns:inkscape="http://www.inkscape.org/namespaces/inkscape"
   xmlns:sodipodi="http://sodipodi.sourceforge.net/DTD/sodipodi-0.dtd"
   xmlns="http://www.w3.org/2000/svg"
   xmlns:svg="http://www.w3.org/2000/svg">
  <defs
     id="defs80" />
  <sodipodi:namedview
     id="namedview78"
     pagecolor="#ffffff"
     bordercolor="#000000"
     borderopacity="0.25"
     inkscape:showpageshadow="2"
     inkscape:pageopacity="0.0"
     inkscape:pagecheckerboard="0"
     inkscape:deskcolor="#d1d1d1"
     showgrid="false"
     inkscape:zoom="1.1929687"
     inkscape:cx="639.58088"
     inkscape:cy="359.60707"
     inkscape:window-width="3440"
     inkscape:window-height="1334"
     inkscape:window-x="-11"
     inkscape:window-y="-11"
     inkscape:window-maximized="1"
     inkscape:current-layer="svg76" />
  <g
     id="g74"
     transform="translate(0,-154)">
    <rect
       x="0"
       y="0"
       width="1280"
       height="720"
       fill="#ffffff"
       id="rect2" />
    <path
       d="m 59.5001,217 c 0,-8.008 6.4919,-14.5 14.5002,-14.5 H 182 c 8.008,0 14.5,6.492 14.5,14.5 v 58 c 0,8.008 -6.492,14.5 -14.5,14.5 H 74.0003 c -8.0083,0 -14.5002,-6.492 -14.5002,-14.5 z"
       stroke="#042433"
       stroke-width="3"
       stroke-miterlimit="8"
       fill="none"
       fill-rule="evenodd"
       id="path4" />
    <text
       font-family="'Cambria Math', 'Cambria Math_MSFontService', sans-serif"
       font-weight="400"
       font-size="48px"
       transform="translate(109.729,262)"
       id="text6">𝑆</text>
    <path
       d="m 581.5,217 c 0,-8.008 6.492,-14.5 14.5,-14.5 h 108 c 8.008,0 14.5,6.492 14.5,14.5 v 58 c 0,8.008 -6.492,14.5 -14.5,14.5 H 596 c -8.008,0 -14.5,-6.492 -14.5,-14.5 z"
       stroke="#042433"
       stroke-width="3"
       stroke-miterlimit="8"
       fill="none"
       fill-rule="evenodd"
       id="path8" />
    <text
       font-family="'Cambria Math', 'Cambria Math_MSFontService', sans-serif"
       font-weight="400"
       font-size="48px"
       transform="translate(634.865,262)"
       id="text10">𝐼</text>
    <path
       d="m 1084.5,217 c 0,-8.008 6.49,-14.5 14.5,-14.5 h 108 c 8.01,0 14.5,6.492 14.5,14.5 v 58 c 0,8.008 -6.49,14.5 -14.5,14.5 h -108 c -8.01,0 -14.5,-6.492 -14.5,-14.5 z"
       stroke="#042433"
       stroke-width="3"
       stroke-miterlimit="8"
       fill="none"
       fill-rule="evenodd"
       id="path12" />
    <text
       font-family="'Cambria Math', 'Cambria Math_MSFontService', sans-serif"
       font-weight="400"
       font-size="48px"
       transform="translate(1131.26,262)"
       id="text14">𝑅</text>
    <path
       d="m 59.5001,437 c 0,-8.008 6.4919,-14.5 14.5002,-14.5 H 182 c 8.008,0 14.5,6.492 14.5,14.5 v 58 c 0,8.008 -6.492,14.5 -14.5,14.5 H 74.0003 c -8.0083,0 -14.5002,-6.492 -14.5002,-14.5 z"
       stroke="#042433"
       stroke-width="3"
       stroke-miterlimit="8"
       fill="none"
       fill-rule="evenodd"
       id="path16" />
    <text
       font-family="'Cambria Math', 'Cambria Math_MSFontService', sans-serif"
       font-weight="400"
       font-size="48px"
       transform="translate(99.8952,482)"
       id="text18">𝑆</text>
    <text
       font-family="'Cambria Math', 'Cambria Math_MSFontService', sans-serif"
       font-weight="400"
       font-size="35px"
       transform="translate(123.122,491)"
       id="text20">𝑣</text>
    <path
       d="m 581.5,437 c 0,-8.008 6.492,-14.5 14.5,-14.5 h 108 c 8.008,0 14.5,6.492 14.5,14.5 v 58 c 0,8.008 -6.492,14.5 -14.5,14.5 H 596 c -8.008,0 -14.5,-6.492 -14.5,-14.5 z"
       stroke="#042433"
       stroke-width="3"
       stroke-miterlimit="8"
       fill="none"
       fill-rule="evenodd"
       id="path22" />
    <text
       font-family="'Cambria Math', 'Cambria Math_MSFontService', sans-serif"
       font-weight="400"
       font-size="48px"
       transform="translate(625.678,482)"
       id="text24">𝐼</text>
    <text
       font-family="'Cambria Math', 'Cambria Math_MSFontService', sans-serif"
       font-weight="400"
       font-size="35px"
       transform="translate(641.032,491)"
       id="text26">𝑣</text>
    <path
       d="m 1084.5,437 c 0,-8.008 6.49,-14.5 14.5,-14.5 h 108 c 8.01,0 14.5,6.492 14.5,14.5 v 58 c 0,8.008 -6.49,14.5 -14.5,14.5 h -108 c -8.01,0 -14.5,-6.492 -14.5,-14.5 z"
       stroke="#042433"
       stroke-width="3"
       stroke-miterlimit="8"
       fill="none"
       fill-rule="evenodd"
       id="path28" />
    <text
       font-family="'Cambria Math', 'Cambria Math_MSFontService', sans-serif"
       font-weight="400"
       font-size="48px"
       transform="translate(1121.02,482)"
       id="text30">𝑅</text>
    <text
       font-family="'Cambria Math', 'Cambria Math_MSFontService', sans-serif"
       font-weight="400"
       font-size="35px"
       transform="translate(1150.87,491)"
       id="text32">𝑣</text>
    <path
       d="m 196,244 h 374.847 v 4 H 196 Z m 372.847,-4 12,6 -12,6 z"
       id="path34" />
    <path
       d="M 1.61965e-4,-2 355.59,-1.9712 l -10e-4,4 L -1.61965e-4,2 Z M 353.59,-5.97137 l 11.999,6.0009763 -12,5.9990237 z"
       transform="matrix(1,0,0,-1,718,246.03)"
       id="path36" />
    <path
       d="m 196,463 374.847,0.029 v 4 L 196,467 Z m 372.847,-3.972 12,6.001 -12.001,5.999 z"
       id="path38" />
    <path
       d="M 1.60816e-4,-2 355.59,-1.97141 l -10e-4,4 L -1.60816e-4,2 Z M 353.59,-5.97157 l 11.999,6.0009663 -12,5.9990337 z"
       transform="matrix(1,0,0,-1,718,465.029)"
       id="path40" />
    <path
       d="M 2,-1.58326e-6 2.0001,122.621 h -4 L -2,1.58326e-6 Z M 6.0001,120.621 l -5.999995013,12 -6.000004987,-12 z"
       transform="matrix(-1,0,0,1,128,289)"
       id="path42" />
    <text
       font-family="'Cambria Math', 'Cambria Math_MSFontService', sans-serif"
       font-weight="400"
       font-size="48px"
       transform="translate(887.623,441)"
       id="text44">𝛾</text>
    <text
       font-family="'Cambria Math', 'Cambria Math_MSFontService', sans-serif"
       font-weight="400"
       font-size="48px"
       transform="translate(887.623,221)"
       id="text46">𝛾</text>
    <text
       font-family="'Cambria Math', 'Cambria Math_MSFontService', sans-serif"
       font-weight="400"
       font-size="48px"
       transform="translate(345.822,221)"
       id="text48">𝜆</text>
    <path
       d="m 413.092,185.522 c 4.563,1.203 8.067,3.801 10.512,7.793 2.445,3.992 3.668,8.809 3.668,14.449 0,5.657 -1.219,10.473 -3.656,14.45 -2.438,3.976 -5.946,6.566 -10.524,7.769 l -0.562,-1.804 c 3.609,-1.204 6.293,-3.579 8.051,-7.125 1.757,-3.547 2.636,-8.055 2.636,-13.524 0,-5.281 -0.875,-9.668 -2.625,-13.16 -1.75,-3.492 -4.461,-5.84 -8.133,-7.043 z m -23.218,0 0.633,1.805 c -3.657,1.203 -6.364,3.551 -8.121,7.043 -1.758,3.492 -2.637,7.879 -2.637,13.16 0,5.469 0.879,9.977 2.637,13.524 1.757,3.546 4.441,5.921 8.05,7.125 l -0.562,1.804 c -4.578,-1.203 -8.086,-3.793 -10.524,-7.769 -2.437,-3.977 -3.656,-8.793 -3.656,-14.45 0,-5.64 1.223,-10.457 3.668,-14.449 2.446,-3.992 5.949,-6.59 10.512,-7.793 z"
       fill-rule="evenodd"
       id="path50" />
    <text
       font-family="'Cambria Math', 'Cambria Math_MSFontService', sans-serif"
       font-weight="400"
       font-size="48px"
       transform="translate(391.395,221)"
       id="text52">𝑡</text>
    <text
       font-family="'Cambria Math', 'Cambria Math_MSFontService', sans-serif"
       font-weight="400"
       font-size="48px"
       transform="translate(244.223,441)"
       id="text54">(</text>
    <text
       font-family="'Cambria Math', 'Cambria Math_MSFontService', sans-serif"
       font-weight="400"
       font-size="48px"
       transform="translate(264.223,441)"
       id="text56">1</text>
    <text
       font-family="'Cambria Math', 'Cambria Math_MSFontService', sans-serif"
       font-weight="400"
       font-size="48px"
       transform="translate(301.39,441)"
       id="text58">−</text>
    <text
       font-family="'Cambria Math', 'Cambria Math_MSFontService', sans-serif"
       font-weight="400"
       font-size="48px"
       transform="translate(347.89,441)"
       id="text60">𝑉𝐸</text>
    <text
       font-family="'Cambria Math', 'Cambria Math_MSFontService', sans-serif"
       font-weight="400"
       font-size="35px"
       transform="translate(405.31,451)"
       id="text62">𝐿</text>
    <text
       font-family="'Cambria Math', 'Cambria Math_MSFontService', sans-serif"
       font-weight="400"
       font-size="48px"
       transform="translate(427.41,441)"
       id="text64">)</text>
    <text
       font-family="'Cambria Math', 'Cambria Math_MSFontService', sans-serif"
       font-weight="400"
       font-size="48px"
       transform="translate(447.41,441)"
       id="text66">𝜆</text>
    <path
       d="m 514.68,405.144 c 4.563,1.203 8.067,3.8 10.512,7.793 2.445,3.992 3.668,8.808 3.668,14.449 0,5.656 -1.219,10.473 -3.656,14.449 -2.438,3.977 -5.946,6.566 -10.524,7.77 l -0.562,-1.805 c 3.609,-1.203 6.293,-3.578 8.05,-7.125 1.758,-3.547 2.637,-8.055 2.637,-13.524 0,-5.281 -0.875,-9.667 -2.625,-13.16 -1.75,-3.492 -4.461,-5.84 -8.133,-7.043 z m -23.218,0 0.633,1.804 c -3.657,1.203 -6.364,3.551 -8.121,7.043 -1.758,3.493 -2.637,7.879 -2.637,13.16 0,5.469 0.879,9.977 2.637,13.524 1.757,3.547 4.441,5.922 8.05,7.125 l -0.562,1.805 c -4.578,-1.204 -8.086,-3.793 -10.524,-7.77 -2.437,-3.976 -3.656,-8.793 -3.656,-14.449 0,-5.641 1.223,-10.457 3.668,-14.449 2.445,-3.993 5.949,-6.59 10.512,-7.793 z"
       fill-rule="evenodd"
       id="path68" />
    <text
       font-family="'Cambria Math', 'Cambria Math_MSFontService', sans-serif"
       font-weight="400"
       font-size="48px"
       transform="translate(492.983,441)"
       id="text70">𝑡</text>
    <text
       font-family="'Cambria Math', 'Cambria Math_MSFontService', sans-serif"
       font-weight="400"
       font-size="48px"
       transform="translate(79.5951,364)"
       id="text72">𝜌</text>
  </g>
</svg>
