<?xml version="1.0" encoding="UTF-8" standalone="no"?>
<svg
   width="1280"
   height="400"
   overflow="hidden"
   version="1.1"
   id="svg72"
   sodipodi:docname="prv-trans-mod.svg"
   inkscape:version="1.2.2 (732a01da63, 2022-12-09)"
   xmlns:inkscape="http://www.inkscape.org/namespaces/inkscape"
   xmlns:sodipodi="http://sodipodi.sourceforge.net/DTD/sodipodi-0.dtd"
   xmlns="http://www.w3.org/2000/svg"
   xmlns:svg="http://www.w3.org/2000/svg">
  <defs
     id="defs76" />
  <sodipodi:namedview
     id="namedview74"
     pagecolor="#ffffff"
     bordercolor="#000000"
     borderopacity="0.25"
     inkscape:showpageshadow="2"
     inkscape:pageopacity="0.0"
     inkscape:pagecheckerboard="0"
     inkscape:deskcolor="#d1d1d1"
     showgrid="false"
     inkscape:zoom="1.1929687"
     inkscape:cx="585.93323"
     inkscape:cy="360.44533"
     inkscape:window-width="3440"
     inkscape:window-height="1334"
     inkscape:window-x="-11"
     inkscape:window-y="-11"
     inkscape:window-maximized="1"
     inkscape:current-layer="svg72" />
  <rect
     style="fill:#ffffff;stroke-width:0.802216"
     id="rect194"
     width="1280"
     height="400"
     x="0"
     y="0" />
  <path
     d="m 59.00005,68.739 c 0,-8.008 6.4919,-14.5 14.5002,-14.5 h 107.9997 c 8.008,0 14.5,6.492 14.5,14.5 v 58 c 0,8.008 -6.492,14.5 -14.5,14.5 H 73.50025 c -8.0083,0 -14.5002,-6.492 -14.5002,-14.5 z"
     stroke="#042433"
     stroke-width="3"
     stroke-miterlimit="8"
     fill="none"
     fill-rule="evenodd"
     id="path4" />
  <text
     font-family="'Cambria Math', 'Cambria Math_MSFontService', sans-serif"
     font-weight="400"
     font-size="48px"
     id="text6"
     x="109.22894"
     y="113.739">𝑆</text>
  <path
     d="m 580.99995,68.739 c 0,-8.008 6.492,-14.5 14.5,-14.5 h 108 c 8.008,0 14.5,6.492 14.5,14.5 v 58 c 0,8.008 -6.492,14.5 -14.5,14.5 h -108 c -8.008,0 -14.5,-6.492 -14.5,-14.5 z"
     stroke="#042433"
     stroke-width="3"
     stroke-miterlimit="8"
     fill="none"
     fill-rule="evenodd"
     id="path8" />
  <text
     font-family="'Cambria Math', 'Cambria Math_MSFontService', sans-serif"
     font-weight="400"
     font-size="48px"
     id="text10"
     x="634.36493"
     y="113.739">𝐼</text>
  <path
     d="m 1084,68.739 c 0,-8.008 6.49,-14.5 14.5,-14.5 h 108 c 8.01,0 14.5,6.492 14.5,14.5 v 58 c 0,8.008 -6.49,14.5 -14.5,14.5 h -108 c -8.01,0 -14.5,-6.492 -14.5,-14.5 z"
     stroke="#042433"
     stroke-width="3"
     stroke-miterlimit="8"
     fill="none"
     fill-rule="evenodd"
     id="path12" />
  <text
     font-family="'Cambria Math', 'Cambria Math_MSFontService', sans-serif"
     font-weight="400"
     font-size="48px"
     id="text14"
     x="1130.76"
     y="113.739">𝑅</text>
  <path
     d="m 59.00005,288.739 c 0,-8.008 6.4919,-14.5 14.5002,-14.5 h 107.9997 c 8.008,0 14.5,6.492 14.5,14.5 v 58 c 0,8.008 -6.492,14.5 -14.5,14.5 H 73.50025 c -8.0083,0 -14.5002,-6.492 -14.5002,-14.5 z"
     stroke="#042433"
     stroke-width="3"
     stroke-miterlimit="8"
     fill="none"
     fill-rule="evenodd"
     id="path16" />
  <text
     font-family="'Cambria Math', 'Cambria Math_MSFontService', sans-serif"
     font-weight="400"
     font-size="48px"
     id="text18"
     x="99.395149"
     y="333.73901">𝑆</text>
  <text
     font-family="'Cambria Math', 'Cambria Math_MSFontService', sans-serif"
     font-weight="400"
     font-size="35px"
     id="text20"
     x="122.62195"
     y="342.73901">𝑣</text>
  <path
     d="m 580.99995,288.739 c 0,-8.008 6.492,-14.5 14.5,-14.5 h 108 c 8.008,0 14.5,6.492 14.5,14.5 v 58 c 0,8.008 -6.492,14.5 -14.5,14.5 h -108 c -8.008,0 -14.5,-6.492 -14.5,-14.5 z"
     stroke="#042433"
     stroke-width="3"
     stroke-miterlimit="8"
     fill="none"
     fill-rule="evenodd"
     id="path22" />
  <text
     font-family="'Cambria Math', 'Cambria Math_MSFontService', sans-serif"
     font-weight="400"
     font-size="48px"
     id="text24"
     x="625.17792"
     y="333.73901">𝐼</text>
  <text
     font-family="'Cambria Math', 'Cambria Math_MSFontService', sans-serif"
     font-weight="400"
     font-size="35px"
     id="text26"
     x="640.53192"
     y="342.73901">𝑣</text>
  <path
     d="m 1084,288.739 c 0,-8.008 6.49,-14.5 14.5,-14.5 h 108 c 8.01,0 14.5,6.492 14.5,14.5 v 58 c 0,8.008 -6.49,14.5 -14.5,14.5 h -108 c -8.01,0 -14.5,-6.492 -14.5,-14.5 z"
     stroke="#042433"
     stroke-width="3"
     stroke-miterlimit="8"
     fill="none"
     fill-rule="evenodd"
     id="path28" />
  <text
     font-family="'Cambria Math', 'Cambria Math_MSFontService', sans-serif"
     font-weight="400"
     font-size="48px"
     id="text30"
     x="1120.52"
     y="333.73901">𝑅</text>
  <text
     font-family="'Cambria Math', 'Cambria Math_MSFontService', sans-serif"
     font-weight="400"
     font-size="35px"
     id="text32"
     x="1150.37"
     y="342.73901">𝑣</text>
  <path
     d="m 195.49995,95.739 h 374.847 v 4 h -374.847 z m 372.847,-4 12,6 -12,6 z"
     id="path34" />
  <path
     d="m 717.50011,99.769 355.58989,-0.0288 -10e-4,-4 -355.58921,0.0288 z m 353.58989,3.97137 11.999,-6.00098 -12,-5.99902 z"
     id="path36" />
  <path
     d="m 195.49995,314.739 374.847,0.029 v 4 l -374.847,-0.029 z m 372.847,-3.972 12,6.001 -12.001,5.999 z"
     id="path38" />
  <path
     d="m 717.50011,318.768 355.58989,-0.0286 -10e-4,-4 -355.58921,0.0286 z m 353.58989,3.97157 11.999,-6.00097 -12,-5.99903 z"
     id="path40" />
  <path
     d="m 125.49995,140.739 -1e-4,122.621 h 4 l 1e-4,-122.621 z m -4.0001,120.621 6,12 6,-12 z"
     id="path42" />
  <text
     font-family="'Cambria Math', 'Cambria Math_MSFontService', sans-serif"
     font-weight="400"
     font-size="48px"
     id="text44"
     x="887.12292"
     y="292.73901">𝛾</text>
  <text
     font-family="'Cambria Math', 'Cambria Math_MSFontService', sans-serif"
     font-weight="400"
     font-size="48px"
     id="text46"
     x="887.12292"
     y="72.738998">𝛾</text>
  <text
     font-family="'Cambria Math', 'Cambria Math_MSFontService', sans-serif"
     font-weight="400"
     font-size="48px"
     id="text48"
     x="289.66495"
     y="72.738998">𝜆</text>
  <path
     d="m 356.93495,37.261 c 4.563,1.203 8.067,3.801 10.512,7.793 2.445,3.992 3.668,8.809 3.668,14.449 0,5.657 -1.219,10.473 -3.656,14.45 -2.438,3.976 -5.946,6.566 -10.524,7.769 l -0.562,-1.804 c 3.609,-1.204 6.293,-3.579 8.05,-7.125 1.758,-3.547 2.637,-8.055 2.637,-13.524 0,-5.281 -0.875,-9.668 -2.625,-13.16 -1.75,-3.492 -4.461,-5.84 -8.133,-7.043 z m -23.218,0 0.633,1.805 c -3.657,1.203 -6.364,3.551 -8.121,7.043 -1.758,3.492 -2.637,7.879 -2.637,13.16 0,5.469 0.879,9.977 2.637,13.524 1.757,3.546 4.441,5.921 8.05,7.125 l -0.562,1.804 c -4.578,-1.203 -8.086,-3.793 -10.524,-7.769 -2.437,-3.977 -3.656,-8.793 -3.656,-14.45 0,-5.64 1.223,-10.457 3.668,-14.449 2.445,-3.992 5.949,-6.59 10.512,-7.793 z"
     fill-rule="evenodd"
     id="path50" />
  <text
     font-family="'Cambria Math', 'Cambria Math_MSFontService', sans-serif"
     font-weight="400"
     font-size="48px"
     id="text52"
     x="335.23795"
     y="72.738998">𝑡</text>
  <text
     font-family="'Cambria Math', 'Cambria Math_MSFontService', sans-serif"
     font-weight="400"
     font-size="48px"
     id="text54"
     x="388.66495"
     y="72.738998">=</text>
  <text
     font-family="'Cambria Math', 'Cambria Math_MSFontService', sans-serif"
     font-weight="400"
     font-size="48px"
     id="text56"
     x="437.83194"
     y="72.738998">𝛽𝐼</text>
  <text
     font-family="'Cambria Math', 'Cambria Math_MSFontService', sans-serif"
     font-weight="400"
     font-size="48px"
     id="text58"
     x="79.095047"
     y="215.739">𝜌</text>
  <text
     font-family="'Cambria Math', 'Cambria Math_MSFontService', sans-serif"
     font-weight="400"
     font-size="48px"
     id="text60"
     x="289.66495"
     y="292.73901">𝜆</text>
  <path
     d="m 356.93495,256.436 c 4.563,1.203 8.067,3.801 10.512,7.793 2.445,3.992 3.668,8.808 3.668,14.449 0,5.656 -1.219,10.473 -3.656,14.449 -2.438,3.977 -5.946,6.567 -10.524,7.77 l -0.562,-1.805 c 3.609,-1.203 6.293,-3.578 8.05,-7.125 1.758,-3.547 2.637,-8.055 2.637,-13.523 0,-5.282 -0.875,-9.668 -2.625,-13.16 -1.75,-3.493 -4.461,-5.84 -8.133,-7.043 z m -23.218,0 0.633,1.805 c -3.657,1.203 -6.364,3.55 -8.121,7.043 -1.758,3.492 -2.637,7.878 -2.637,13.16 0,5.468 0.879,9.976 2.637,13.523 1.757,3.547 4.441,5.922 8.05,7.125 l -0.562,1.805 c -4.578,-1.203 -8.086,-3.793 -10.524,-7.77 -2.437,-3.976 -3.656,-8.793 -3.656,-14.449 0,-5.641 1.223,-10.457 3.668,-14.449 2.445,-3.992 5.949,-6.59 10.512,-7.793 z"
     fill-rule="evenodd"
     id="path62" />
  <text
     font-family="'Cambria Math', 'Cambria Math_MSFontService', sans-serif"
     font-weight="400"
     font-size="48px"
     id="text64"
     x="335.23795"
     y="292.73901">𝑡</text>
  <text
     font-family="'Cambria Math', 'Cambria Math_MSFontService', sans-serif"
     font-weight="400"
     font-size="48px"
     id="text66"
     x="388.66495"
     y="292.73901">=</text>
  <text
     font-family="'Cambria Math', 'Cambria Math_MSFontService', sans-serif"
     font-weight="400"
     font-size="48px"
     id="text68"
     x="437.83194"
     y="292.73901">𝛽𝐼</text>
</svg>
