<svg xmlns="http://www.w3.org/2000/svg" xmlns:xlink="http://www.w3.org/1999/xlink" width="793.6" height="1122.56" viewBox="0 0 595.2 841.92"><g data-name="Artifact"><clipPath id="a"><path transform="matrix(1 0 0 -1 0 841.92)" d="M0 0h595.2v841.92H0z" fill-rule="evenodd"/></clipPath><g clip-path="url(#a)"><path d="M0 841.92h595.2V0H0z" fill="#fff" fill-rule="evenodd"/></g></g><g data-name="Artifact"><path d="M70.875 183.09h453.5v-23.523h-453.5z" fill="#3b5fb5" fill-rule="evenodd"/><path stroke-width=".75" stroke-linejoin="round" fill="none" stroke="#3b5fb5" d="M70.5 183.09h454.25M70.5 286.63h454.25M70.875 159.19v153.4M524.38 159.19v153.4M70.5 159.56h454.25M70.5 312.21h454.25"/></g><g data-name="Span"><clipPath id="b"><path transform="matrix(1 0 0 -1 0 841.92)" d="M0 0h595.2v841.92H0z" fill-rule="evenodd"/></clipPath><g clip-path="url(#b)"><symbol id="c"><path d="M0 .124a.12.12 0 0 0 .036.087.12.12 0 0 0 .088.037A.12.12 0 0 0 .21.21.118.118 0 0 0 .248.124.12.12 0 0 0 .21.036.12.12 0 0 0 .124 0a.12.12 0 0 0-.088.036A.12.12 0 0 0 0 .124z"/></symbol><use xlink:href="#c" transform="matrix(9.96 0 0 -9.96 272.55 172.823)" fill="#3b5fb5"/></g></g><g data-name="Span"><clipPath id="d"><path transform="matrix(1 0 0 -1 0 841.92)" d="M0 0h595.2v841.92H0z" fill-rule="evenodd"/></clipPath><g clip-path="url(#d)"><symbol id="e"><path d="M.158 0H0v.7h.158V0z"/></symbol><symbol id="f"><path d="M.483 0H.329v.278C.33.355.301.394.246.394A.082.082 0 0 1 .18.364.117.117 0 0 1 .154.284V0H0v.5h.154V.42h.002c.037.062.09.092.16.092.112 0 .167-.068.167-.206V0z"/></symbol><symbol id="g"><path d="M.347.018A.228.228 0 0 0 .244 0C.135 0 .081.056.081.17v.228H0v.114h.081V.62l.154.044V.512h.112V.398H.235V.196c0-.052.02-.078.062-.078.016 0 .033.005.05.014V.018z"/></symbol><symbol id="h"><path d="M.326.36a.134.134 0 0 1-.065.016.093.093 0 0 1-.078-.037.16.16 0 0 1-.029-.1V0H0v.5h.154V.407h.002C.181.475.225.51.288.51A.1.1 0 0 0 .326.503V.36z"/></symbol><symbol id="i"><path d="M.268 0a.27.27 0 0 0-.197.07A.255.255 0 0 0 0 .26c0 .083.025.148.074.194a.28.28 0 0 0 .2.07.265.265 0 0 0 .196-.07A.248.248 0 0 0 .541.27.264.264 0 0 0 .468.072.27.27 0 0 0 .268 0m.004.406A.103.103 0 0 1 .187.37a.166.166 0 0 1-.03-.107c0-.096.038-.144.116-.144.074 0 .11.05.11.148 0 .094-.036.14-.111.14z"/></symbol><symbol id="j"><path d="M.519.012H.365v.07H.363A.173.173 0 0 0 .208 0a.19.19 0 0 0-.15.066A.275.275 0 0 0 0 .25C0 .334.021.4.063.45.105.5.16.524.228.524c.064 0 .11-.023.135-.069h.002v.297h.154v-.74M.368.255v.038c0 .033-.01.06-.029.081a.094.094 0 0 1-.073.032.093.093 0 0 1-.08-.04.186.186 0 0 1-.03-.11c0-.045.01-.078.029-.102A.092.092 0 0 1 .262.118c.031 0 .056.013.076.038.02.025.03.058.03.1z"/></symbol><symbol id="k"><path d="M.483.012H.329v.076H.327A.174.174 0 0 0 .174 0C.058 0 0 .07 0 .21v.302h.154V.224c0-.07.028-.106.084-.106.027 0 .05.01.066.029.017.02.025.046.025.08v.285h.154v-.5z"/></symbol><symbol id="l"><path d="M.409.03A.305.305 0 0 0 .258 0 .255.255 0 0 0 .07.07.241.241 0 0 0 0 .25c0 .085.025.152.076.2.051.05.12.074.205.074A.262.262 0 0 0 .409.501v-.13A.176.176 0 0 1 .3.405.143.143 0 0 1 .195.367.145.145 0 0 1 .157.26c0-.044.012-.079.037-.104A.137.137 0 0 1 .296.118c.038 0 .076.012.113.036V.03z"/></symbol><symbol id="m"><path d="M.089.58a.09.09 0 0 0-.064.022A.075.075 0 0 0 0 .66c0 .023.008.042.025.057a.093.093 0 0 0 .064.022.092.092 0 0 0 .064-.022.072.072 0 0 0 .025-.057.074.074 0 0 0-.025-.057.09.09 0 0 0-.064-.023M.165 0H.011v.5h.154V0z"/></symbol><use xlink:href="#e" transform="matrix(9.96 0 0 -9.96 286.378 175.08)" fill="#fff"/><use xlink:href="#f" transform="matrix(9.96 0 0 -9.96 289.344 175.08)" fill="#fff"/><use xlink:href="#g" transform="matrix(9.96 0 0 -9.96 294.923 175.202)" fill="#fff"/><use xlink:href="#h" transform="matrix(9.96 0 0 -9.96 299.185 175.08)" fill="#fff"/><use xlink:href="#i" transform="matrix(9.96 0 0 -9.96 302.852 175.202)" fill="#fff"/><use xlink:href="#j" transform="matrix(9.96 0 0 -9.96 308.958 175.202)" fill="#fff"/><use xlink:href="#k" transform="matrix(9.96 0 0 -9.96 315.292 175.202)" fill="#fff"/><use xlink:href="#l" transform="matrix(9.96 0 0 -9.96 321.099 175.202)" fill="#fff"/><use xlink:href="#g" transform="matrix(9.96 0 0 -9.96 325.729 175.202)" fill="#fff"/><use xlink:href="#m" transform="matrix(9.96 0 0 -9.96 329.904 175.08)" fill="#fff"/><use xlink:href="#i" transform="matrix(9.96 0 0 -9.96 332.583 175.202)" fill="#fff"/><use xlink:href="#f" transform="matrix(9.96 0 0 -9.96 338.985 175.08)" fill="#fff"/></g></g><g data-name="Span"><clipPath id="n"><path transform="matrix(1 0 0 -1 0 841.92)" d="M0 0h595.2v841.92H0z" fill-rule="evenodd"/></clipPath><g clip-path="url(#n)"><symbol id="o"><path d="M.003.04v.155A.304.304 0 0 1 .196.124a.22.22 0 0 1 .052.005.123.123 0 0 1 .037.015c.01.007.017.014.022.023a.06.06 0 0 1-.004.065.125.125 0 0 1-.032.03.322.322 0 0 1-.048.026 1.655 1.655 0 0 1-.06.025.309.309 0 0 0-.123.084.183.183 0 0 0-.04.12C0 .552.007.583.022.61a.187.187 0 0 0 .06.065c.025.017.054.03.087.037a.607.607 0 0 0 .202.005.37.37 0 0 0 .079-.02V.551a.274.274 0 0 1-.125.046A.304.304 0 0 1 .284.6a.206.206 0 0 1-.05-.005A.12.12 0 0 1 .199.58.07.07 0 0 1 .174.558a.057.057 0 0 1 .001-.06A.112.112 0 0 1 .202.47.311.311 0 0 1 .243.447L.298.422A.578.578 0 0 0 .374.385.26.26 0 0 0 .43.34.173.173 0 0 0 .468.283.2.2 0 0 0 .48.21.18.18 0 0 0 .397.046.265.265 0 0 0 .31.01.597.597 0 0 0 .093.01a.331.331 0 0 0-.09.03z"/></symbol><symbol id="p"><path d="M.156.288H.154V0H0v.73h.154V.655h.002a.181.181 0 0 0 .16.087.18.18 0 0 0 .15-.067.282.282 0 0 0 .054-.18C.52.41.5.343.458.292A.2.2 0 0 0 .294.218a.156.156 0 0 0-.138.07M.152.493v-.04C.152.42.16.39.179.37A.089.089 0 0 1 .251.336c.035 0 .062.013.082.04.02.028.029.066.029.116C.362.58.328.624.259.624A.097.097 0 0 1 .182.588a.143.143 0 0 1-.03-.095z"/></symbol><symbol id="q"><path d="M.479.218H.153C.158.146.203.11.29.11c.055 0 .103.013.145.04V.036A.381.381 0 0 0 .255 0a.254.254 0 0 0-.188.067A.255.255 0 0 0 0 .254c0 .083.024.15.072.198A.24.24 0 0 0 .25.524C.323.524.38.503.419.46a.25.25 0 0 0 .06-.176V.218M.336.313C.336.385.307.42.249.42A.084.084 0 0 1 .185.39.14.14 0 0 1 .152.313h.184z"/></symbol><symbol id="r"><path d="M.37.622a.156.156 0 0 1-.058.012C.262.634.238.607.238.554V.5h.114V.386H.238V0H.084v.386H0V.5h.084v.062A.18.18 0 0 0 .14.7.212.212 0 0 0 .29.752a.266.266 0 0 0 .078-.01v-.12z"/></symbol><symbol id="s"><path d="M0 0z"/></symbol><symbol id="t"><path d="M.154 0H0v.74h.154V0z"/></symbol><symbol id="u"><path d="M.543.735.34.195C.29.065.217 0 .12 0a.283.283 0 0 0-.093.013v.123A.13.13 0 0 1 .094.118c.04 0 .067.018.083.056l.026.062L0 .735h.17L.265.43A.395.395 0 0 0 .278.364H.28c.003.019.008.04.016.066L.39.735h.153z"/></symbol><symbol id="v"><path d="M.519 0H.365v.299H.363A.171.171 0 0 0 .209.218a.193.193 0 0 0-.152.065A.273.273 0 0 0 0 .468a.3.3 0 0 0 .063.2c.042.05.097.074.164.074.061 0 .106-.023.136-.07h.002V.73h.154V0M.368.469v.04c0 .032-.01.06-.029.082a.091.091 0 0 1-.072.033.094.094 0 0 1-.081-.04.185.185 0 0 1-.03-.112c0-.042.01-.076.03-.1A.091.091 0 0 1 .26.336c.032 0 .058.012.078.037.02.024.03.056.03.096z"/></symbol><symbol id="w"><path d="M0 .025V.15A.33.33 0 0 1 .076.116.254.254 0 0 1 .147.105c.028 0 .05.004.065.011.016.008.024.02.024.034 0 .01-.004.018-.01.025a.099.099 0 0 1-.029.017.299.299 0 0 1-.036.013.447.447 0 0 0-.092.037.163.163 0 0 0-.038.03.124.124 0 0 0-.023.04A.162.162 0 0 0 0 .365c0 .028.006.052.018.073a.15.15 0 0 0 .049.049C.087.5.11.509.137.515a.358.358 0 0 0 .15.004.478.478 0 0 0 .067-.015V.385A.255.255 0 0 1 .226.42.137.137 0 0 1 .172.41.04.04 0 0 1 .157.396.034.034 0 0 1 .16.354.08.08 0 0 1 .183.337a.283.283 0 0 1 .03-.013A1.08 1.08 0 0 0 .305.29.173.173 0 0 0 .347.26.113.113 0 0 0 .374.22a.14.14 0 0 0 .01-.055.143.143 0 0 0-.071-.127.229.229 0 0 0-.074-.029.447.447 0 0 0-.24.016z"/></symbol><symbol id="x"><path d="M.089.357A.091.091 0 0 0 .025.38.075.075 0 0 0 0 .438c0 .023.009.043.026.058.017.015.04.022.065.022A.091.091 0 0 0 .156.495.073.073 0 0 0 .18.438.073.073 0 0 0 .155.38.097.097 0 0 0 .09.357m0-.357a.09.09 0 0 0-.064.023A.075.075 0 0 0 0 .081C0 .104.009.124.026.14.043.154.066.16.09.16A.091.091 0 0 0 .156.138.073.073 0 0 0 .18.081.075.075 0 0 0 .155.022.097.097 0 0 0 .09 0z"/></symbol><use xlink:href="#o" transform="matrix(9.96 0 0 -9.96 99.687 214.732)" fill="#3b5fb5"/><use xlink:href="#p" transform="matrix(9.96 0 0 -9.96 105.514 216.9)" fill="#3b5fb5"/><use xlink:href="#q" transform="matrix(9.96 0 0 -9.96 111.333 214.732)" fill="#3b5fb5"/><use xlink:href="#l" transform="matrix(9.96 0 0 -9.96 116.721 214.732)" fill="#3b5fb5"/><use xlink:href="#m" transform="matrix(9.96 0 0 -9.96 121.712 214.61)" fill="#3b5fb5"/><use xlink:href="#r" transform="matrix(9.96 0 0 -9.96 124.26 214.61)" fill="#3b5fb5"/><use xlink:href="#m" transform="matrix(9.96 0 0 -9.96 128.395 214.61)" fill="#3b5fb5"/><use xlink:href="#l" transform="matrix(9.96 0 0 -9.96 131.104 214.732)" fill="#3b5fb5"/><use xlink:href="#s" transform="matrix(9.96 0 0 -9.96 135.534 214.61)" fill="#3b5fb5"/><use xlink:href="#p" transform="matrix(9.96 0 0 -9.96 138.95 216.9)" fill="#3b5fb5"/><use xlink:href="#i" transform="matrix(9.96 0 0 -9.96 144.769 214.732)" fill="#3b5fb5"/><use xlink:href="#t" transform="matrix(9.96 0 0 -9.96 151.17 214.61)" fill="#3b5fb5"/><use xlink:href="#m" transform="matrix(9.96 0 0 -9.96 153.932 214.61)" fill="#3b5fb5"/><use xlink:href="#l" transform="matrix(9.96 0 0 -9.96 156.611 214.732)" fill="#3b5fb5"/><use xlink:href="#u" transform="matrix(9.96 0 0 -9.96 161.022 216.95)" fill="#3b5fb5"/><use xlink:href="#s" transform="matrix(9.96 0 0 -9.96 166.45 214.61)" fill="#3b5fb5"/><use xlink:href="#v" transform="matrix(9.96 0 0 -9.96 169.55 216.9)" fill="#3b5fb5"/><use xlink:href="#k" transform="matrix(9.96 0 0 -9.96 175.903 214.732)" fill="#3b5fb5"/><use xlink:href="#q" transform="matrix(9.96 0 0 -9.96 181.71 214.732)" fill="#3b5fb5"/><use xlink:href="#w" transform="matrix(9.96 0 0 -9.96 187.07 214.732)" fill="#3b5fb5"/><use xlink:href="#g" transform="matrix(9.96 0 0 -9.96 191.36 214.732)" fill="#3b5fb5"/><use xlink:href="#m" transform="matrix(9.96 0 0 -9.96 195.545 214.61)" fill="#3b5fb5"/><use xlink:href="#i" transform="matrix(9.96 0 0 -9.96 198.224 214.732)" fill="#3b5fb5"/><use xlink:href="#f" transform="matrix(9.96 0 0 -9.96 204.626 214.61)" fill="#3b5fb5"/><use xlink:href="#x" transform="matrix(9.96 0 0 -9.96 210.453 214.732)" fill="#3b5fb5"/></g></g><g data-name="Span"><clipPath id="y"><path transform="matrix(1 0 0 -1 0 841.92)" d="M0 0h595.2v841.92H0z" fill-rule="evenodd"/></clipPath><g clip-path="url(#y)"><use xlink:href="#c" transform="matrix(9.96 0 0 -9.96 99.77 236.353)" fill="#3b5fb5"/></g></g><g data-name="Span"><clipPath id="z"><path transform="matrix(1 0 0 -1 0 841.92)" d="M0 0h595.2v841.92H0z" fill-rule="evenodd"/></clipPath><g clip-path="url(#z)"><symbol id="A"><path d="M0 .04v.097A.19.19 0 0 1 .04.11.357.357 0 0 1 .188.074c.05 0 .088.009.113.028a.095.095 0 0 1 .037.08.093.093 0 0 1-.012.05.134.134 0 0 1-.034.038.314.314 0 0 1-.053.033 2.74 2.74 0 0 1-.064.034 1.094 1.094 0 0 0-.069.038.296.296 0 0 0-.055.042.18.18 0 0 0-.037.051.165.165 0 0 0-.013.069c0 .032.007.06.021.083a.18.18 0 0 0 .055.058.25.25 0 0 0 .078.034.36.36 0 0 0 .09.012c.068 0 .118-.009.15-.025V.606a.273.273 0 0 1-.16.043.251.251 0 0 1-.053-.005.148.148 0 0 1-.048-.019A.106.106 0 0 1 .1.593a.087.087 0 0 1-.013-.05c0-.017.003-.032.01-.045a.117.117 0 0 1 .03-.036A.299.299 0 0 1 .173.43L.239.397A.92.92 0 0 0 .31.358.326.326 0 0 0 .37.313.198.198 0 0 0 .41.258a.153.153 0 0 0 .014-.07A.164.164 0 0 0 .35.042.232.232 0 0 0 .27.01.425.425 0 0 0 0 .04z"/></symbol><symbol id="B"><path d="M.082.302H.08V0H0v.73h.08V.642h.002c.04.066.097.1.173.1a.183.183 0 0 0 .15-.068.277.277 0 0 0 .055-.18.31.31 0 0 0-.061-.2.203.203 0 0 0-.167-.076.167.167 0 0 0-.15.084M.08.504v-.07A.15.15 0 0 1 .12.33.135.135 0 0 1 .223.286C.27.286.309.304.336.34a.254.254 0 0 1 .042.155c0 .056-.013.1-.039.131a.128.128 0 0 1-.104.047.142.142 0 0 1-.112-.049A.177.177 0 0 1 .08.504z"/></symbol><symbol id="C"><path d="M.436.242H.083a.187.187 0 0 1 .045-.13.155.155 0 0 1 .118-.045c.056 0 .108.019.155.056V.048A.29.29 0 0 0 .227 0a.212.212 0 0 0-.166.068A.28.28 0 0 0 0 .26C0 .338.022.4.066.45.11.499.165.523.23.523A.188.188 0 0 0 .382.46.265.265 0 0 0 .436.284V.242M.354.31A.162.162 0 0 1 .32.417a.113.113 0 0 1-.091.04.13.13 0 0 1-.096-.041A.184.184 0 0 1 .084.31h.27z"/></symbol><symbol id="D"><path d="M.375.035A.26.26 0 0 0 .238 0a.228.228 0 0 0-.173.07A.254.254 0 0 0 0 .25c0 .082.024.148.07.198.048.05.111.075.19.075A.263.263 0 0 0 .376.5V.417a.204.204 0 0 1-.12.04A.161.161 0 0 1 .132.4.208.208 0 0 1 .082.257.2.2 0 0 1 .128.118a.16.16 0 0 1 .124-.05.2.2 0 0 1 .123.043V.035z"/></symbol><symbol id="E"><path d="M.052.627A.05.05 0 0 0 0 .679a.05.05 0 0 0 .015.037.05.05 0 0 0 .037.015.05.05 0 0 0 .037-.015.049.049 0 0 0 .015-.037A.05.05 0 0 0 .09.642.05.05 0 0 0 .052.627M.09 0H.01v.5h.08V0z"/></symbol><symbol id="F"><path d="M.302.67A.107.107 0 0 1 .25.683C.193.683.165.648.165.577V.5h.117V.432H.165V0h-.08v.432H0V.5h.085v.081c0 .052.016.094.046.124s.068.046.113.046A.157.157 0 0 0 .302.742V.67z"/></symbol><symbol id="G"><path d="M0 0z"/></symbol><symbol id="H"><path d="M.415 0h-.08v.285c0 .106-.039.16-.116.16a.126.126 0 0 1-.1-.046A.167.167 0 0 1 .08.285V0H0v.5h.08V.417h.002a.18.18 0 0 0 .164.095C.301.512.343.494.372.458A.235.235 0 0 0 .415.306V0z"/></symbol><symbol id="I"><path d="M.292.016A.154.154 0 0 0 .217 0C.13 0 .086.049.086.146v.296H0v.069h.086v.122l.08.026V.51h.126V.442H.166V.161c0-.034.006-.058.017-.072C.194.075.213.067.24.067c.02 0 .037.006.052.017V.016z"/></symbol><symbol id="J"><path d="M.26.419A.098.098 0 0 1 .2.435C.166.435.137.42.114.387A.225.225 0 0 1 .08.255V0H0v.5h.08V.397h.002a.173.173 0 0 0 .052.082c.024.02.05.03.079.03A.13.13 0 0 0 .26.502V.419z"/></symbol><symbol id="K"><path d="M.467.5.268 0H.19L0 .5h.088L.215.137a.326.326 0 0 0 .017-.07h.002A.33.33 0 0 0 .25.135L.383.5h.084z"/></symbol><symbol id="L"><path d="M.243 0a.233.233 0 0 0-.177.07A.261.261 0 0 0 0 .256c0 .084.023.15.069.197.046.047.108.07.186.07A.223.223 0 0 0 .429.455.272.272 0 0 0 .492.264.269.269 0 0 0 .424.072.237.237 0 0 0 .244 0m.005.456A.152.152 0 0 1 .127.403.215.215 0 0 1 .082.26c0-.06.015-.106.045-.14A.154.154 0 0 1 .25.067c.052 0 .091.017.12.05A.217.217 0 0 1 .41.262C.41.323.396.37.368.405A.145.145 0 0 1 .25.456z"/></symbol><use xlink:href="#A" transform="matrix(9.96 0 0 -9.96 113.388 238.727)" fill="#3b5fb5"/><use xlink:href="#B" transform="matrix(9.96 0 0 -9.96 118.896 240.9)" fill="#3b5fb5"/><use xlink:href="#C" transform="matrix(9.96 0 0 -9.96 124.412 238.727)" fill="#3b5fb5"/><use xlink:href="#D" transform="matrix(9.96 0 0 -9.96 129.591 238.727)" fill="#3b5fb5"/><use xlink:href="#E" transform="matrix(9.96 0 0 -9.96 134.386 238.61)" fill="#3b5fb5"/><use xlink:href="#F" transform="matrix(9.96 0 0 -9.96 136.354 238.61)" fill="#3b5fb5"/><use xlink:href="#E" transform="matrix(9.96 0 0 -9.96 139.914 238.61)" fill="#3b5fb5"/><use xlink:href="#D" transform="matrix(9.96 0 0 -9.96 142.091 238.727)" fill="#3b5fb5"/><use xlink:href="#G" transform="matrix(9.96 0 0 -9.96 146.166 238.61)" fill="#3b5fb5"/><use xlink:href="#E" transform="matrix(9.96 0 0 -9.96 149.854 238.61)" fill="#3b5fb5"/><use xlink:href="#H" transform="matrix(9.96 0 0 -9.96 152.372 238.61)" fill="#3b5fb5"/><use xlink:href="#I" transform="matrix(9.96 0 0 -9.96 157.41 238.717)" fill="#3b5fb5"/><use xlink:href="#C" transform="matrix(9.96 0 0 -9.96 161.045 238.727)" fill="#3b5fb5"/><use xlink:href="#J" transform="matrix(9.96 0 0 -9.96 166.525 238.61)" fill="#3b5fb5"/><use xlink:href="#K" transform="matrix(9.96 0 0 -9.96 169.252 238.61)" fill="#3b5fb5"/><use xlink:href="#C" transform="matrix(9.96 0 0 -9.96 174.451 238.727)" fill="#3b5fb5"/><use xlink:href="#H" transform="matrix(9.96 0 0 -9.96 179.95 238.61)" fill="#3b5fb5"/><use xlink:href="#I" transform="matrix(9.96 0 0 -9.96 184.99 238.717)" fill="#3b5fb5"/><use xlink:href="#E" transform="matrix(9.96 0 0 -9.96 188.858 238.61)" fill="#3b5fb5"/><use xlink:href="#L" transform="matrix(9.96 0 0 -9.96 191.035 238.727)" fill="#3b5fb5"/><use xlink:href="#H" transform="matrix(9.96 0 0 -9.96 197.212 238.61)" fill="#3b5fb5"/></g></g><g data-name="Span"><clipPath id="M"><path transform="matrix(1 0 0 -1 0 841.92)" d="M0 0h595.2v841.92H0z" fill-rule="evenodd"/></clipPath><g clip-path="url(#M)"><use xlink:href="#c" transform="matrix(9.96 0 0 -9.96 99.77 248.353)" fill="#3b5fb5"/></g></g><g data-name="Span"><clipPath id="N"><path transform="matrix(1 0 0 -1 0 841.92)" d="M0 0h595.2v841.92H0z" fill-rule="evenodd"/></clipPath><g clip-path="url(#N)"><symbol id="O"><path d="M.082.265V0H0v.7h.192A.253.253 0 0 0 .366.646.195.195 0 0 0 .428.49.212.212 0 0 0 .36.328.261.261 0 0 0 .174.265H.082m0 .361V.339h.086c.057 0 .1.013.13.038.03.026.044.063.044.11C.342.58.288.626.178.626H.082z"/></symbol><symbol id="P"><path d="M.415.012h-.08V.09H.333A.164.164 0 0 0 .179 0C.059 0 0 .071 0 .213v.299h.08V.226C.08.12.12.067.2.067c.04 0 .072.015.097.043a.166.166 0 0 1 .038.114v.288h.08v-.5z"/></symbol><symbol id="Q"><path d="M.08 0H0v.74h.08V0z"/></symbol><symbol id="R"><path d="M.395.012h-.08V.09H.313A.168.168 0 0 0 .159 0a.165.165 0 0 0-.117.04A.137.137 0 0 0 0 .145c0 .093.055.147.165.163l.15.02C.315.415.28.457.212.457A.246.246 0 0 1 .049.395v.082a.31.31 0 0 0 .17.046C.336.523.395.461.395.337V.012m-.08.253L.195.248A.193.193 0 0 1 .11.22C.091.207.082.184.082.15c0-.024.009-.044.026-.06a.103.103 0 0 1 .07-.023c.04 0 .072.014.098.042a.15.15 0 0 1 .039.106v.05z"/></symbol><symbol id="S"><path d="M.46.275C.46.092.374 0 .198 0a.354.354 0 0 0-.162.035v.08A.333.333 0 0 1 .196.068c.123 0 .185.066.185.197v.054H.379A.187.187 0 0 0 .207.224a.189.189 0 0 0-.15.066A.268.268 0 0 0 0 .47c0 .084.02.152.061.202.041.05.097.075.168.075a.163.163 0 0 0 .15-.081H.38v.07h.08v-.46M.38.46v.074A.143.143 0 0 1 .24.68.139.139 0 0 1 .123.625a.24.24 0 0 1-.042-.15c0-.056.013-.1.04-.134A.131.131 0 0 1 .23.29c.045 0 .081.016.11.048A.178.178 0 0 1 .38.46z"/></symbol><symbol id="T"><path d="M.46.012H.38v.085H.38A.185.185 0 0 0 .207 0a.188.188 0 0 0-.15.067A.277.277 0 0 0 0 .25a.3.3 0 0 0 .063.199c.041.05.097.074.166.074s.119-.027.15-.08H.38v.309h.08v-.74M.38.238v.074c0 .04-.013.074-.04.102a.134.134 0 0 1-.102.042.138.138 0 0 1-.115-.054.235.235 0 0 1-.042-.148c0-.058.013-.103.04-.137A.133.133 0 0 1 .23.067c.045 0 .081.016.109.049A.18.18 0 0 1 .38.238z"/></symbol><symbol id="U"><path d="M.415 0h-.08v.288c0 .104-.039.156-.116.156A.126.126 0 0 1 .12.4.167.167 0 0 1 .08.283V0H0v.74h.08V.417h.002a.182.182 0 0 0 .164.095C.36.512.415.444.415.308V0z"/></symbol><use xlink:href="#O" transform="matrix(9.96 0 0 -9.96 113.714 250.61)" fill="#3b5fb5"/><use xlink:href="#L" transform="matrix(9.96 0 0 -9.96 118.785 250.727)" fill="#3b5fb5"/><use xlink:href="#B" transform="matrix(9.96 0 0 -9.96 124.992 252.9)" fill="#3b5fb5"/><use xlink:href="#P" transform="matrix(9.96 0 0 -9.96 130.741 250.727)" fill="#3b5fb5"/><use xlink:href="#Q" transform="matrix(9.96 0 0 -9.96 136.485 250.61)" fill="#3b5fb5"/><use xlink:href="#R" transform="matrix(9.96 0 0 -9.96 138.526 250.727)" fill="#3b5fb5"/><use xlink:href="#I" transform="matrix(9.96 0 0 -9.96 143.367 250.717)" fill="#3b5fb5"/><use xlink:href="#E" transform="matrix(9.96 0 0 -9.96 147.205 250.61)" fill="#3b5fb5"/><use xlink:href="#L" transform="matrix(9.96 0 0 -9.96 149.382 250.727)" fill="#3b5fb5"/><use xlink:href="#H" transform="matrix(9.96 0 0 -9.96 155.579 250.61)" fill="#3b5fb5"/><use xlink:href="#G" transform="matrix(9.96 0 0 -9.96 160.409 250.61)" fill="#3b5fb5"/><use xlink:href="#I" transform="matrix(9.96 0 0 -9.96 163.486 250.717)" fill="#3b5fb5"/><use xlink:href="#R" transform="matrix(9.96 0 0 -9.96 167.091 250.727)" fill="#3b5fb5"/><use xlink:href="#J" transform="matrix(9.96 0 0 -9.96 172.48 250.61)" fill="#3b5fb5"/><use xlink:href="#S" transform="matrix(9.96 0 0 -9.96 175.606 252.954)" fill="#3b5fb5"/><use xlink:href="#C" transform="matrix(9.96 0 0 -9.96 181.473 250.727)" fill="#3b5fb5"/><use xlink:href="#I" transform="matrix(9.96 0 0 -9.96 186.424 250.717)" fill="#3b5fb5"/><use xlink:href="#C" transform="matrix(9.96 0 0 -9.96 190.019 250.727)" fill="#3b5fb5"/><use xlink:href="#T" transform="matrix(9.96 0 0 -9.96 195.178 250.727)" fill="#3b5fb5"/><use xlink:href="#G" transform="matrix(9.96 0 0 -9.96 200.577 250.61)" fill="#3b5fb5"/><use xlink:href="#F" transform="matrix(9.96 0 0 -9.96 203.843 250.61)" fill="#3b5fb5"/><use xlink:href="#L" transform="matrix(9.96 0 0 -9.96 207.17 250.727)" fill="#3b5fb5"/><use xlink:href="#J" transform="matrix(9.96 0 0 -9.96 213.387 250.61)" fill="#3b5fb5"/><use xlink:href="#G" transform="matrix(9.96 0 0 -9.96 216.045 250.61)" fill="#3b5fb5"/><use xlink:href="#I" transform="matrix(9.96 0 0 -9.96 219.023 250.717)" fill="#3b5fb5"/><use xlink:href="#U" transform="matrix(9.96 0 0 -9.96 222.998 250.61)" fill="#3b5fb5"/><use xlink:href="#C" transform="matrix(9.96 0 0 -9.96 228.295 250.727)" fill="#3b5fb5"/><use xlink:href="#G" transform="matrix(9.96 0 0 -9.96 232.977 250.61)" fill="#3b5fb5"/><use xlink:href="#E" transform="matrix(9.96 0 0 -9.96 236.546 250.61)" fill="#3b5fb5"/><use xlink:href="#H" transform="matrix(9.96 0 0 -9.96 239.063 250.61)" fill="#3b5fb5"/><use xlink:href="#I" transform="matrix(9.96 0 0 -9.96 244.103 250.717)" fill="#3b5fb5"/><use xlink:href="#C" transform="matrix(9.96 0 0 -9.96 247.737 250.727)" fill="#3b5fb5"/><use xlink:href="#J" transform="matrix(9.96 0 0 -9.96 253.217 250.61)" fill="#3b5fb5"/><use xlink:href="#K" transform="matrix(9.96 0 0 -9.96 255.943 250.61)" fill="#3b5fb5"/><use xlink:href="#C" transform="matrix(9.96 0 0 -9.96 261.143 250.727)" fill="#3b5fb5"/><use xlink:href="#H" transform="matrix(9.96 0 0 -9.96 266.643 250.61)" fill="#3b5fb5"/><use xlink:href="#I" transform="matrix(9.96 0 0 -9.96 271.682 250.717)" fill="#3b5fb5"/><use xlink:href="#E" transform="matrix(9.96 0 0 -9.96 275.55 250.61)" fill="#3b5fb5"/><use xlink:href="#L" transform="matrix(9.96 0 0 -9.96 277.726 250.727)" fill="#3b5fb5"/><use xlink:href="#H" transform="matrix(9.96 0 0 -9.96 283.903 250.61)" fill="#3b5fb5"/><use xlink:href="#G" transform="matrix(9.96 0 0 -9.96 288.733 250.61)" fill="#3b5fb5"/></g></g><g data-name="Span"><clipPath id="V"><path transform="matrix(1 0 0 -1 0 841.92)" d="M0 0h595.2v841.92H0z" fill-rule="evenodd"/></clipPath><g clip-path="url(#V)"><use xlink:href="#c" transform="matrix(9.96 0 0 -9.96 99.77 260.353)" fill="#3b5fb5"/></g></g><g data-name="Span"><clipPath id="W"><path transform="matrix(1 0 0 -1 0 841.92)" d="M0 0h595.2v841.92H0z" fill-rule="evenodd"/></clipPath><g clip-path="url(#W)"><symbol id="X"><path d="M.57.06A.468.468 0 0 0 .334 0c-.1 0-.18.032-.243.097A.355.355 0 0 0 0 .353C0 .46.034.55.103.619a.35.35 0 0 0 .26.105C.44.724.503.71.555.687V.596a.369.369 0 0 1-.201.053.251.251 0 0 1-.193-.08.296.296 0 0 1-.075-.21c0-.09.023-.159.07-.21a.245.245 0 0 1 .19-.075c.054 0 .101.01.141.032v.197H.334v.074h.235V.06z"/></symbol><symbol id="Y"><path d="M0 .03v.086A.237.237 0 0 1 .144.067c.07 0 .106.024.106.07a.059.059 0 0 1-.01.034.084.084 0 0 1-.024.025.17.17 0 0 1-.036.02.642.642 0 0 0-.103.044.193.193 0 0 0-.042.03.12.12 0 0 0-.026.039.14.14 0 0 0 .008.112.14.14 0 0 0 .043.045.197.197 0 0 0 .061.028A.287.287 0 0 0 .31.501V.42A.226.226 0 0 1 .14.45.098.098 0 0 1 .11.438.07.07 0 0 1 .09.414.059.059 0 0 1 .083.386.07.07 0 0 1 .09.353.075.075 0 0 1 .11.33.159.159 0 0 1 .145.31L.188.293a.58.58 0 0 0 .06-.026.194.194 0 0 0 .045-.03.113.113 0 0 0 .028-.04.123.123 0 0 0 .01-.051A.122.122 0 0 0 .316.08.138.138 0 0 0 .27.036.2.2 0 0 0 .208.009.311.311 0 0 0 .134 0 .284.284 0 0 0 0 .03z"/></symbol><symbol id="Z"><path d="M.082.084H.08V.012H0v.74h.08V.424h.002c.04.066.097.1.173.1a.182.182 0 0 0 .15-.068.275.275 0 0 0 .055-.18.31.31 0 0 0-.061-.2A.203.203 0 0 0 .232 0a.164.164 0 0 0-.15.084M.08.286v-.07A.15.15 0 0 1 .12.11.135.135 0 0 1 .223.067c.048 0 .086.019.113.056a.254.254 0 0 1 .042.155c0 .055-.013.1-.039.13a.128.128 0 0 1-.104.048.142.142 0 0 1-.112-.049A.177.177 0 0 1 .08.286z"/></symbol><symbol id="aa"><path d="m.472.735-.23-.58C.202.052.144 0 .07 0a.183.183 0 0 0-.052.006v.072A.148.148 0 0 1 .064.07c.04 0 .071.024.091.073l.04.094-.195.5h.089L.224.35a.778.778 0 0 0 .01-.038h.003l.01.037.142.385h.083z"/></symbol><use xlink:href="#X" transform="matrix(9.96 0 0 -9.96 113.257 262.727)" fill="#3b5fb5"/><use xlink:href="#L" transform="matrix(9.96 0 0 -9.96 120.1 262.727)" fill="#3b5fb5"/><use xlink:href="#R" transform="matrix(9.96 0 0 -9.96 125.947 262.727)" fill="#3b5fb5"/><use xlink:href="#Q" transform="matrix(9.96 0 0 -9.96 131.386 262.61)" fill="#3b5fb5"/><use xlink:href="#G" transform="matrix(9.96 0 0 -9.96 132.95 262.61)" fill="#3b5fb5"/><use xlink:href="#I" transform="matrix(9.96 0 0 -9.96 136.027 262.717)" fill="#3b5fb5"/><use xlink:href="#U" transform="matrix(9.96 0 0 -9.96 140.001 262.61)" fill="#3b5fb5"/><use xlink:href="#R" transform="matrix(9.96 0 0 -9.96 145.269 262.727)" fill="#3b5fb5"/><use xlink:href="#I" transform="matrix(9.96 0 0 -9.96 150.07 262.717)" fill="#3b5fb5"/><use xlink:href="#G" transform="matrix(9.96 0 0 -9.96 153.238 262.61)" fill="#3b5fb5"/><use xlink:href="#Y" transform="matrix(9.96 0 0 -9.96 156.472 262.727)" fill="#3b5fb5"/><use xlink:href="#U" transform="matrix(9.96 0 0 -9.96 160.997 262.61)" fill="#3b5fb5"/><use xlink:href="#L" transform="matrix(9.96 0 0 -9.96 166.294 262.727)" fill="#3b5fb5"/><use xlink:href="#P" transform="matrix(9.96 0 0 -9.96 172.394 262.727)" fill="#3b5fb5"/><use xlink:href="#Q" transform="matrix(9.96 0 0 -9.96 178.138 262.61)" fill="#3b5fb5"/><use xlink:href="#T" transform="matrix(9.96 0 0 -9.96 180.208 262.727)" fill="#3b5fb5"/><use xlink:href="#G" transform="matrix(9.96 0 0 -9.96 185.608 262.61)" fill="#3b5fb5"/><use xlink:href="#Z" transform="matrix(9.96 0 0 -9.96 189.174 262.727)" fill="#3b5fb5"/><use xlink:href="#C" transform="matrix(9.96 0 0 -9.96 194.69 262.727)" fill="#3b5fb5"/><use xlink:href="#G" transform="matrix(9.96 0 0 -9.96 199.432 262.61)" fill="#3b5fb5"/><use xlink:href="#J" transform="matrix(9.96 0 0 -9.96 203.088 262.61)" fill="#3b5fb5"/><use xlink:href="#C" transform="matrix(9.96 0 0 -9.96 206.214 262.727)" fill="#3b5fb5"/><use xlink:href="#R" transform="matrix(9.96 0 0 -9.96 211.354 262.727)" fill="#3b5fb5"/><use xlink:href="#D" transform="matrix(9.96 0 0 -9.96 216.452 262.727)" fill="#3b5fb5"/><use xlink:href="#U" transform="matrix(9.96 0 0 -9.96 221.325 262.61)" fill="#3b5fb5"/><use xlink:href="#C" transform="matrix(9.96 0 0 -9.96 226.622 262.727)" fill="#3b5fb5"/><use xlink:href="#T" transform="matrix(9.96 0 0 -9.96 231.78 262.727)" fill="#3b5fb5"/><use xlink:href="#G" transform="matrix(9.96 0 0 -9.96 237.18 262.61)" fill="#3b5fb5"/><use xlink:href="#Z" transform="matrix(9.96 0 0 -9.96 241.115 262.727)" fill="#3b5fb5"/><use xlink:href="#aa" transform="matrix(9.96 0 0 -9.96 246.232 264.954)" fill="#3b5fb5"/><use xlink:href="#G" transform="matrix(9.96 0 0 -9.96 250.985 262.61)" fill="#3b5fb5"/><use xlink:href="#I" transform="matrix(9.96 0 0 -9.96 253.943 262.717)" fill="#3b5fb5"/><use xlink:href="#U" transform="matrix(9.96 0 0 -9.96 257.918 262.61)" fill="#3b5fb5"/><use xlink:href="#C" transform="matrix(9.96 0 0 -9.96 263.215 262.727)" fill="#3b5fb5"/><use xlink:href="#G" transform="matrix(9.96 0 0 -9.96 267.897 262.61)" fill="#3b5fb5"/><use xlink:href="#E" transform="matrix(9.96 0 0 -9.96 271.466 262.61)" fill="#3b5fb5"/><use xlink:href="#H" transform="matrix(9.96 0 0 -9.96 273.983 262.61)" fill="#3b5fb5"/><use xlink:href="#I" transform="matrix(9.96 0 0 -9.96 279.022 262.717)" fill="#3b5fb5"/><use xlink:href="#J" transform="matrix(9.96 0 0 -9.96 282.997 262.61)" fill="#3b5fb5"/><use xlink:href="#L" transform="matrix(9.96 0 0 -9.96 286.123 262.727)" fill="#3b5fb5"/><use xlink:href="#T" transform="matrix(9.96 0 0 -9.96 291.98 262.727)" fill="#3b5fb5"/><use xlink:href="#P" transform="matrix(9.96 0 0 -9.96 298.079 262.727)" fill="#3b5fb5"/><use xlink:href="#D" transform="matrix(9.96 0 0 -9.96 303.483 262.727)" fill="#3b5fb5"/><use xlink:href="#I" transform="matrix(9.96 0 0 -9.96 307.827 262.717)" fill="#3b5fb5"/><use xlink:href="#E" transform="matrix(9.96 0 0 -9.96 311.654 262.61)" fill="#3b5fb5"/><use xlink:href="#L" transform="matrix(9.96 0 0 -9.96 313.831 262.727)" fill="#3b5fb5"/><use xlink:href="#H" transform="matrix(9.96 0 0 -9.96 320.028 262.61)" fill="#3b5fb5"/><use xlink:href="#G" transform="matrix(9.96 0 0 -9.96 324.858 262.61)" fill="#3b5fb5"/><use xlink:href="#L" transform="matrix(9.96 0 0 -9.96 328.074 262.727)" fill="#3b5fb5"/><use xlink:href="#F" transform="matrix(9.96 0 0 -9.96 333.731 262.61)" fill="#3b5fb5"/><use xlink:href="#G" transform="matrix(9.96 0 0 -9.96 336.591 262.61)" fill="#3b5fb5"/><use xlink:href="#I" transform="matrix(9.96 0 0 -9.96 339.55 262.717)" fill="#3b5fb5"/><use xlink:href="#U" transform="matrix(9.96 0 0 -9.96 343.524 262.61)" fill="#3b5fb5"/><use xlink:href="#C" transform="matrix(9.96 0 0 -9.96 348.82 262.727)" fill="#3b5fb5"/><use xlink:href="#G" transform="matrix(9.96 0 0 -9.96 353.503 262.61)" fill="#3b5fb5"/><use xlink:href="#E" transform="matrix(9.96 0 0 -9.96 356.952 262.61)" fill="#3b5fb5"/><use xlink:href="#H" transform="matrix(9.96 0 0 -9.96 359.47 262.61)" fill="#3b5fb5"/><use xlink:href="#I" transform="matrix(9.96 0 0 -9.96 364.509 262.717)" fill="#3b5fb5"/><use xlink:href="#C" transform="matrix(9.96 0 0 -9.96 368.143 262.727)" fill="#3b5fb5"/><use xlink:href="#J" transform="matrix(9.96 0 0 -9.96 373.623 262.61)" fill="#3b5fb5"/><use xlink:href="#K" transform="matrix(9.96 0 0 -9.96 376.35 262.61)" fill="#3b5fb5"/><use xlink:href="#C" transform="matrix(9.96 0 0 -9.96 381.55 262.727)" fill="#3b5fb5"/><use xlink:href="#H" transform="matrix(9.96 0 0 -9.96 387.05 262.61)" fill="#3b5fb5"/><use xlink:href="#I" transform="matrix(9.96 0 0 -9.96 392.088 262.717)" fill="#3b5fb5"/><use xlink:href="#E" transform="matrix(9.96 0 0 -9.96 395.956 262.61)" fill="#3b5fb5"/><use xlink:href="#L" transform="matrix(9.96 0 0 -9.96 398.133 262.727)" fill="#3b5fb5"/><use xlink:href="#H" transform="matrix(9.96 0 0 -9.96 404.31 262.61)" fill="#3b5fb5"/><use xlink:href="#G" transform="matrix(9.96 0 0 -9.96 409.14 262.61)" fill="#3b5fb5"/><use xlink:href="#E" transform="matrix(9.96 0 0 -9.96 412.728 262.61)" fill="#3b5fb5"/><use xlink:href="#H" transform="matrix(9.96 0 0 -9.96 415.246 262.61)" fill="#3b5fb5"/><use xlink:href="#G" transform="matrix(9.96 0 0 -9.96 420.076 262.61)" fill="#3b5fb5"/><use xlink:href="#I" transform="matrix(9.96 0 0 -9.96 422.914 262.717)" fill="#3b5fb5"/><use xlink:href="#U" transform="matrix(9.96 0 0 -9.96 426.889 262.61)" fill="#3b5fb5"/><use xlink:href="#C" transform="matrix(9.96 0 0 -9.96 432.186 262.727)" fill="#3b5fb5"/><use xlink:href="#G" transform="matrix(9.96 0 0 -9.96 436.868 262.61)" fill="#3b5fb5"/><use xlink:href="#I" transform="matrix(9.96 0 0 -9.96 439.946 262.717)" fill="#3b5fb5"/><use xlink:href="#R" transform="matrix(9.96 0 0 -9.96 443.55 262.727)" fill="#3b5fb5"/><use xlink:href="#J" transform="matrix(9.96 0 0 -9.96 448.94 262.61)" fill="#3b5fb5"/><use xlink:href="#S" transform="matrix(9.96 0 0 -9.96 452.066 264.954)" fill="#3b5fb5"/><use xlink:href="#C" transform="matrix(9.96 0 0 -9.96 457.933 262.727)" fill="#3b5fb5"/><use xlink:href="#I" transform="matrix(9.96 0 0 -9.96 462.884 262.717)" fill="#3b5fb5"/><use xlink:href="#G" transform="matrix(9.96 0 0 -9.96 466.011 262.61)" fill="#3b5fb5"/><use xlink:href="#S" transform="matrix(9.96 0 0 -9.96 469.466 264.954)" fill="#3b5fb5"/><use xlink:href="#J" transform="matrix(9.96 0 0 -9.96 475.673 262.61)" fill="#3b5fb5"/><use xlink:href="#L" transform="matrix(9.96 0 0 -9.96 478.799 262.727)" fill="#3b5fb5"/><use xlink:href="#P" transform="matrix(9.96 0 0 -9.96 484.928 262.727)" fill="#3b5fb5"/><use xlink:href="#B" transform="matrix(9.96 0 0 -9.96 490.673 264.9)" fill="#3b5fb5"/></g></g><g data-name="Span"><clipPath id="ab"><path transform="matrix(1 0 0 -1 0 841.92)" d="M0 0h595.2v841.92H0z" fill-rule="evenodd"/></clipPath><g clip-path="url(#ab)"><symbol id="ac"><path d="M0 0v.7h.255a.318.318 0 0 0 .18-.043.138.138 0 0 0 .063-.12.143.143 0 0 0-.039-.1.2.2 0 0 0-.097-.06V.377A.193.193 0 0 0 .48.321.154.154 0 0 0 .526.209.188.188 0 0 0 .457.056.289.289 0 0 0 .269 0H0m.158.584V.418h.07c.032 0 .057.008.076.023a.081.081 0 0 1 .028.066c0 .051-.038.077-.115.077h-.06m0-.283V.116h.086A.13.13 0 0 1 .33.142c.02.017.03.04.03.069C.36.239.35.26.33.277A.134.134 0 0 1 .244.3H.158z"/></symbol><symbol id="ad"><path d="M.453.012H.307v.072H.305A.163.163 0 0 0 .156 0a.157.157 0 0 0-.114.041.15.15 0 0 0-.042.11C0 .248.057.304.172.32l.136.018C.308.392.278.42.22.42A.303.303 0 0 1 .05.366v.116a.467.467 0 0 0 .19.042c.143 0 .214-.07.214-.213V.012M.308.215V.25L.218.237C.167.231.141.208.141.17.142.152.148.137.16.126A.072.072 0 0 1 .21.109c.029 0 .053.01.07.03a.11.11 0 0 1 .028.076z"/></symbol><symbol id="ae"><path d="M.501 0H.316l-.16.248H.154V0H0v.74h.154V.27h.002L.306.5h.182L.31.265.501 0z"/></symbol><symbol id="af"><path d="M.52.292A.282.282 0 0 0 .44.077C.385.026.307 0 .205 0a.37.37 0 0 0-.16.029v.13A.307.307 0 0 1 .202.114c.052 0 .092.014.12.041a.147.147 0 0 1 .044.112v.04H.364A.172.172 0 0 0 .208.223.187.187 0 0 0 .056.29.273.273 0 0 0 0 .47c0 .085.02.153.063.202.041.05.096.075.164.075.06 0 .106-.023.137-.07h.002v.058H.52V.292M.368.475v.04a.12.12 0 0 1-.029.08.09.09 0 0 1-.072.034.094.094 0 0 1-.081-.04.188.188 0 0 1-.03-.113.16.16 0 0 1 .029-.099A.09.09 0 0 1 .26.341c.032 0 .057.012.077.036.02.025.03.058.03.098z"/></symbol><use xlink:href="#ac" transform="matrix(9.96 0 0 -9.96 100.038 303.19)" fill="#3b5fb5"/><use xlink:href="#ad" transform="matrix(9.96 0 0 -9.96 105.902 303.312)" fill="#3b5fb5"/><use xlink:href="#l" transform="matrix(9.96 0 0 -9.96 111.333 303.312)" fill="#3b5fb5"/><use xlink:href="#ae" transform="matrix(9.96 0 0 -9.96 116.44 303.19)" fill="#3b5fb5"/><use xlink:href="#af" transform="matrix(9.96 0 0 -9.96 121.662 305.53)" fill="#3b5fb5"/><use xlink:href="#h" transform="matrix(9.96 0 0 -9.96 128.074 303.19)" fill="#3b5fb5"/><use xlink:href="#i" transform="matrix(9.96 0 0 -9.96 131.741 303.312)" fill="#3b5fb5"/><use xlink:href="#k" transform="matrix(9.96 0 0 -9.96 138.065 303.312)" fill="#3b5fb5"/><use xlink:href="#f" transform="matrix(9.96 0 0 -9.96 144.169 303.19)" fill="#3b5fb5"/><use xlink:href="#j" transform="matrix(9.96 0 0 -9.96 149.848 303.312)" fill="#3b5fb5"/><use xlink:href="#x" transform="matrix(9.96 0 0 -9.96 156.061 303.312)" fill="#3b5fb5"/></g></g><g data-name="Span"><clipPath id="ag"><path transform="matrix(1 0 0 -1 0 841.92)" d="M0 0h595.2v841.92H0z" fill-rule="evenodd"/></clipPath><g clip-path="url(#ag)"><symbol id="ah"><path d="M.557.572h-.2V0H.199v.572H0V.7h.557V.572z"/></symbol><symbol id="ai"><path d="M.156.07H.154V.012H0v.74h.154V.437h.002A.183.183 0 0 0 .32.524.178.178 0 0 0 .468.458.286.286 0 0 0 .52.276a.31.31 0 0 0-.061-.2A.199.199 0 0 0 .296 0a.158.158 0 0 0-.14.07M.152.281V.23c0-.032.01-.059.028-.08A.09.09 0 0 1 .25.118c.035 0 .062.014.082.04.02.028.029.067.029.116a.154.154 0 0 1-.027.097.089.089 0 0 1-.076.035.099.099 0 0 1-.077-.034.132.132 0 0 1-.03-.09z"/></symbol><symbol id="aj"><path d="M0 .035V.17A.271.271 0 0 1 .164.12c.04 0 .07.008.092.025.022.016.033.04.033.07a.08.08 0 0 1-.041.073.21.21 0 0 1-.112.025H.071V.43h.06c.091 0 .137.03.137.091 0 .057-.035.085-.105.085A.24.24 0 0 1 .026.561v.126c.05.025.107.037.172.037A.258.258 0 0 0 .365.676.154.154 0 0 0 .425.55C.425.46.38.402.286.378V.376A.189.189 0 0 0 .403.322a.151.151 0 0 0 .043-.11.188.188 0 0 0-.071-.155A.31.31 0 0 0 .176 0 .383.383 0 0 0 0 .035z"/></symbol><symbol id="ak"><path d="M.089 0a.09.09 0 0 0-.064.023A.075.075 0 0 0 0 .081C0 .104.009.124.026.14.043.154.066.16.09.16A.091.091 0 0 0 .156.138.073.073 0 0 0 .18.081.075.075 0 0 0 .155.022.097.097 0 0 0 .09 0z"/></symbol><symbol id="al"><path d="M.42 0H0v.7h.404V.572H.158V.416h.229V.288h-.23v-.16H.42V0z"/></symbol><symbol id="am"><path d="M.587 0h-.18l-.11.18a.61.61 0 0 1-.046.064.08.08 0 0 1-.024.018A.057.057 0 0 1 .2.268H.158V0H0v.7h.25C.42.7.505.637.505.51A.189.189 0 0 0 .412.343.251.251 0 0 0 .348.315V.313a.098.098 0 0 0 .03-.016A.313.313 0 0 0 .432.24.465.465 0 0 0 .455.207L.587 0m-.43.582V.387h.07c.033 0 .06.01.08.03C.329.437.34.46.34.49c0 .061-.037.092-.11.092H.158z"/></symbol><symbol id="an"><path d="M.405.572H.158V.4h.227V.272H.158V0H0v.7h.405V.572z"/></symbol><symbol id="ao"><path d="M.794 0H.64v.285C.64.358.613.394.56.394A.074.074 0 0 1 .498.361.134.134 0 0 1 .474.28V0H.32v.288C.32.358.294.394.24.394A.076.076 0 0 1 .178.363.139.139 0 0 1 .154.278V0H0v.5h.154V.422h.002a.183.183 0 0 0 .067.065c.03.017.06.025.095.025.07 0 .119-.03.145-.093A.185.185 0 0 0 .63.512C.74.512.794.445.794.311V0z"/></symbol><symbol id="ap"><path d="M.781.5.637 0H.475L.401.293a.298.298 0 0 0-.008.064H.39A.383.383 0 0 0 .38.295L.301 0h-.16L0 .5h.157l.07-.326A.424.424 0 0 0 .232.118h.003a.308.308 0 0 0 .01.058L.33.5h.147L.555.174A.519.519 0 0 0 .562.117h.003a.564.564 0 0 0 .008.057L.638.5h.143z"/></symbol><use xlink:href="#ah" transform="matrix(14.04 0 0 -14.04 72.14 113.06)" fill="#3b5fb5"/><use xlink:href="#ad" transform="matrix(14.04 0 0 -14.04 79.395 113.231)" fill="#3b5fb5"/><use xlink:href="#ai" transform="matrix(14.04 0 0 -14.04 87.47 113.231)" fill="#3b5fb5"/><use xlink:href="#t" transform="matrix(14.04 0 0 -14.04 96.216 113.06)" fill="#3b5fb5"/><use xlink:href="#q" transform="matrix(14.04 0 0 -14.04 99.786 113.231)" fill="#3b5fb5"/><use xlink:href="#s" transform="matrix(14.04 0 0 -14.04 106.831 113.06)" fill="#3b5fb5"/><use xlink:href="#aj" transform="matrix(14.04 0 0 -14.04 111.354 113.231)" fill="#3b5fb5"/><use xlink:href="#ak" transform="matrix(14.04 0 0 -14.04 119.256 113.231)" fill="#3b5fb5"/><use xlink:href="#s" transform="matrix(14.04 0 0 -14.04 122.43 113.06)" fill="#3b5fb5"/><use xlink:href="#al" transform="matrix(14.04 0 0 -14.04 127.43 113.06)" fill="#3b5fb5"/><use xlink:href="#g" transform="matrix(14.04 0 0 -14.04 134 113.231)" fill="#3b5fb5"/><use xlink:href="#am" transform="matrix(14.04 0 0 -14.04 140.346 113.06)" fill="#3b5fb5"/><use xlink:href="#s" transform="matrix(14.04 0 0 -14.04 148.348 113.06)" fill="#3b5fb5"/><use xlink:href="#an" transform="matrix(14.04 0 0 -14.04 153.347 113.06)" fill="#3b5fb5"/><use xlink:href="#h" transform="matrix(14.04 0 0 -14.04 160.435 113.06)" fill="#3b5fb5"/><use xlink:href="#ad" transform="matrix(14.04 0 0 -14.04 165.502 113.231)" fill="#3b5fb5"/><use xlink:href="#ao" transform="matrix(14.04 0 0 -14.04 173.605 113.06)" fill="#3b5fb5"/><use xlink:href="#q" transform="matrix(14.04 0 0 -14.04 186.047 113.231)" fill="#3b5fb5"/><use xlink:href="#ap" transform="matrix(14.04 0 0 -14.04 193.203 113.06)" fill="#3b5fb5"/><use xlink:href="#i" transform="matrix(14.04 0 0 -14.04 204.622 113.231)" fill="#3b5fb5"/><use xlink:href="#h" transform="matrix(14.04 0 0 -14.04 213.661 113.06)" fill="#3b5fb5"/><use xlink:href="#ae" transform="matrix(14.04 0 0 -14.04 219.291 113.06)" fill="#3b5fb5"/><use xlink:href="#s" transform="matrix(14.04 0 0 -14.04 226.185 113.06)" fill="#3b5fb5"/></g></g><g data-name="Span"><clipPath id="aq"><path transform="matrix(1 0 0 -1 0 841.92)" d="M0 0h595.2v841.92H0z" fill-rule="evenodd"/></clipPath><g clip-path="url(#aq)"><symbol id="ar"><path d="M.5 0H0v.108h.5V0z"/></symbol><use xlink:href="#ar" transform="matrix(14.04 0 0 -14.04 230.11 110.071)" fill="#3b5fb5"/></g></g><g data-name="Span"><clipPath id="as"><path transform="matrix(1 0 0 -1 0 841.92)" d="M0 0h595.2v841.92H0z" fill-rule="evenodd"/></clipPath><g clip-path="url(#as)"><symbol id="at"><path d="M.54.5.352 0H.177L0 .5h.165L.252.192A.45.45 0 0 0 .269.103h.002a.504.504 0 0 0 .018.086L.378.5h.161z"/></symbol><use xlink:href="#o" transform="matrix(14.04 0 0 -14.04 241.54 113.231)" fill="#3b5fb5"/><use xlink:href="#k" transform="matrix(14.04 0 0 -14.04 249.617 113.231)" fill="#3b5fb5"/><use xlink:href="#ao" transform="matrix(14.04 0 0 -14.04 258.22 113.06)" fill="#3b5fb5"/><use xlink:href="#ao" transform="matrix(14.04 0 0 -14.04 271.081 113.06)" fill="#3b5fb5"/><use xlink:href="#ad" transform="matrix(14.04 0 0 -14.04 283.42 113.231)" fill="#3b5fb5"/><use xlink:href="#h" transform="matrix(14.04 0 0 -14.04 291.495 113.06)" fill="#3b5fb5"/><use xlink:href="#u" transform="matrix(14.04 0 0 -14.04 296.776 116.357)" fill="#3b5fb5"/><use xlink:href="#s" transform="matrix(14.04 0 0 -14.04 304.357 113.06)" fill="#3b5fb5"/><use xlink:href="#i" transform="matrix(14.04 0 0 -14.04 308.57 113.231)" fill="#3b5fb5"/><use xlink:href="#r" transform="matrix(14.04 0 0 -14.04 316.782 113.06)" fill="#3b5fb5"/><use xlink:href="#s" transform="matrix(14.04 0 0 -14.04 321.85 113.06)" fill="#3b5fb5"/><use xlink:href="#al" transform="matrix(14.04 0 0 -14.04 326.724 113.06)" fill="#3b5fb5"/><use xlink:href="#at" transform="matrix(14.04 0 0 -14.04 333.096 113.06)" fill="#3b5fb5"/><use xlink:href="#m" transform="matrix(14.04 0 0 -14.04 341.355 113.06)" fill="#3b5fb5"/><use xlink:href="#j" transform="matrix(14.04 0 0 -14.04 345.075 113.231)" fill="#3b5fb5"/><use xlink:href="#q" transform="matrix(14.04 0 0 -14.04 353.681 113.231)" fill="#3b5fb5"/><use xlink:href="#f" transform="matrix(14.04 0 0 -14.04 361.695 113.06)" fill="#3b5fb5"/><use xlink:href="#l" transform="matrix(14.04 0 0 -14.04 369.771 113.231)" fill="#3b5fb5"/><use xlink:href="#q" transform="matrix(14.04 0 0 -14.04 376.51 113.231)" fill="#3b5fb5"/><use xlink:href="#s" transform="matrix(14.04 0 0 -14.04 383.542 113.06)" fill="#3b5fb5"/><use xlink:href="#g" transform="matrix(14.04 0 0 -14.04 388.007 113.231)" fill="#3b5fb5"/><use xlink:href="#i" transform="matrix(14.04 0 0 -14.04 393.723 113.231)" fill="#3b5fb5"/><use xlink:href="#s" transform="matrix(14.04 0 0 -14.04 401.85 113.06)" fill="#3b5fb5"/></g></g><g data-name="Span"><clipPath id="au"><path transform="matrix(1 0 0 -1 0 841.92)" d="M0 0h595.2v841.92H0z" fill-rule="evenodd"/></clipPath><g clip-path="url(#au)" fill="#3b5fb5"><use xlink:href="#am" transform="matrix(14.04 0 0 -14.04 73.052 129.86)"/><use xlink:href="#q" transform="matrix(14.04 0 0 -14.04 81.183 130.031)"/><use xlink:href="#l" transform="matrix(14.04 0 0 -14.04 88.778 130.031)"/><use xlink:href="#i" transform="matrix(14.04 0 0 -14.04 95.461 130.031)"/><use xlink:href="#ao" transform="matrix(14.04 0 0 -14.04 104.5 129.86)"/><use xlink:href="#ao" transform="matrix(14.04 0 0 -14.04 117.36 129.86)"/><use xlink:href="#q" transform="matrix(14.04 0 0 -14.04 129.803 130.031)"/><use xlink:href="#f" transform="matrix(14.04 0 0 -14.04 137.747 129.86)"/><use xlink:href="#j" transform="matrix(14.04 0 0 -14.04 145.823 130.031)"/><use xlink:href="#ad" transform="matrix(14.04 0 0 -14.04 154.41 130.031)"/><use xlink:href="#g" transform="matrix(14.04 0 0 -14.04 161.854 130.031)"/><use xlink:href="#m" transform="matrix(14.04 0 0 -14.04 167.796 129.86)"/><use xlink:href="#i" transform="matrix(14.04 0 0 -14.04 171.516 130.031)"/><use xlink:href="#f" transform="matrix(14.04 0 0 -14.04 180.569 129.86)"/></g></g><path stroke-width=".48" stroke-miterlimit="8" fill="none" stroke="#3b5fb5" d="M70.92 135.6h453.95" data-name="P"/><g data-name="Artifact"><path d="M70.875 356.85h453.5v-26.846h-453.5z" fill="#3b5fb5" fill-rule="evenodd"/><path d="M70.875 424.05h134.84v-67.2H70.875z" fill="#c5e7f2" fill-opacity=".502" fill-rule="evenodd"/><path d="M205.71 424.05H336v-67.2H205.71zM336 424.05h104.84v-67.2H336z" fill="#c5e7f2" fill-opacity=".502" fill-rule="evenodd"/><path d="M440.84 424.05h83.533v-67.2H440.84z" fill="#c5e7f2" fill-opacity=".502" fill-rule="evenodd"/><path stroke-width=".75" stroke-linejoin="round" fill="none" stroke="#3b5fb5" d="M205.71 356.47v303.36M336 356.47v268.94M440.84 356.47v268.94M70.5 356.85h454.25M70.5 424.05h454.25M70.5 450.89h454.25M70.5 482.09h454.25M70.5 513.29h454.25M70.5 544.49h454.25M70.5 571.34h454.25M70.5 598.18h454.25M70.5 625.03h454.25M70.875 329.63v330.2M524.38 329.63v330.2M70.5 330h454.25M70.5 659.46h454.25"/></g><g data-name="Span"><clipPath id="av"><path transform="matrix(1 0 0 -1 0 841.92)" d="M0 0h595.2v841.92H0z" fill-rule="evenodd"/></clipPath><g clip-path="url(#av)"><symbol id="aw"><path d="M.546.037A.462.462 0 0 0 .346 0a.337.337 0 0 0-.254.095A.346.346 0 0 0 0 .347.37.37 0 0 0 .104.62c.069.07.159.104.269.104A.504.504 0 0 0 .546.698V.546a.306.306 0 0 1-.16.042.212.212 0 0 1-.16-.062.23.23 0 0 1-.06-.168c0-.067.02-.121.057-.162.038-.04.09-.06.154-.06.061 0 .118.015.169.045V.037z"/></symbol><use xlink:href="#aw" transform="matrix(9.96 0 0 -9.96 280.73 347.302)" fill="#fff"/><use xlink:href="#h" transform="matrix(9.96 0 0 -9.96 287.232 347.18)" fill="#fff"/><use xlink:href="#m" transform="matrix(9.96 0 0 -9.96 291.089 347.18)" fill="#fff"/><use xlink:href="#g" transform="matrix(9.96 0 0 -9.96 293.637 347.302)" fill="#fff"/><use xlink:href="#q" transform="matrix(9.96 0 0 -9.96 297.632 347.302)" fill="#fff"/><use xlink:href="#h" transform="matrix(9.96 0 0 -9.96 303.317 347.18)" fill="#fff"/><use xlink:href="#m" transform="matrix(9.96 0 0 -9.96 307.174 347.18)" fill="#fff"/><use xlink:href="#ad" transform="matrix(9.96 0 0 -9.96 309.79 347.302)" fill="#fff"/></g></g><g data-name="Span"><clipPath id="ax"><path transform="matrix(1 0 0 -1 0 841.92)" d="M0 0h595.2v841.92H0z" fill-rule="evenodd"/></clipPath><g clip-path="url(#ax)" fill="#3b5fb5"><use xlink:href="#aw" transform="matrix(9.96 0 0 -9.96 117.98 394.342)"/><use xlink:href="#h" transform="matrix(9.96 0 0 -9.96 124.482 394.22)"/><use xlink:href="#m" transform="matrix(9.96 0 0 -9.96 128.339 394.22)"/><use xlink:href="#g" transform="matrix(9.96 0 0 -9.96 130.887 394.342)"/><use xlink:href="#q" transform="matrix(9.96 0 0 -9.96 134.882 394.342)"/><use xlink:href="#h" transform="matrix(9.96 0 0 -9.96 140.567 394.22)"/><use xlink:href="#m" transform="matrix(9.96 0 0 -9.96 144.424 394.22)"/><use xlink:href="#i" transform="matrix(9.96 0 0 -9.96 147.113 394.342)"/><use xlink:href="#f" transform="matrix(9.96 0 0 -9.96 153.515 394.22)"/><use xlink:href="#s" transform="matrix(9.96 0 0 -9.96 158.894 394.22)"/></g></g><g data-name="Span"><clipPath id="ay"><path transform="matrix(1 0 0 -1 0 841.92)" d="M0 0h595.2v841.92H0z" fill-rule="evenodd"/></clipPath><g clip-path="url(#ay)" fill="#3b5fb5"><use xlink:href="#aw" transform="matrix(9.96 0 0 -9.96 230.02 382.342)"/><use xlink:href="#h" transform="matrix(9.96 0 0 -9.96 236.522 382.22)"/><use xlink:href="#m" transform="matrix(9.96 0 0 -9.96 240.379 382.22)"/><use xlink:href="#g" transform="matrix(9.96 0 0 -9.96 242.927 382.342)"/><use xlink:href="#q" transform="matrix(9.96 0 0 -9.96 246.922 382.342)"/><use xlink:href="#h" transform="matrix(9.96 0 0 -9.96 252.607 382.22)"/><use xlink:href="#m" transform="matrix(9.96 0 0 -9.96 256.464 382.22)"/><use xlink:href="#ad" transform="matrix(9.96 0 0 -9.96 259.08 382.342)"/><use xlink:href="#s" transform="matrix(9.96 0 0 -9.96 264.191 382.22)"/><use xlink:href="#v" transform="matrix(9.96 0 0 -9.96 267.29 384.51)"/><use xlink:href="#k" transform="matrix(9.96 0 0 -9.96 273.645 382.342)"/><use xlink:href="#q" transform="matrix(9.96 0 0 -9.96 279.452 382.342)"/><use xlink:href="#w" transform="matrix(9.96 0 0 -9.96 284.81 382.342)"/><use xlink:href="#g" transform="matrix(9.96 0 0 -9.96 289.102 382.342)"/><use xlink:href="#m" transform="matrix(9.96 0 0 -9.96 293.287 382.22)"/><use xlink:href="#i" transform="matrix(9.96 0 0 -9.96 295.965 382.342)"/><use xlink:href="#f" transform="matrix(9.96 0 0 -9.96 302.368 382.22)"/><use xlink:href="#w" transform="matrix(9.96 0 0 -9.96 308.067 382.342)"/><use xlink:href="#s" transform="matrix(9.96 0 0 -9.96 312.149 382.22)"/></g></g><g data-name="Span"><clipPath id="az"><path transform="matrix(1 0 0 -1 0 841.92)" d="M0 0h595.2v841.92H0z" fill-rule="evenodd"/></clipPath><g clip-path="url(#az)"><symbol id="aA"><path d="M.987.7.802 0H.627L.511.45A.375.375 0 0 0 .5.527H.498A.478.478 0 0 0 .485.449L.366 0H.184L0 .7h.172L.271.234a.557.557 0 0 0 .01-.08h.002a.388.388 0 0 0 .014.082L.424.7h.17L.707.23A.576.576 0 0 0 .719.155h.002a.504.504 0 0 0 .01.078L.828.7h.16z"/></symbol><symbol id="aB"><path d="M.619.06A.504.504 0 0 0 .364 0a.37.37 0 0 0-.267.093A.341.341 0 0 0 0 .351c0 .11.035.2.106.27.071.068.166.103.284.103.074 0 .14-.01.196-.03V.544a.39.39 0 0 1-.198.047.213.213 0 0 1-.16-.064.234.234 0 0 1-.062-.17c0-.072.018-.127.055-.167a.196.196 0 0 1 .15-.059c.038 0 .068.006.09.016v.137H.32v.126h.298V.06z"/></symbol><symbol id="aC"><path d="M.479.816.138 0H0l.34.816h.139z"/></symbol><use xlink:href="#ad" transform="matrix(9.96 0 0 -9.96 225.017 394.342)" fill="#3b5fb5"/><use xlink:href="#f" transform="matrix(9.96 0 0 -9.96 230.775 394.22)" fill="#3b5fb5"/><use xlink:href="#j" transform="matrix(9.96 0 0 -9.96 236.504 394.342)" fill="#3b5fb5"/><use xlink:href="#s" transform="matrix(9.96 0 0 -9.96 242.25 394.22)" fill="#3b5fb5"/><use xlink:href="#aA" transform="matrix(9.96 0 0 -9.96 245.206 394.22)" fill="#3b5fb5"/><use xlink:href="#aB" transform="matrix(9.96 0 0 -9.96 255.438 394.342)" fill="#3b5fb5"/><use xlink:href="#aC" transform="matrix(9.96 0 0 -9.96 261.921 395.377)" fill="#3b5fb5"/><use xlink:href="#o" transform="matrix(9.96 0 0 -9.96 267.02 394.342)" fill="#3b5fb5"/><use xlink:href="#q" transform="matrix(9.96 0 0 -9.96 272.58 394.342)" fill="#3b5fb5"/><use xlink:href="#l" transform="matrix(9.96 0 0 -9.96 277.968 394.342)" fill="#3b5fb5"/><use xlink:href="#h" transform="matrix(9.96 0 0 -9.96 283.065 394.22)" fill="#3b5fb5"/><use xlink:href="#q" transform="matrix(9.96 0 0 -9.96 286.733 394.342)" fill="#3b5fb5"/><use xlink:href="#g" transform="matrix(9.96 0 0 -9.96 291.97 394.342)" fill="#3b5fb5"/><use xlink:href="#ad" transform="matrix(9.96 0 0 -9.96 295.923 394.342)" fill="#3b5fb5"/><use xlink:href="#h" transform="matrix(9.96 0 0 -9.96 301.65 394.22)" fill="#3b5fb5"/><use xlink:href="#m" transform="matrix(9.96 0 0 -9.96 305.508 394.22)" fill="#3b5fb5"/><use xlink:href="#ad" transform="matrix(9.96 0 0 -9.96 308.124 394.342)" fill="#3b5fb5"/><use xlink:href="#g" transform="matrix(9.96 0 0 -9.96 313.434 394.342)" fill="#3b5fb5"/><use xlink:href="#s" transform="matrix(9.96 0 0 -9.96 317.08 394.22)" fill="#3b5fb5"/></g></g><g data-name="Span"><clipPath id="aD"><path transform="matrix(1 0 0 -1 0 841.92)" d="M0 0h595.2v841.92H0z" fill-rule="evenodd"/></clipPath><g clip-path="url(#aD)"><symbol id="aE"><path d="M.208.814a.09.09 0 0 0-.064.023.075.075 0 0 0-.025.057c0 .023.008.042.025.057a.093.093 0 0 0 .064.022A.092.092 0 0 0 .272.95.072.072 0 0 0 .297.894.074.074 0 0 0 .272.836.09.09 0 0 0 .208.814m.076-.57A.272.272 0 0 0 .23.066C.194.022.142 0 .074 0A.216.216 0 0 0 0 .015v.12A.12.12 0 0 1 .057.119C.106.118.13.156.13.232v.503h.154V.244z"/></symbol><use xlink:href="#aE" transform="matrix(9.96 0 0 -9.96 242.573 408.56)" fill="#3b5fb5"/><use xlink:href="#k" transform="matrix(9.96 0 0 -9.96 246.657 406.342)" fill="#3b5fb5"/><use xlink:href="#j" transform="matrix(9.96 0 0 -9.96 252.464 406.342)" fill="#3b5fb5"/><use xlink:href="#af" transform="matrix(9.96 0 0 -9.96 258.56 408.56)" fill="#3b5fb5"/><use xlink:href="#q" transform="matrix(9.96 0 0 -9.96 264.675 406.342)" fill="#3b5fb5"/><use xlink:href="#ao" transform="matrix(9.96 0 0 -9.96 270.36 406.22)" fill="#3b5fb5"/><use xlink:href="#q" transform="matrix(9.96 0 0 -9.96 279.187 406.342)" fill="#3b5fb5"/><use xlink:href="#f" transform="matrix(9.96 0 0 -9.96 284.872 406.22)" fill="#3b5fb5"/><use xlink:href="#g" transform="matrix(9.96 0 0 -9.96 290.45 406.342)" fill="#3b5fb5"/><use xlink:href="#w" transform="matrix(9.96 0 0 -9.96 294.407 406.342)" fill="#3b5fb5"/></g></g><g data-name="Span"><clipPath id="aF"><path transform="matrix(1 0 0 -1 0 841.92)" d="M0 0h595.2v841.92H0z" fill-rule="evenodd"/></clipPath><g clip-path="url(#aF)" fill="#3b5fb5"><use xlink:href="#o" transform="matrix(9.96 0 0 -9.96 360.207 388.342)"/><use xlink:href="#k" transform="matrix(9.96 0 0 -9.96 365.956 388.342)"/><use xlink:href="#ao" transform="matrix(9.96 0 0 -9.96 372.06 388.22)"/><use xlink:href="#ao" transform="matrix(9.96 0 0 -9.96 381.183 388.22)"/><use xlink:href="#ad" transform="matrix(9.96 0 0 -9.96 389.907 388.342)"/><use xlink:href="#h" transform="matrix(9.96 0 0 -9.96 395.665 388.22)"/><use xlink:href="#u" transform="matrix(9.96 0 0 -9.96 398.963 390.56)"/><use xlink:href="#s" transform="matrix(9.96 0 0 -9.96 404.37 388.22)"/><use xlink:href="#i" transform="matrix(9.96 0 0 -9.96 407.47 388.342)"/><use xlink:href="#r" transform="matrix(9.96 0 0 -9.96 413.464 388.22)"/><use xlink:href="#s" transform="matrix(9.96 0 0 -9.96 417.06 388.22)"/></g></g><g data-name="Span"><clipPath id="aG"><path transform="matrix(1 0 0 -1 0 841.92)" d="M0 0h595.2v841.92H0z" fill-rule="evenodd"/></clipPath><g clip-path="url(#aG)" fill="#3b5fb5"><use xlink:href="#q" transform="matrix(9.96 0 0 -9.96 368.15 400.342)"/><use xlink:href="#at" transform="matrix(9.96 0 0 -9.96 373.208 400.22)"/><use xlink:href="#m" transform="matrix(9.96 0 0 -9.96 379.127 400.22)"/><use xlink:href="#j" transform="matrix(9.96 0 0 -9.96 381.815 400.342)"/><use xlink:href="#q" transform="matrix(9.96 0 0 -9.96 387.93 400.342)"/><use xlink:href="#f" transform="matrix(9.96 0 0 -9.96 393.616 400.22)"/><use xlink:href="#l" transform="matrix(9.96 0 0 -9.96 399.345 400.342)"/><use xlink:href="#q" transform="matrix(9.96 0 0 -9.96 404.126 400.342)"/></g></g><g data-name="Span"><clipPath id="aH"><path transform="matrix(1 0 0 -1 0 841.92)" d="M0 0h595.2v841.92H0z" fill-rule="evenodd"/></clipPath><g clip-path="url(#aH)"><symbol id="aI"><path d="M.69 0H.52l-.05.156H.22L.17 0H0l.255.7h.187L.69 0M.433.277.358.512a.307.307 0 0 0-.012.063H.342A.267.267 0 0 0 .33.515L.254.276h.18z"/></symbol><use xlink:href="#aI" transform="matrix(9.96 0 0 -9.96 458.159 388.22)" fill="#3b5fb5"/><use xlink:href="#j" transform="matrix(9.96 0 0 -9.96 465.422 388.342)" fill="#3b5fb5"/><use xlink:href="#j" transform="matrix(9.96 0 0 -9.96 471.538 388.342)" fill="#3b5fb5"/><use xlink:href="#m" transform="matrix(9.96 0 0 -9.96 477.843 388.22)" fill="#3b5fb5"/><use xlink:href="#g" transform="matrix(9.96 0 0 -9.96 480.37 388.342)" fill="#3b5fb5"/><use xlink:href="#m" transform="matrix(9.96 0 0 -9.96 484.556 388.22)" fill="#3b5fb5"/><use xlink:href="#i" transform="matrix(9.96 0 0 -9.96 487.235 388.342)" fill="#3b5fb5"/><use xlink:href="#f" transform="matrix(9.96 0 0 -9.96 493.637 388.22)" fill="#3b5fb5"/><use xlink:href="#ad" transform="matrix(9.96 0 0 -9.96 499.293 388.342)" fill="#3b5fb5"/><use xlink:href="#t" transform="matrix(9.96 0 0 -9.96 505.021 388.22)" fill="#3b5fb5"/><use xlink:href="#s" transform="matrix(9.96 0 0 -9.96 507.263 388.22)" fill="#3b5fb5"/></g></g><g data-name="Span"><clipPath id="aJ"><path transform="matrix(1 0 0 -1 0 841.92)" d="M0 0h595.2v841.92H0z" fill-rule="evenodd"/></clipPath><g clip-path="url(#aJ)" fill="#3b5fb5"><use xlink:href="#m" transform="matrix(9.96 0 0 -9.96 455.17 400.22)"/><use xlink:href="#f" transform="matrix(9.96 0 0 -9.96 458.145 400.22)"/><use xlink:href="#r" transform="matrix(9.96 0 0 -9.96 463.743 400.22)"/><use xlink:href="#i" transform="matrix(9.96 0 0 -9.96 467.69 400.342)"/><use xlink:href="#h" transform="matrix(9.96 0 0 -9.96 474.091 400.22)"/><use xlink:href="#ao" transform="matrix(9.96 0 0 -9.96 478.055 400.22)"/><use xlink:href="#ad" transform="matrix(9.96 0 0 -9.96 486.81 400.342)"/><use xlink:href="#g" transform="matrix(9.96 0 0 -9.96 492.11 400.342)"/><use xlink:href="#m" transform="matrix(9.96 0 0 -9.96 496.295 400.22)"/><use xlink:href="#i" transform="matrix(9.96 0 0 -9.96 498.973 400.342)"/><use xlink:href="#f" transform="matrix(9.96 0 0 -9.96 505.376 400.22)"/></g></g><g data-name="Span"><clipPath id="aK"><path transform="matrix(1 0 0 -1 0 841.92)" d="M0 0h595.2v841.92H0z" fill-rule="evenodd"/></clipPath><g clip-path="url(#aK)"><symbol id="aL"><path d="M.242 0h-.08v.605A.436.436 0 0 0 .048.538.331.331 0 0 0 0 .522v.081A.478.478 0 0 1 .114.65a.769.769 0 0 1 .098.066h.03V0z"/></symbol><symbol id="aM"><path d="M.054 0a.053.053 0 0 0-.038.016A.053.053 0 0 0 0 .055C0 .07.005.083.016.093.026.104.039.11.054.11a.052.052 0 0 0 .04-.017.053.053 0 0 0 .015-.038.053.053 0 0 0-.016-.039A.053.053 0 0 0 .054 0z"/></symbol><symbol id="aN"><path d="M.71 0H.63v.287C.63.342.62.382.604.407.587.432.558.444.518.444A.107.107 0 0 1 .431.397.18.18 0 0 1 .395.285V0h-.08v.297C.315.395.277.444.2.444A.105.105 0 0 1 .114.4.182.182 0 0 1 .08.285V0H0v.5h.08V.42h.002a.17.17 0 0 0 .155.092A.144.144 0 0 0 .38.408a.178.178 0 0 0 .166.104C.655.512.71.444.71.308V0z"/></symbol><use xlink:href="#aL" transform="matrix(9.96 0 0 -9.96 86.189 441.26)"/><use xlink:href="#aM" transform="matrix(9.96 0 0 -9.96 91.013 441.367)"/><use xlink:href="#G" transform="matrix(9.96 0 0 -9.96 92.63 441.26)"/><use xlink:href="#O" transform="matrix(9.96 0 0 -9.96 96.183 441.26)"/><use xlink:href="#J" transform="matrix(9.96 0 0 -9.96 101.594 441.26)"/><use xlink:href="#L" transform="matrix(9.96 0 0 -9.96 104.72 441.377)"/><use xlink:href="#Z" transform="matrix(9.96 0 0 -9.96 110.947 441.377)"/><use xlink:href="#Q" transform="matrix(9.96 0 0 -9.96 116.803 441.26)"/><use xlink:href="#C" transform="matrix(9.96 0 0 -9.96 118.873 441.377)"/><use xlink:href="#aN" transform="matrix(9.96 0 0 -9.96 124.383 441.26)"/></g></g><g data-name="Span"><clipPath id="aO"><path transform="matrix(1 0 0 -1 0 841.92)" d="M0 0h595.2v841.92H0z" fill-rule="evenodd"/></clipPath><g clip-path="url(#aO)"><symbol id="aP"><path d="M.324.517c0 .021-.004.04-.01.056a.108.108 0 0 1-.068.063.16.16 0 0 1-.097.002.23.23 0 0 1-.085-.045A.306.306 0 0 1 .027.56v.086a.237.237 0 0 0 .178.067.241.241 0 0 0 .08-.013A.166.166 0 0 0 .39.604a.197.197 0 0 0 .015-.08.27.27 0 0 0-.01-.076.223.223 0 0 0-.028-.063.299.299 0 0 0-.049-.057A.688.688 0 0 0 .25.272a2.704 2.704 0 0 1-.082-.06.368.368 0 0 1-.05-.047A.138.138 0 0 1 .09.122a.154.154 0 0 1-.008-.05h.35V0H0v.035c0 .03.003.056.01.079a.205.205 0 0 0 .032.065c.015.02.034.04.059.061.024.02.054.044.089.07a.545.545 0 0 1 .063.052.267.267 0 0 1 .042.05c.01.016.018.033.022.05a.213.213 0 0 1 .007.055z"/></symbol><symbol id="aQ"><path d="M0 0v.7h.2C.26.7.307.685.342.656A.144.144 0 0 0 .396.54.17.17 0 0 0 .364.437.174.174 0 0 0 .275.374V.372A.178.178 0 0 0 .39.318.164.164 0 0 0 .43.201.183.183 0 0 0 .367.056.24.24 0 0 0 .204 0H0m.082.626V.4h.084c.045 0 .08.01.106.032a.114.114 0 0 1 .039.092C.31.592.266.626.176.626H.082m0-.3V.074h.111c.049 0 .086.012.112.034.027.023.04.054.04.094C.345.285.29.326.176.326H.082z"/></symbol><use xlink:href="#aP" transform="matrix(9.96 0 0 -9.96 85.61 464.28)"/><use xlink:href="#aM" transform="matrix(9.96 0 0 -9.96 91.013 464.387)"/><use xlink:href="#G" transform="matrix(9.96 0 0 -9.96 92.63 464.28)"/><use xlink:href="#aQ" transform="matrix(9.96 0 0 -9.96 96.183 464.28)"/><use xlink:href="#C" transform="matrix(9.96 0 0 -9.96 101.483 464.397)"/><use xlink:href="#H" transform="matrix(9.96 0 0 -9.96 106.983 464.28)"/><use xlink:href="#C" transform="matrix(9.96 0 0 -9.96 112.28 464.397)"/><use xlink:href="#F" transform="matrix(9.96 0 0 -9.96 117.23 464.28)"/><use xlink:href="#E" transform="matrix(9.96 0 0 -9.96 120.79 464.28)"/><use xlink:href="#I" transform="matrix(9.96 0 0 -9.96 122.709 464.387)"/><use xlink:href="#Y" transform="matrix(9.96 0 0 -9.96 126.382 464.397)"/><use xlink:href="#G" transform="matrix(9.96 0 0 -9.96 130.05 464.28)"/><use xlink:href="#R" transform="matrix(9.96 0 0 -9.96 133.475 464.397)"/><use xlink:href="#H" transform="matrix(9.96 0 0 -9.96 138.914 464.28)"/><use xlink:href="#T" transform="matrix(9.96 0 0 -9.96 144.211 464.397)"/><use xlink:href="#G" transform="matrix(9.96 0 0 -9.96 149.61 464.28)"/><use xlink:href="#U" transform="matrix(9.96 0 0 -9.96 153.147 464.28)"/><use xlink:href="#R" transform="matrix(9.96 0 0 -9.96 158.415 464.397)"/><use xlink:href="#J" transform="matrix(9.96 0 0 -9.96 163.854 464.28)"/><use xlink:href="#aN" transform="matrix(9.96 0 0 -9.96 167.32 464.28)"/><use xlink:href="#Y" transform="matrix(9.96 0 0 -9.96 175.544 464.397)"/><use xlink:href="#G" transform="matrix(9.96 0 0 -9.96 179.262 464.28)"/><use xlink:href="#L" transform="matrix(9.96 0 0 -9.96 182.697 464.397)"/><use xlink:href="#F" transform="matrix(9.96 0 0 -9.96 188.354 464.28)"/><use xlink:href="#G" transform="matrix(9.96 0 0 -9.96 191.214 464.28)"/><use xlink:href="#G" transform="matrix(9.96 0 0 -9.96 193.963 464.28)"/><use xlink:href="#G" transform="matrix(9.96 0 0 -9.96 196.712 464.28)"/></g></g><g data-name="Span"><clipPath id="aR"><path transform="matrix(1 0 0 -1 0 841.92)" d="M0 0h595.2v841.92H0z" fill-rule="evenodd"/></clipPath><g clip-path="url(#aR)"><use xlink:href="#I" transform="matrix(9.96 0 0 -9.96 92.25 476.387)"/><use xlink:href="#U" transform="matrix(9.96 0 0 -9.96 96.224 476.28)"/><use xlink:href="#C" transform="matrix(9.96 0 0 -9.96 101.52 476.397)"/><use xlink:href="#G" transform="matrix(9.96 0 0 -9.96 106.203 476.28)"/><use xlink:href="#E" transform="matrix(9.96 0 0 -9.96 109.772 476.28)"/><use xlink:href="#H" transform="matrix(9.96 0 0 -9.96 112.29 476.28)"/><use xlink:href="#I" transform="matrix(9.96 0 0 -9.96 117.328 476.387)"/><use xlink:href="#C" transform="matrix(9.96 0 0 -9.96 120.963 476.397)"/><use xlink:href="#J" transform="matrix(9.96 0 0 -9.96 126.442 476.28)"/><use xlink:href="#K" transform="matrix(9.96 0 0 -9.96 129.17 476.28)"/><use xlink:href="#C" transform="matrix(9.96 0 0 -9.96 134.369 476.397)"/><use xlink:href="#H" transform="matrix(9.96 0 0 -9.96 139.868 476.28)"/><use xlink:href="#I" transform="matrix(9.96 0 0 -9.96 144.908 476.387)"/><use xlink:href="#E" transform="matrix(9.96 0 0 -9.96 148.775 476.28)"/><use xlink:href="#L" transform="matrix(9.96 0 0 -9.96 150.952 476.397)"/><use xlink:href="#H" transform="matrix(9.96 0 0 -9.96 157.13 476.28)"/></g></g><g data-name="Span"><clipPath id="aS"><path transform="matrix(1 0 0 -1 0 841.92)" d="M70.8 260.16h135v168.12h-135z" fill-rule="evenodd"/></clipPath><g clip-path="url(#aS)"><symbol id="aT"><path d="M.405.21A.203.203 0 0 0 .387.124a.19.19 0 0 0-.05-.066.232.232 0 0 0-.078-.043A.315.315 0 0 0 .16 0 .29.29 0 0 0 0 .038v.086A.255.255 0 0 1 .228.078c.02.006.037.015.05.026a.116.116 0 0 1 .034.043.13.13 0 0 1 .011.056C.323.295.258.34.128.34H.07v.068h.055c.115 0 .173.043.173.13 0 .079-.044.118-.132.118a.224.224 0 0 1-.14-.05v.078a.304.304 0 0 0 .24.028.182.182 0 0 0 .06-.034.16.16 0 0 0 .053-.12C.38.464.334.405.24.378V.377A.216.216 0 0 0 .306.36.172.172 0 0 0 .358.325.157.157 0 0 0 .405.21z"/></symbol><symbol id="aU"><path d="M.604.7.344 0h-.09L0 .7h.091L.285.145A.33.33 0 0 0 .3.083h.002c.003.02.008.04.016.063L.515.7h.089z"/></symbol><use xlink:href="#aT" transform="matrix(9.96 0 0 -9.96 85.678 495.602)"/><use xlink:href="#aM" transform="matrix(9.96 0 0 -9.96 91.013 495.587)"/><use xlink:href="#G" transform="matrix(9.96 0 0 -9.96 92.63 495.48)"/><use xlink:href="#aU" transform="matrix(9.96 0 0 -9.96 95.357 495.48)"/><use xlink:href="#R" transform="matrix(9.96 0 0 -9.96 101.942 495.597)"/><use xlink:href="#Q" transform="matrix(9.96 0 0 -9.96 107.381 495.48)"/><use xlink:href="#P" transform="matrix(9.96 0 0 -9.96 109.644 495.597)"/><use xlink:href="#C" transform="matrix(9.96 0 0 -9.96 115.048 495.597)"/><use xlink:href="#Y" transform="matrix(9.96 0 0 -9.96 120.247 495.597)"/><use xlink:href="#G" transform="matrix(9.96 0 0 -9.96 123.964 495.48)"/><use xlink:href="#R" transform="matrix(9.96 0 0 -9.96 127.37 495.597)"/><use xlink:href="#H" transform="matrix(9.96 0 0 -9.96 132.809 495.48)"/><use xlink:href="#T" transform="matrix(9.96 0 0 -9.96 138.106 495.597)"/><use xlink:href="#G" transform="matrix(9.96 0 0 -9.96 143.505 495.48)"/><use xlink:href="#B" transform="matrix(9.96 0 0 -9.96 147.042 497.77)"/><use xlink:href="#J" transform="matrix(9.96 0 0 -9.96 152.928 495.48)"/><use xlink:href="#C" transform="matrix(9.96 0 0 -9.96 156.054 495.597)"/><use xlink:href="#F" transform="matrix(9.96 0 0 -9.96 161.014 495.48)"/><use xlink:href="#C" transform="matrix(9.96 0 0 -9.96 164.34 495.597)"/><use xlink:href="#J" transform="matrix(9.96 0 0 -9.96 169.84 495.48)"/><use xlink:href="#C" transform="matrix(9.96 0 0 -9.96 172.966 495.597)"/><use xlink:href="#H" transform="matrix(9.96 0 0 -9.96 178.475 495.48)"/><use xlink:href="#D" transform="matrix(9.96 0 0 -9.96 183.772 495.597)"/><use xlink:href="#C" transform="matrix(9.96 0 0 -9.96 188.334 495.597)"/><use xlink:href="#Y" transform="matrix(9.96 0 0 -9.96 193.532 495.597)"/><use xlink:href="#G" transform="matrix(9.96 0 0 -9.96 197.25 495.48)"/></g></g><g data-name="Span"><clipPath id="aV"><path transform="matrix(1 0 0 -1 0 841.92)" d="M0 0h595.2v841.92H0z" fill-rule="evenodd"/></clipPath><g clip-path="url(#aV)"><use xlink:href="#L" transform="matrix(9.96 0 0 -9.96 92.507 507.597)"/><use xlink:href="#F" transform="matrix(9.96 0 0 -9.96 98.164 507.48)"/><use xlink:href="#G" transform="matrix(9.96 0 0 -9.96 101.024 507.48)"/><use xlink:href="#I" transform="matrix(9.96 0 0 -9.96 103.982 507.587)"/><use xlink:href="#U" transform="matrix(9.96 0 0 -9.96 107.957 507.48)"/><use xlink:href="#C" transform="matrix(9.96 0 0 -9.96 113.254 507.597)"/><use xlink:href="#G" transform="matrix(9.96 0 0 -9.96 117.936 507.48)"/><use xlink:href="#I" transform="matrix(9.96 0 0 -9.96 121.014 507.587)"/><use xlink:href="#R" transform="matrix(9.96 0 0 -9.96 124.619 507.597)"/><use xlink:href="#J" transform="matrix(9.96 0 0 -9.96 130.008 507.48)"/><use xlink:href="#S" transform="matrix(9.96 0 0 -9.96 133.134 509.824)"/><use xlink:href="#C" transform="matrix(9.96 0 0 -9.96 139 507.597)"/><use xlink:href="#I" transform="matrix(9.96 0 0 -9.96 143.951 507.587)"/><use xlink:href="#G" transform="matrix(9.96 0 0 -9.96 147.079 507.48)"/><use xlink:href="#B" transform="matrix(9.96 0 0 -9.96 150.755 509.77)"/><use xlink:href="#L" transform="matrix(9.96 0 0 -9.96 156.27 507.597)"/><use xlink:href="#B" transform="matrix(9.96 0 0 -9.96 162.508 509.77)"/><use xlink:href="#P" transform="matrix(9.96 0 0 -9.96 168.257 507.597)"/><use xlink:href="#Q" transform="matrix(9.96 0 0 -9.96 174.001 507.48)"/><use xlink:href="#R" transform="matrix(9.96 0 0 -9.96 176.042 507.597)"/><use xlink:href="#I" transform="matrix(9.96 0 0 -9.96 180.883 507.587)"/><use xlink:href="#E" transform="matrix(9.96 0 0 -9.96 184.72 507.48)"/><use xlink:href="#L" transform="matrix(9.96 0 0 -9.96 186.898 507.597)"/><use xlink:href="#H" transform="matrix(9.96 0 0 -9.96 193.095 507.48)"/></g></g><g data-name="Span"><clipPath id="aW"><path transform="matrix(1 0 0 -1 0 841.92)" d="M0 0h595.2v841.92H0z" fill-rule="evenodd"/></clipPath><g clip-path="url(#aW)"><symbol id="aX"><path d="M.408.7V.238h.09V.165h-.09V0H.33v.165H0v.069a2.845 2.845 0 0 1 .182.23c.029.04.055.08.08.12.024.04.044.08.06.116h.086M.09.238h.24V.58A2.374 2.374 0 0 0 .09.238z"/></symbol><symbol id="aY"><path d="M.623 0h-.09L.457.196H.161L.091 0H0l.269.7h.085L.623 0M.431.27l-.11.298a.286.286 0 0 0-.01.047H.309A.262.262 0 0 0 .297.568L.188.27h.243z"/></symbol><use xlink:href="#aX" transform="matrix(9.96 0 0 -9.96 85.148 526.68)"/><use xlink:href="#aM" transform="matrix(9.96 0 0 -9.96 91.013 526.787)"/><use xlink:href="#G" transform="matrix(9.96 0 0 -9.96 92.63 526.68)"/><use xlink:href="#aY" transform="matrix(9.96 0 0 -9.96 95.376 526.68)"/><use xlink:href="#D" transform="matrix(9.96 0 0 -9.96 102.21 526.797)"/><use xlink:href="#D" transform="matrix(9.96 0 0 -9.96 106.772 526.797)"/><use xlink:href="#C" transform="matrix(9.96 0 0 -9.96 111.333 526.797)"/><use xlink:href="#B" transform="matrix(9.96 0 0 -9.96 116.833 528.97)"/><use xlink:href="#I" transform="matrix(9.96 0 0 -9.96 122.091 526.787)"/><use xlink:href="#R" transform="matrix(9.96 0 0 -9.96 125.696 526.797)"/><use xlink:href="#Z" transform="matrix(9.96 0 0 -9.96 131.136 526.797)"/><use xlink:href="#E" transform="matrix(9.96 0 0 -9.96 136.885 526.68)"/><use xlink:href="#Q" transform="matrix(9.96 0 0 -9.96 139.402 526.68)"/><use xlink:href="#E" transform="matrix(9.96 0 0 -9.96 141.706 526.68)"/><use xlink:href="#I" transform="matrix(9.96 0 0 -9.96 143.595 526.787)"/><use xlink:href="#aa" transform="matrix(9.96 0 0 -9.96 146.83 529.024)"/><use xlink:href="#G" transform="matrix(9.96 0 0 -9.96 151.543 526.68)"/><use xlink:href="#I" transform="matrix(9.96 0 0 -9.96 154.86 526.787)"/><use xlink:href="#L" transform="matrix(9.96 0 0 -9.96 158.494 526.797)"/><use xlink:href="#G" transform="matrix(9.96 0 0 -9.96 163.864 526.68)"/></g></g><g data-name="Span"><clipPath id="aZ"><path transform="matrix(1 0 0 -1 0 841.92)" d="M0 0h595.2v841.92H0z" fill-rule="evenodd"/></clipPath><g clip-path="url(#aZ)"><symbol id="ba"><path d="M.415 0H.303L.082.24H.08V0H0v.74h.08V.271h.002L.292.5h.105L.165.259.415 0z"/></symbol><use xlink:href="#Y" transform="matrix(9.96 0 0 -9.96 92.546 538.817)"/><use xlink:href="#I" transform="matrix(9.96 0 0 -9.96 96.472 538.807)"/><use xlink:href="#R" transform="matrix(9.96 0 0 -9.96 100.037 538.817)"/><use xlink:href="#ba" transform="matrix(9.96 0 0 -9.96 105.477 538.7)"/><use xlink:href="#C" transform="matrix(9.96 0 0 -9.96 110.027 538.817)"/><use xlink:href="#U" transform="matrix(9.96 0 0 -9.96 115.526 538.7)"/><use xlink:href="#L" transform="matrix(9.96 0 0 -9.96 120.823 538.817)"/><use xlink:href="#Q" transform="matrix(9.96 0 0 -9.96 127.04 538.7)"/><use xlink:href="#T" transform="matrix(9.96 0 0 -9.96 129.11 538.817)"/><use xlink:href="#C" transform="matrix(9.96 0 0 -9.96 134.976 538.817)"/><use xlink:href="#J" transform="matrix(9.96 0 0 -9.96 140.476 538.7)"/><use xlink:href="#Y" transform="matrix(9.96 0 0 -9.96 143.64 538.817)"/></g></g><g data-name="Span"><clipPath id="bb"><path transform="matrix(1 0 0 -1 0 841.92)" d="M0 0h595.2v841.92H0z" fill-rule="evenodd"/></clipPath><g clip-path="url(#bb)"><symbol id="bc"><path d="M.393.226A.236.236 0 0 0 .375.133a.201.201 0 0 0-.05-.071.222.222 0 0 0-.078-.046A.306.306 0 0 0 .145 0 .282.282 0 0 0 0 .03v.084A.267.267 0 0 1 .146.068c.025 0 .048.004.068.012.02.007.038.017.053.03A.16.16 0 0 1 .31.22.132.132 0 0 1 .265.33C.235.354.19.368.132.368A.955.955 0 0 1 .013.36l.024.351h.324V.64H.106L.092.435a.962.962 0 0 0 .065.002c.037 0 .07-.005.1-.015A.206.206 0 0 0 .33.38.17.17 0 0 0 .377.314.229.229 0 0 0 .393.226z"/></symbol><symbol id="bd"><path d="M.502 0H.404L.287.196a.407.407 0 0 1-.031.047.17.17 0 0 1-.031.031.1.1 0 0 1-.035.018.133.133 0 0 1-.04.006H.081V0H0v.7h.209A.29.29 0 0 0 .293.688.184.184 0 0 0 .361.654.16.16 0 0 0 .406.595.192.192 0 0 0 .422.514.195.195 0 0 0 .41.446.188.188 0 0 0 .33.351.25.25 0 0 0 .267.325V.323A.152.152 0 0 0 .322.281 1.001 1.001 0 0 0 .37.21L.502 0m-.42.626V.372h.111c.02 0 .04.003.057.01A.124.124 0 0 1 .325.45c.007.016.01.035.01.056A.109.109 0 0 1 .3.594C.275.615.24.626.194.626H.082z"/></symbol><use xlink:href="#bc" transform="matrix(9.96 0 0 -9.96 85.878 561.842)"/><use xlink:href="#aM" transform="matrix(9.96 0 0 -9.96 91.013 561.827)"/><use xlink:href="#G" transform="matrix(9.96 0 0 -9.96 92.63 561.72)"/><use xlink:href="#bd" transform="matrix(9.96 0 0 -9.96 96.183 561.72)"/><use xlink:href="#C" transform="matrix(9.96 0 0 -9.96 101.722 561.837)"/><use xlink:href="#Y" transform="matrix(9.96 0 0 -9.96 106.92 561.837)"/><use xlink:href="#L" transform="matrix(9.96 0 0 -9.96 111.104 561.837)"/><use xlink:href="#P" transform="matrix(9.96 0 0 -9.96 117.174 561.837)"/><use xlink:href="#J" transform="matrix(9.96 0 0 -9.96 122.919 561.72)"/><use xlink:href="#D" transform="matrix(9.96 0 0 -9.96 126.074 561.837)"/><use xlink:href="#C" transform="matrix(9.96 0 0 -9.96 130.636 561.837)"/><use xlink:href="#G" transform="matrix(9.96 0 0 -9.96 135.328 561.72)"/><use xlink:href="#P" transform="matrix(9.96 0 0 -9.96 139.136 561.837)"/><use xlink:href="#Y" transform="matrix(9.96 0 0 -9.96 144.579 561.837)"/><use xlink:href="#C" transform="matrix(9.96 0 0 -9.96 148.763 561.837)"/></g></g><g data-name="Span"><clipPath id="be"><path transform="matrix(1 0 0 -1 0 841.92)" d="M0 0h595.2v841.92H0z" fill-rule="evenodd"/></clipPath><g clip-path="url(#be)"><symbol id="bf"><path d="M.445.234A.26.26 0 0 0 .428.14.208.208 0 0 0 .224 0 .201.201 0 0 0 .13.022a.204.204 0 0 0-.07.063.31.31 0 0 0-.045.101.635.635 0 0 0 .005.3c.014.05.033.092.058.127a.267.267 0 0 0 .09.082c.035.02.074.03.118.03a.283.283 0 0 0 .116-.02V.627a.247.247 0 0 1-.114.028.17.17 0 0 1-.085-.02.193.193 0 0 1-.064-.06.29.29 0 0 1-.042-.093.477.477 0 0 1-.014-.12h.002C.117.42.17.45.245.45.275.45.303.445.327.435A.174.174 0 0 0 .39.39.194.194 0 0 0 .43.322.26.26 0 0 0 .446.234M.363.224a.218.218 0 0 1-.01.066.14.14 0 0 1-.026.05.11.11 0 0 1-.043.031.141.141 0 0 1-.057.011.135.135 0 0 1-.1-.042.141.141 0 0 1-.04-.099.22.22 0 0 1 .011-.068A.175.175 0 0 1 .127.12a.124.124 0 0 1 .101-.05c.02 0 .039.003.055.01C.3.088.314.1.326.113c.011.013.02.03.027.049.007.019.01.04.01.063z"/></symbol><symbol id="bg"><path d="M.371 0H0v.7h.355V.626H.082V.393h.253V.32H.082V.074h.29V0z"/></symbol><symbol id="bh"><path d="M.46 0H.38v.316H.38C.344.25.287.218.208.218a.19.19 0 0 0-.151.067A.276.276 0 0 0 0 .468c0 .083.02.15.063.199.041.05.097.075.167.075C.3.742.348.715.38.66H.38V.73h.08V0M.38.455v.073a.145.145 0 0 1-.04.104.134.134 0 0 1-.103.042.137.137 0 0 1-.114-.053.238.238 0 0 1-.042-.15c0-.058.014-.104.04-.137A.13.13 0 0 1 .228.286.14.14 0 0 1 .34.333.179.179 0 0 1 .38.455z"/></symbol><use xlink:href="#bf" transform="matrix(9.96 0 0 -9.96 85.62 588.702)"/><use xlink:href="#aM" transform="matrix(9.96 0 0 -9.96 91.013 588.687)"/><use xlink:href="#G" transform="matrix(9.96 0 0 -9.96 92.63 588.58)"/><use xlink:href="#bg" transform="matrix(9.96 0 0 -9.96 96.183 588.58)"/><use xlink:href="#bh" transform="matrix(9.96 0 0 -9.96 100.776 590.87)"/><use xlink:href="#P" transform="matrix(9.96 0 0 -9.96 106.876 588.697)"/><use xlink:href="#E" transform="matrix(9.96 0 0 -9.96 112.513 588.58)"/><use xlink:href="#I" transform="matrix(9.96 0 0 -9.96 114.432 588.687)"/><use xlink:href="#aa" transform="matrix(9.96 0 0 -9.96 117.667 590.924)"/></g></g><g data-name="Span"><clipPath id="bi"><path transform="matrix(1 0 0 -1 0 841.92)" d="M0 0h595.2v841.92H0z" fill-rule="evenodd"/></clipPath><g clip-path="url(#bi)"><symbol id="bj"><path d="M.445.654A4.156 4.156 0 0 1 .358.49a3.127 3.127 0 0 1-.1-.234 1.6 1.6 0 0 1-.041-.13A.973.973 0 0 1 .192 0H.106a.99.99 0 0 0 .027.127 1.78 1.78 0 0 0 .14.356 3.152 3.152 0 0 0 .078.145H0V.7h.445V.654z"/></symbol><symbol id="bk"><path d="M.355.626H.082V.384h.253V.31H.082V0H0v.7h.355V.626z"/></symbol><use xlink:href="#bj" transform="matrix(9.96 0 0 -9.96 85.557 615.41)"/><use xlink:href="#aM" transform="matrix(9.96 0 0 -9.96 91.013 615.517)"/><use xlink:href="#G" transform="matrix(9.96 0 0 -9.96 92.63 615.41)"/><use xlink:href="#bk" transform="matrix(9.96 0 0 -9.96 96.183 615.41)"/><use xlink:href="#C" transform="matrix(9.96 0 0 -9.96 100.646 615.527)"/><use xlink:href="#R" transform="matrix(9.96 0 0 -9.96 105.776 615.527)"/><use xlink:href="#Y" transform="matrix(9.96 0 0 -9.96 110.914 615.527)"/><use xlink:href="#E" transform="matrix(9.96 0 0 -9.96 115.282 615.41)"/><use xlink:href="#Z" transform="matrix(9.96 0 0 -9.96 117.8 615.527)"/><use xlink:href="#E" transform="matrix(9.96 0 0 -9.96 123.549 615.41)"/><use xlink:href="#Q" transform="matrix(9.96 0 0 -9.96 126.066 615.41)"/><use xlink:href="#E" transform="matrix(9.96 0 0 -9.96 128.37 615.41)"/><use xlink:href="#I" transform="matrix(9.96 0 0 -9.96 130.288 615.517)"/><use xlink:href="#aa" transform="matrix(9.96 0 0 -9.96 133.494 617.754)"/></g></g><g data-name="Span"><clipPath id="bl"><path transform="matrix(1 0 0 -1 0 841.92)" d="M0 0h595.2v841.92H0z" fill-rule="evenodd"/></clipPath><g clip-path="url(#bl)"><use xlink:href="#aQ" transform="matrix(9.96 0 0 -9.96 85.994 640.06)"/><use xlink:href="#R" transform="matrix(9.96 0 0 -9.96 91.265 640.177)"/><use xlink:href="#Q" transform="matrix(9.96 0 0 -9.96 96.704 640.06)"/><use xlink:href="#R" transform="matrix(9.96 0 0 -9.96 98.705 640.177)"/><use xlink:href="#H" transform="matrix(9.96 0 0 -9.96 104.144 640.06)"/><use xlink:href="#D" transform="matrix(9.96 0 0 -9.96 109.44 640.177)"/><use xlink:href="#C" transform="matrix(9.96 0 0 -9.96 113.973 640.177)"/><use xlink:href="#G" transform="matrix(9.96 0 0 -9.96 118.665 640.06)"/><use xlink:href="#L" transform="matrix(9.96 0 0 -9.96 122.12 640.177)"/><use xlink:href="#F" transform="matrix(9.96 0 0 -9.96 127.777 640.06)"/><use xlink:href="#G" transform="matrix(9.96 0 0 -9.96 130.637 640.06)"/><use xlink:href="#D" transform="matrix(9.96 0 0 -9.96 133.853 640.177)"/><use xlink:href="#L" transform="matrix(9.96 0 0 -9.96 138.415 640.177)"/><use xlink:href="#H" transform="matrix(9.96 0 0 -9.96 144.621 640.06)"/><use xlink:href="#Y" transform="matrix(9.96 0 0 -9.96 149.957 640.177)"/><use xlink:href="#C" transform="matrix(9.96 0 0 -9.96 154.141 640.177)"/><use xlink:href="#bh" transform="matrix(9.96 0 0 -9.96 159.28 642.35)"/><use xlink:href="#P" transform="matrix(9.96 0 0 -9.96 165.38 640.177)"/><use xlink:href="#C" transform="matrix(9.96 0 0 -9.96 170.785 640.177)"/><use xlink:href="#H" transform="matrix(9.96 0 0 -9.96 176.304 640.06)"/><use xlink:href="#D" transform="matrix(9.96 0 0 -9.96 181.601 640.177)"/><use xlink:href="#C" transform="matrix(9.96 0 0 -9.96 186.163 640.177)"/><use xlink:href="#Y" transform="matrix(9.96 0 0 -9.96 191.36 640.177)"/><use xlink:href="#G" transform="matrix(9.96 0 0 -9.96 195.078 640.06)"/></g></g><g data-name="Span"><clipPath id="bm"><path transform="matrix(1 0 0 -1 0 841.92)" d="M0 0h595.2v841.92H0z" fill-rule="evenodd"/></clipPath><g clip-path="url(#bm)"><use xlink:href="#L" transform="matrix(9.96 0 0 -9.96 85.547 652.177)"/><use xlink:href="#F" transform="matrix(9.96 0 0 -9.96 91.204 652.06)"/><use xlink:href="#G" transform="matrix(9.96 0 0 -9.96 94.064 652.06)"/><use xlink:href="#E" transform="matrix(9.96 0 0 -9.96 97.513 652.06)"/><use xlink:href="#H" transform="matrix(9.96 0 0 -9.96 100.03 652.06)"/><use xlink:href="#I" transform="matrix(9.96 0 0 -9.96 105.07 652.167)"/><use xlink:href="#C" transform="matrix(9.96 0 0 -9.96 108.704 652.177)"/><use xlink:href="#J" transform="matrix(9.96 0 0 -9.96 114.184 652.06)"/><use xlink:href="#K" transform="matrix(9.96 0 0 -9.96 116.91 652.06)"/><use xlink:href="#C" transform="matrix(9.96 0 0 -9.96 122.11 652.177)"/><use xlink:href="#H" transform="matrix(9.96 0 0 -9.96 127.61 652.06)"/><use xlink:href="#I" transform="matrix(9.96 0 0 -9.96 132.649 652.167)"/><use xlink:href="#E" transform="matrix(9.96 0 0 -9.96 136.517 652.06)"/><use xlink:href="#L" transform="matrix(9.96 0 0 -9.96 138.693 652.177)"/><use xlink:href="#H" transform="matrix(9.96 0 0 -9.96 144.87 652.06)"/></g></g><g data-name="Artifact"><path d="M70.875 708.29h453.5v-27.103h-453.5z" fill="#3b5fb5" fill-rule="evenodd"/><path stroke-width=".75" stroke-linejoin="round" fill="none" stroke="#3b5fb5" d="M206.4 707.92v82.06M70.5 708.29h454.25M70.5 735.4h454.25M70.5 762.502h454.25M70.875 680.82v109.16M524.38 680.82v109.16M70.5 681.19h454.25M70.5 789.605h454.25"/></g><g data-name="Span"><clipPath id="bn"><path transform="matrix(1 0 0 -1 0 841.92)" d="M0 0h595.2v841.92H0z" fill-rule="evenodd"/></clipPath><g clip-path="url(#bn)"><symbol id="bo"><path d="M0 0v.7h.248C.497.7.621.586.621.36A.345.345 0 0 0 .52.098.375.375 0 0 0 .248 0H0m.158.572V.128h.078a.21.21 0 0 1 .16.061c.04.041.06.097.06.168a.21.21 0 0 1-.059.157.22.22 0 0 1-.162.058H.158z"/></symbol><use xlink:href="#bo" transform="matrix(9.96 0 0 -9.96 157.208 698.57)" fill="#fff"/><use xlink:href="#h" transform="matrix(9.96 0 0 -9.96 164.397 698.57)" fill="#fff"/><use xlink:href="#ad" transform="matrix(9.96 0 0 -9.96 167.992 698.692)" fill="#fff"/><use xlink:href="#r" transform="matrix(9.96 0 0 -9.96 173.292 698.57)" fill="#fff"/><use xlink:href="#g" transform="matrix(9.96 0 0 -9.96 177.117 698.692)" fill="#fff"/></g></g><g data-name="Span"><clipPath id="bp"><path transform="matrix(1 0 0 -1 0 841.92)" d="M0 0h595.2v841.92H0z" fill-rule="evenodd"/></clipPath><g clip-path="url(#bp)"><symbol id="bq"><path d="M.63 0H.47L.183.44a.636.636 0 0 0-.035.058H.145C.148.473.149.436.149.385V0H0v.7h.17L.448.274.483.217h.002A.749.749 0 0 0 .48.313V.7H.63V0z"/></symbol><use xlink:href="#bq" transform="matrix(9.96 0 0 -9.96 184.448 698.57)" fill="#fff"/><use xlink:href="#e" transform="matrix(9.96 0 0 -9.96 192.356 698.57)" fill="#fff"/><use xlink:href="#ah" transform="matrix(9.96 0 0 -9.96 194.826 698.57)" fill="#fff"/><use xlink:href="#aI" transform="matrix(9.96 0 0 -9.96 200.59 698.57)" fill="#fff"/><use xlink:href="#aB" transform="matrix(9.96 0 0 -9.96 207.864 698.692)" fill="#fff"/><use xlink:href="#s" transform="matrix(9.96 0 0 -9.96 214.586 698.57)" fill="#fff"/></g></g><g data-name="Span"><clipPath id="br"><path transform="matrix(1 0 0 -1 0 841.92)" d="M0 0h595.2v841.92H0z" fill-rule="evenodd"/></clipPath><g clip-path="url(#br)" fill="#fff"><use xlink:href="#h" transform="matrix(9.96 0 0 -9.96 218.017 698.57)"/><use xlink:href="#q" transform="matrix(9.96 0 0 -9.96 221.684 698.692)"/><use xlink:href="#l" transform="matrix(9.96 0 0 -9.96 227.073 698.692)"/><use xlink:href="#i" transform="matrix(9.96 0 0 -9.96 231.853 698.692)"/><use xlink:href="#ao" transform="matrix(9.96 0 0 -9.96 238.285 698.57)"/><use xlink:href="#ao" transform="matrix(9.96 0 0 -9.96 247.409 698.57)"/><use xlink:href="#q" transform="matrix(9.96 0 0 -9.96 256.236 698.692)"/><use xlink:href="#f" transform="matrix(9.96 0 0 -9.96 261.92 698.57)"/><use xlink:href="#j" transform="matrix(9.96 0 0 -9.96 267.65 698.692)"/><use xlink:href="#ad" transform="matrix(9.96 0 0 -9.96 273.672 698.692)"/><use xlink:href="#g" transform="matrix(9.96 0 0 -9.96 278.983 698.692)"/><use xlink:href="#m" transform="matrix(9.96 0 0 -9.96 283.168 698.57)"/><use xlink:href="#i" transform="matrix(9.96 0 0 -9.96 285.847 698.692)"/><use xlink:href="#f" transform="matrix(9.96 0 0 -9.96 292.249 698.57)"/></g></g><g data-name="Span"><clipPath id="bs"><path transform="matrix(1 0 0 -1 0 841.92)" d="M0 0h595.2v841.92H0z" fill-rule="evenodd"/></clipPath><g clip-path="url(#bs)" fill="#fff"><use xlink:href="#j" transform="matrix(9.96 0 0 -9.96 300.9 698.692)"/><use xlink:href="#q" transform="matrix(9.96 0 0 -9.96 307.016 698.692)"/><use xlink:href="#at" transform="matrix(9.96 0 0 -9.96 312.073 698.57)"/><use xlink:href="#q" transform="matrix(9.96 0 0 -9.96 317.802 698.692)"/><use xlink:href="#t" transform="matrix(9.96 0 0 -9.96 323.487 698.57)"/><use xlink:href="#i" transform="matrix(9.96 0 0 -9.96 326.089 698.692)"/><use xlink:href="#p" transform="matrix(9.96 0 0 -9.96 332.491 700.86)"/><use xlink:href="#q" transform="matrix(9.96 0 0 -9.96 338.31 698.692)"/><use xlink:href="#j" transform="matrix(9.96 0 0 -9.96 343.698 698.692)"/></g></g><g data-name="Span"><clipPath id="bt"><path transform="matrix(1 0 0 -1 0 841.92)" d="M0 0h595.2v841.92H0z" fill-rule="evenodd"/></clipPath><g clip-path="url(#bt)" fill="#fff"><use xlink:href="#ai" transform="matrix(9.96 0 0 -9.96 353.187 698.692)"/><use xlink:href="#u" transform="matrix(9.96 0 0 -9.96 358.64 700.91)"/></g></g><g data-name="Span"><clipPath id="bu"><path transform="matrix(1 0 0 -1 0 841.92)" d="M0 0h595.2v841.92H0z" fill-rule="evenodd"/></clipPath><g clip-path="url(#bu)" fill="#fff"><use xlink:href="#aA" transform="matrix(9.96 0 0 -9.96 367.028 698.57)"/><use xlink:href="#aB" transform="matrix(9.96 0 0 -9.96 377.26 698.692)"/><use xlink:href="#aC" transform="matrix(9.96 0 0 -9.96 383.743 699.727)"/></g></g><g data-name="Span"><clipPath id="bv"><path transform="matrix(1 0 0 -1 0 841.92)" d="M0 0h595.2v841.92H0z" fill-rule="evenodd"/></clipPath><g clip-path="url(#bv)" fill="#fff"><use xlink:href="#o" transform="matrix(9.96 0 0 -9.96 388.867 698.692)"/><use xlink:href="#q" transform="matrix(9.96 0 0 -9.96 394.398 698.692)"/><use xlink:href="#l" transform="matrix(9.96 0 0 -9.96 399.786 698.692)"/><use xlink:href="#h" transform="matrix(9.96 0 0 -9.96 404.883 698.57)"/><use xlink:href="#q" transform="matrix(9.96 0 0 -9.96 408.55 698.692)"/><use xlink:href="#g" transform="matrix(9.96 0 0 -9.96 413.788 698.692)"/><use xlink:href="#ad" transform="matrix(9.96 0 0 -9.96 417.74 698.692)"/><use xlink:href="#h" transform="matrix(9.96 0 0 -9.96 423.469 698.57)"/><use xlink:href="#m" transform="matrix(9.96 0 0 -9.96 427.326 698.57)"/><use xlink:href="#ad" transform="matrix(9.96 0 0 -9.96 429.942 698.692)"/><use xlink:href="#g" transform="matrix(9.96 0 0 -9.96 435.252 698.692)"/></g></g><g data-name="Span"><clipPath id="bw"><path transform="matrix(1 0 0 -1 0 841.92)" d="M0 0h595.2v841.92H0z" fill-rule="evenodd"/></clipPath><g clip-path="url(#bw)"><symbol id="bx"><path d="M0 0v.7h.193C.44.7.563.586.563.36A.344.344 0 0 0 .46.099.381.381 0 0 0 .186 0H0m.082.626V.074h.105C.278.074.35.1.4.148c.051.05.077.119.077.209 0 .18-.096.269-.287.269H.082z"/></symbol><use xlink:href="#bx" transform="matrix(9.96 0 0 -9.96 79.01 725.66)"/><use xlink:href="#J" transform="matrix(9.96 0 0 -9.96 85.885 725.66)"/><use xlink:href="#R" transform="matrix(9.96 0 0 -9.96 88.982 725.777)"/><use xlink:href="#F" transform="matrix(9.96 0 0 -9.96 93.832 725.66)"/><use xlink:href="#I" transform="matrix(9.96 0 0 -9.96 96.9 725.767)"/></g></g><g data-name="Span"><clipPath id="by"><path transform="matrix(1 0 0 -1 0 841.92)" d="M0 0h595.2v841.92H0z" fill-rule="evenodd"/></clipPath><g clip-path="url(#by)"><symbol id="bz"><path d="M.564 0h-.1l-.36.558A.233.233 0 0 0 .08.602H.078A.72.72 0 0 0 .082.506V0H0v.7h.106L.457.15A.624.624 0 0 0 .485.105h.002a.74.74 0 0 0-.005.103V.7h.082V0z"/></symbol><symbol id="bA"><path d="M.082 0H0v.7h.082V0z"/></symbol><symbol id="bB"><path d="M.486.626H.284V0H.202v.626H0V.7h.486V.626z"/></symbol><use xlink:href="#bz" transform="matrix(9.96 0 0 -9.96 103.854 725.66)"/><use xlink:href="#bA" transform="matrix(9.96 0 0 -9.96 111.304 725.66)"/><use xlink:href="#bB" transform="matrix(9.96 0 0 -9.96 113.239 725.66)"/><use xlink:href="#aY" transform="matrix(9.96 0 0 -9.96 118.286 725.66)"/><use xlink:href="#X" transform="matrix(9.96 0 0 -9.96 125.11 725.777)"/><use xlink:href="#G" transform="matrix(9.96 0 0 -9.96 131.485 725.66)"/></g></g><g data-name="Span"><clipPath id="bC"><path transform="matrix(1 0 0 -1 0 841.92)" d="M0 0h595.2v841.92H0z" fill-rule="evenodd"/></clipPath><g clip-path="url(#bC)"><use xlink:href="#T" transform="matrix(9.96 0 0 -9.96 134.967 725.777)"/><use xlink:href="#C" transform="matrix(9.96 0 0 -9.96 140.833 725.777)"/><use xlink:href="#D" transform="matrix(9.96 0 0 -9.96 146.003 725.777)"/><use xlink:href="#E" transform="matrix(9.96 0 0 -9.96 150.798 725.66)"/><use xlink:href="#Y" transform="matrix(9.96 0 0 -9.96 153.013 725.777)"/><use xlink:href="#E" transform="matrix(9.96 0 0 -9.96 157.401 725.66)"/><use xlink:href="#L" transform="matrix(9.96 0 0 -9.96 159.578 725.777)"/><use xlink:href="#H" transform="matrix(9.96 0 0 -9.96 165.775 725.66)"/></g></g><g data-name="Span"><clipPath id="bD"><path transform="matrix(1 0 0 -1 0 841.92)" d="M0 0h595.2v841.92H0z" fill-rule="evenodd"/></clipPath><g clip-path="url(#bD)"><use xlink:href="#bx" transform="matrix(9.96 0 0 -9.96 79.01 752.784)"/><use xlink:href="#J" transform="matrix(9.96 0 0 -9.96 85.885 752.784)"/><use xlink:href="#R" transform="matrix(9.96 0 0 -9.96 88.982 752.9)"/><use xlink:href="#F" transform="matrix(9.96 0 0 -9.96 93.832 752.784)"/><use xlink:href="#I" transform="matrix(9.96 0 0 -9.96 96.9 752.891)"/></g></g><g data-name="Span"><clipPath id="bE"><path transform="matrix(1 0 0 -1 0 841.92)" d="M0 0h595.2v841.92H0z" fill-rule="evenodd"/></clipPath><g clip-path="url(#bE)"><use xlink:href="#J" transform="matrix(9.96 0 0 -9.96 103.747 752.784)"/><use xlink:href="#C" transform="matrix(9.96 0 0 -9.96 106.873 752.9)"/><use xlink:href="#D" transform="matrix(9.96 0 0 -9.96 112.042 752.9)"/><use xlink:href="#L" transform="matrix(9.96 0 0 -9.96 116.604 752.9)"/><use xlink:href="#aN" transform="matrix(9.96 0 0 -9.96 122.81 752.784)"/><use xlink:href="#aN" transform="matrix(9.96 0 0 -9.96 131.327 752.784)"/><use xlink:href="#C" transform="matrix(9.96 0 0 -9.96 139.502 752.9)"/><use xlink:href="#H" transform="matrix(9.96 0 0 -9.96 145.002 752.784)"/><use xlink:href="#T" transform="matrix(9.96 0 0 -9.96 150.299 752.9)"/><use xlink:href="#R" transform="matrix(9.96 0 0 -9.96 156.136 752.9)"/><use xlink:href="#I" transform="matrix(9.96 0 0 -9.96 160.977 752.891)"/><use xlink:href="#E" transform="matrix(9.96 0 0 -9.96 164.815 752.784)"/><use xlink:href="#L" transform="matrix(9.96 0 0 -9.96 166.992 752.9)"/><use xlink:href="#H" transform="matrix(9.96 0 0 -9.96 173.188 752.784)"/></g></g><g data-name="Span"><clipPath id="bF"><path transform="matrix(1 0 0 -1 0 841.92)" d="M0 0h595.2v841.92H0z" fill-rule="evenodd"/></clipPath><g clip-path="url(#bF)"><use xlink:href="#aY" transform="matrix(9.96 0 0 -9.96 78.203 779.88)"/><use xlink:href="#T" transform="matrix(9.96 0 0 -9.96 85.037 779.997)"/><use xlink:href="#T" transform="matrix(9.96 0 0 -9.96 90.903 779.997)"/><use xlink:href="#E" transform="matrix(9.96 0 0 -9.96 97.003 779.88)"/><use xlink:href="#I" transform="matrix(9.96 0 0 -9.96 98.922 779.987)"/><use xlink:href="#E" transform="matrix(9.96 0 0 -9.96 102.79 779.88)"/><use xlink:href="#L" transform="matrix(9.96 0 0 -9.96 104.967 779.997)"/><use xlink:href="#H" transform="matrix(9.96 0 0 -9.96 111.164 779.88)"/><use xlink:href="#R" transform="matrix(9.96 0 0 -9.96 116.431 779.997)"/><use xlink:href="#Q" transform="matrix(9.96 0 0 -9.96 121.87 779.88)"/></g></g><g data-name="Span"><clipPath id="bG"><path transform="matrix(1 0 0 -1 0 841.92)" d="M0 0h595.2v841.92H0z" fill-rule="evenodd"/></clipPath><g clip-path="url(#bG)"><use xlink:href="#D" transform="matrix(9.96 0 0 -9.96 126.687 779.997)"/><use xlink:href="#L" transform="matrix(9.96 0 0 -9.96 131.249 779.997)"/><use xlink:href="#H" transform="matrix(9.96 0 0 -9.96 137.455 779.88)"/><use xlink:href="#Y" transform="matrix(9.96 0 0 -9.96 142.791 779.997)"/><use xlink:href="#E" transform="matrix(9.96 0 0 -9.96 147.209 779.88)"/><use xlink:href="#T" transform="matrix(9.96 0 0 -9.96 149.356 779.997)"/><use xlink:href="#C" transform="matrix(9.96 0 0 -9.96 155.222 779.997)"/><use xlink:href="#J" transform="matrix(9.96 0 0 -9.96 160.732 779.88)"/><use xlink:href="#R" transform="matrix(9.96 0 0 -9.96 163.828 779.997)"/><use xlink:href="#I" transform="matrix(9.96 0 0 -9.96 168.67 779.987)"/><use xlink:href="#E" transform="matrix(9.96 0 0 -9.96 172.507 779.88)"/><use xlink:href="#L" transform="matrix(9.96 0 0 -9.96 174.684 779.997)"/><use xlink:href="#H" transform="matrix(9.96 0 0 -9.96 180.881 779.88)"/><use xlink:href="#Y" transform="matrix(9.96 0 0 -9.96 186.217 779.997)"/></g></g><g data-name="Artifact"><clipPath id="bH"><path transform="matrix(1 0 0 -1 0 841.92)" d="M0 0h595.2v841.92H0z" fill-rule="evenodd"/></clipPath><g clip-path="url(#bH)"><symbol id="bI"><path d="M.48 0H0v.127h.153v.384H0V.63a.51.51 0 0 1 .067.004c.022.003.04.008.053.014A.09.09 0 0 1 .171.73h.16V.127h.15V0z"/></symbol><use xlink:href="#bI" transform="matrix(8.04 0 0 -8.04 560.665 817.2)" fill="#3b5fb5"/><use xlink:href="#bI" transform="matrix(8.04 0 0 -8.04 565.826 817.2)" fill="#3b5fb5"/></g></g><g data-name="Span"><clipPath id="bJ"><path transform="matrix(1 0 0 -1 0 841.92)" d="M0 0h595.2v841.92H0z" fill-rule="evenodd"/></clipPath><g clip-path="url(#bJ)"><use xlink:href="#bB" transform="matrix(11.04 0 0 -11.04 75.005 810.864)"/><use xlink:href="#U" transform="matrix(11.04 0 0 -11.04 81.464 810.864)"/><use xlink:href="#C" transform="matrix(11.04 0 0 -11.04 87.302 810.993)"/><use xlink:href="#G" transform="matrix(11.04 0 0 -11.04 92.558 810.864)"/><use xlink:href="#P" transform="matrix(11.04 0 0 -11.04 96.315 810.993)"/><use xlink:href="#Y" transform="matrix(11.04 0 0 -11.04 102.348 810.993)"/><use xlink:href="#C" transform="matrix(11.04 0 0 -11.04 106.986 810.993)"/><use xlink:href="#G" transform="matrix(11.04 0 0 -11.04 112.243 810.864)"/><use xlink:href="#L" transform="matrix(11.04 0 0 -11.04 115.62 810.993)"/><use xlink:href="#F" transform="matrix(11.04 0 0 -11.04 121.857 810.864)"/><use xlink:href="#G" transform="matrix(11.04 0 0 -11.04 125.05 810.864)"/><use xlink:href="#I" transform="matrix(11.04 0 0 -11.04 128.394 810.983)"/><use xlink:href="#U" transform="matrix(11.04 0 0 -11.04 132.8 810.864)"/><use xlink:href="#C" transform="matrix(11.04 0 0 -11.04 138.671 810.993)"/><use xlink:href="#Y" transform="matrix(11.04 0 0 -11.04 144.444 810.993)"/><use xlink:href="#C" transform="matrix(11.04 0 0 -11.04 149.082 810.993)"/><use xlink:href="#G" transform="matrix(11.04 0 0 -11.04 154.338 810.864)"/><use xlink:href="#I" transform="matrix(11.04 0 0 -11.04 157.44 810.983)"/><use xlink:href="#L" transform="matrix(11.04 0 0 -11.04 161.469 810.993)"/><use xlink:href="#L" transform="matrix(11.04 0 0 -11.04 167.938 810.993)"/><use xlink:href="#Q" transform="matrix(11.04 0 0 -11.04 174.785 810.864)"/><use xlink:href="#Y" transform="matrix(11.04 0 0 -11.04 177.122 810.993)"/><use xlink:href="#G" transform="matrix(11.04 0 0 -11.04 181.21 810.864)"/><use xlink:href="#F" transform="matrix(11.04 0 0 -11.04 184.52 810.864)"/><use xlink:href="#L" transform="matrix(11.04 0 0 -11.04 188.208 810.993)"/><use xlink:href="#J" transform="matrix(11.04 0 0 -11.04 195.054 810.864)"/><use xlink:href="#G" transform="matrix(11.04 0 0 -11.04 198.001 810.864)"/><use xlink:href="#D" transform="matrix(11.04 0 0 -11.04 201.632 810.993)"/><use xlink:href="#L" transform="matrix(11.04 0 0 -11.04 206.677 810.993)"/><use xlink:href="#aN" transform="matrix(11.04 0 0 -11.04 213.524 810.864)"/><use xlink:href="#B" transform="matrix(11.04 0 0 -11.04 223.03 813.403)"/><use xlink:href="#Q" transform="matrix(11.04 0 0 -11.04 229.521 810.864)"/><use xlink:href="#C" transform="matrix(11.04 0 0 -11.04 231.76 810.993)"/><use xlink:href="#I" transform="matrix(11.04 0 0 -11.04 237.249 810.983)"/><use xlink:href="#E" transform="matrix(11.04 0 0 -11.04 241.502 810.864)"/><use xlink:href="#H" transform="matrix(11.04 0 0 -11.04 244.293 810.864)"/><use xlink:href="#S" transform="matrix(11.04 0 0 -11.04 250.12 813.462)"/><use xlink:href="#G" transform="matrix(11.04 0 0 -11.04 256.105 810.864)"/><use xlink:href="#Y" transform="matrix(11.04 0 0 -11.04 259.867 810.993)"/><use xlink:href="#I" transform="matrix(11.04 0 0 -11.04 264.22 810.983)"/><use xlink:href="#C" transform="matrix(11.04 0 0 -11.04 268.248 810.993)"/><use xlink:href="#B" transform="matrix(11.04 0 0 -11.04 274.366 813.403)"/><use xlink:href="#Y" transform="matrix(11.04 0 0 -11.04 280.523 810.993)"/><use xlink:href="#G" transform="matrix(11.04 0 0 -11.04 284.643 810.864)"/><use xlink:href="#aL" transform="matrix(11.04 0 0 -11.04 288.743 810.864)"/></g></g><g data-name="Span"><clipPath id="bK"><path transform="matrix(1 0 0 -1 0 841.92)" d="M0 0h595.2v841.92H0z" fill-rule="evenodd"/></clipPath><g clip-path="url(#bK)"><symbol id="bL"><path d="M.5 0H0v.063h.5V0z"/></symbol><use xlink:href="#bL" transform="matrix(11.04 0 0 -11.04 293.59 808.136)"/></g></g><g data-name="Span"><clipPath id="bM"><path transform="matrix(1 0 0 -1 0 841.92)" d="M0 0h595.2v841.92H0z" fill-rule="evenodd"/></clipPath><g clip-path="url(#bM)"><symbol id="bN"><path d="M.7.5.55 0H.465L.363.358a.233.233 0 0 0-.008.046H.354A.219.219 0 0 0 .344.36L.23 0h-.08L0 .5h.084L.187.124A.226.226 0 0 0 .195.079h.004a.21.21 0 0 0 .009.046L.322.5h.074L.499.123A.27.27 0 0 0 .506.078H.51c0 .013.004.028.009.045L.62.5H.7z"/></symbol><use xlink:href="#aX" transform="matrix(11.04 0 0 -11.04 299.185 810.864)"/><use xlink:href="#G" transform="matrix(11.04 0 0 -11.04 305.094 810.864)"/><use xlink:href="#E" transform="matrix(11.04 0 0 -11.04 308.63 810.864)"/><use xlink:href="#Y" transform="matrix(11.04 0 0 -11.04 311.086 810.993)"/><use xlink:href="#G" transform="matrix(11.04 0 0 -11.04 315.206 810.864)"/><use xlink:href="#T" transform="matrix(11.04 0 0 -11.04 318.572 810.993)"/><use xlink:href="#C" transform="matrix(11.04 0 0 -11.04 325.075 810.993)"/><use xlink:href="#Y" transform="matrix(11.04 0 0 -11.04 330.859 810.993)"/><use xlink:href="#D" transform="matrix(11.04 0 0 -11.04 335.497 810.993)"/><use xlink:href="#J" transform="matrix(11.04 0 0 -11.04 340.908 810.864)"/><use xlink:href="#E" transform="matrix(11.04 0 0 -11.04 344.631 810.864)"/><use xlink:href="#Z" transform="matrix(11.04 0 0 -11.04 347.389 810.993)"/><use xlink:href="#C" transform="matrix(11.04 0 0 -11.04 353.503 810.993)"/><use xlink:href="#T" transform="matrix(11.04 0 0 -11.04 359.277 810.993)"/><use xlink:href="#G" transform="matrix(11.04 0 0 -11.04 365.218 810.864)"/><use xlink:href="#Z" transform="matrix(11.04 0 0 -11.04 369.226 810.993)"/><use xlink:href="#C" transform="matrix(11.04 0 0 -11.04 375.34 810.993)"/><use xlink:href="#Q" transform="matrix(11.04 0 0 -11.04 381.491 810.864)"/><use xlink:href="#L" transform="matrix(11.04 0 0 -11.04 383.73 810.993)"/><use xlink:href="#bN" transform="matrix(11.04 0 0 -11.04 389.812 810.864)"/></g></g><g data-name="Span"><clipPath id="bO"><path transform="matrix(1 0 0 -1 0 841.92)" d="M0 0h595.2v841.92H0z" fill-rule="evenodd"/></clipPath><g clip-path="url(#bO)"><use xlink:href="#aM" transform="matrix(12 0 0 -12 398.316 810.993)"/></g></g></svg>