<?xml version="1.0" encoding="UTF-8" standalone="no"?>
<svg
   width="1280"
   height="500"
   overflow="hidden"
   version="1.1"
   id="svg88"
   sodipodi:docname="aon-mod.svg"
   inkscape:version="1.2.2 (732a01da63, 2022-12-09)"
   xmlns:inkscape="http://www.inkscape.org/namespaces/inkscape"
   xmlns:sodipodi="http://sodipodi.sourceforge.net/DTD/sodipodi-0.dtd"
   xmlns="http://www.w3.org/2000/svg"
   xmlns:svg="http://www.w3.org/2000/svg">
  <defs
     id="defs92" />
  <sodipodi:namedview
     id="namedview90"
     pagecolor="#ffffff"
     bordercolor="#000000"
     borderopacity="0.25"
     inkscape:showpageshadow="2"
     inkscape:pageopacity="0.0"
     inkscape:pagecheckerboard="0"
     inkscape:deskcolor="#d1d1d1"
     showgrid="false"
     inkscape:zoom="0.59648438"
     inkscape:cx="387.26916"
     inkscape:cy="584.25671"
     inkscape:window-width="1716"
     inkscape:window-height="1321"
     inkscape:window-x="1711"
     inkscape:window-y="0"
     inkscape:window-maximized="0"
     inkscape:current-layer="svg88" />
  <g
     id="g86"
     transform="translate(0.83824492,-108.64833)">
    <rect
       x="0"
       y="0"
       width="1280"
       height="720"
       fill="#ffffff"
       id="rect2" />
    <path
       d="m 255.5,167 c 0,-8.008 6.492,-14.5 14.5,-14.5 h 108 c 8.008,0 14.5,6.492 14.5,14.5 v 58 c 0,8.008 -6.492,14.5 -14.5,14.5 H 270 c -8.008,0 -14.5,-6.492 -14.5,-14.5 z"
       stroke="#042433"
       stroke-width="3"
       stroke-miterlimit="8"
       fill="none"
       fill-rule="evenodd"
       id="path4" />
    <text
       font-family="'Cambria Math', 'Cambria Math_MSFontService', sans-serif"
       font-weight="400"
       font-size="48px"
       transform="translate(305.258,212)"
       id="text6">𝑆</text>
    <path
       d="m 620.5,167 c 0,-8.008 6.492,-14.5 14.5,-14.5 h 108 c 8.008,0 14.5,6.492 14.5,14.5 v 58 c 0,8.008 -6.492,14.5 -14.5,14.5 H 635 c -8.008,0 -14.5,-6.492 -14.5,-14.5 z"
       stroke="#042433"
       stroke-width="3"
       stroke-miterlimit="8"
       fill="none"
       fill-rule="evenodd"
       id="path8" />
    <text
       font-family="'Cambria Math', 'Cambria Math_MSFontService', sans-serif"
       font-weight="400"
       font-size="48px"
       transform="translate(674.138,212)"
       id="text10">𝐼</text>
    <path
       d="m 986.5,167 c 0,-8.008 6.492,-14.5 14.5,-14.5 h 108 c 8.01,0 14.5,6.492 14.5,14.5 v 58 c 0,8.008 -6.49,14.5 -14.5,14.5 h -108 c -8.008,0 -14.5,-6.492 -14.5,-14.5 z"
       stroke="#042433"
       stroke-width="3"
       stroke-miterlimit="8"
       fill="none"
       fill-rule="evenodd"
       id="path12" />
    <text
       font-family="'Cambria Math', 'Cambria Math_MSFontService', sans-serif"
       font-weight="400"
       font-size="48px"
       transform="translate(1033.54,212)"
       id="text14">𝑅</text>
    <path
       d="m 255.5,496 c 0,-8.008 6.492,-14.5 14.5,-14.5 h 108 c 8.008,0 14.5,6.492 14.5,14.5 v 58 c 0,8.008 -6.492,14.5 -14.5,14.5 H 270 c -8.008,0 -14.5,-6.492 -14.5,-14.5 z"
       stroke="#042433"
       stroke-width="3"
       stroke-miterlimit="8"
       fill="none"
       fill-rule="evenodd"
       id="path16" />
    <text
       font-family="'Cambria Math', 'Cambria Math_MSFontService', sans-serif"
       font-weight="400"
       font-size="48px"
       transform="translate(295.425,541)"
       id="text18">𝑆</text>
    <text
       font-family="'Cambria Math', 'Cambria Math_MSFontService', sans-serif"
       font-weight="400"
       font-size="35px"
       transform="translate(318.652,550)"
       id="text20">𝑣</text>
    <path
       d="m 620.5,496 c 0,-8.008 6.492,-14.5 14.5,-14.5 h 108 c 8.008,0 14.5,6.492 14.5,14.5 v 58 c 0,8.008 -6.492,14.5 -14.5,14.5 H 635 c -8.008,0 -14.5,-6.492 -14.5,-14.5 z"
       stroke="#042433"
       stroke-width="3"
       stroke-miterlimit="8"
       fill="none"
       fill-rule="evenodd"
       id="path22" />
    <text
       font-family="'Cambria Math', 'Cambria Math_MSFontService', sans-serif"
       font-weight="400"
       font-size="48px"
       transform="translate(664.951,541)"
       id="text24">𝐼</text>
    <text
       font-family="'Cambria Math', 'Cambria Math_MSFontService', sans-serif"
       font-weight="400"
       font-size="35px"
       transform="translate(680.305,550)"
       id="text26">𝑣</text>
    <path
       d="m 986.5,496 c 0,-8.008 6.492,-14.5 14.5,-14.5 h 108 c 8.01,0 14.5,6.492 14.5,14.5 v 58 c 0,8.008 -6.49,14.5 -14.5,14.5 h -108 c -8.008,0 -14.5,-6.492 -14.5,-14.5 z"
       stroke="#042433"
       stroke-width="3"
       stroke-miterlimit="8"
       fill="none"
       fill-rule="evenodd"
       id="path28" />
    <text
       font-family="'Cambria Math', 'Cambria Math_MSFontService', sans-serif"
       font-weight="400"
       font-size="48px"
       transform="translate(1023.29,541)"
       id="text30">𝑅</text>
    <text
       font-family="'Cambria Math', 'Cambria Math_MSFontService', sans-serif"
       font-weight="400"
       font-size="35px"
       transform="translate(1053.14,550)"
       id="text32">𝑣</text>
    <path
       d="m 392,193 h 218.589 v 4 H 392 Z m 216.59,-4 12,6 -12,6 z"
       id="path34" />
    <path
       d="m 757,193 h 218.589 v 4 H 757 Z m 216.589,-4 12,6 -12,6 z"
       id="path36" />
    <path
       d="m 392,522 218.59,0.028 -10e-4,4 L 392,526 Z m 216.59,-3.972 12,6.001 -12.001,5.999 z"
       id="path38" />
    <path
       d="m 757,522 h 218.589 v 4 H 757 Z m 216.59,-4 12,6 -12,6 z"
       id="path40" />
    <path
       d="M 2,-8.67615e-7 2.0001,232.013 h -4 L -2,8.67615e-7 Z M 6.0001,230.013 l -5.999995013,12 -6.000004987,-12 z"
       transform="matrix(-1,0,0,1,323,239)"
       id="path42" />
    <text
       font-family="'Cambria Math', 'Cambria Math_MSFontService', sans-serif"
       font-weight="400"
       font-size="48px"
       transform="translate(858.396,501)"
       id="text44">𝛾</text>
    <text
       font-family="'Cambria Math', 'Cambria Math_MSFontService', sans-serif"
       font-weight="400"
       font-size="48px"
       transform="translate(858.396,171)"
       id="text46">𝛾</text>
    <text
       font-family="'Cambria Math', 'Cambria Math_MSFontService', sans-serif"
       font-weight="400"
       font-size="48px"
       transform="translate(463.224,171)"
       id="text48">𝜆</text>
    <path
       d="m 530.494,135.074 c 4.562,1.203 8.066,3.8 10.511,7.793 2.446,3.992 3.668,8.808 3.668,14.449 0,5.656 -1.218,10.472 -3.656,14.449 -2.437,3.977 -5.945,6.566 -10.523,7.77 l -0.563,-1.805 c 3.61,-1.203 6.293,-3.578 8.051,-7.125 1.758,-3.547 2.637,-8.055 2.637,-13.524 0,-5.281 -0.875,-9.668 -2.625,-13.16 -1.75,-3.492 -4.461,-5.84 -8.133,-7.043 z m -23.219,0 0.633,1.804 c -3.656,1.203 -6.363,3.551 -8.121,7.043 -1.758,3.492 -2.637,7.879 -2.637,13.16 0,5.469 0.879,9.977 2.637,13.524 1.758,3.547 4.441,5.922 8.051,7.125 l -0.563,1.805 c -4.578,-1.204 -8.086,-3.793 -10.523,-7.77 -2.438,-3.977 -3.656,-8.793 -3.656,-14.449 0,-5.641 1.222,-10.457 3.668,-14.449 2.445,-3.993 5.949,-6.59 10.511,-7.793 z"
       fill-rule="evenodd"
       id="path50" />
    <text
       font-family="'Cambria Math', 'Cambria Math_MSFontService', sans-serif"
       font-weight="400"
       font-size="48px"
       transform="translate(508.797,171)"
       id="text52">𝑡</text>
    <text
       font-family="'Cambria Math', 'Cambria Math_MSFontService', sans-serif"
       font-weight="400"
       font-size="48px"
       transform="rotate(20.620335,-563.7319,2223.8084)"
       id="text54">𝜌</text>
    <text
       font-family="'Cambria Math', 'Cambria Math_MSFontService', sans-serif"
       font-weight="400"
       font-size="48px"
       transform="rotate(20.620335,-575.48093,2299.7047)"
       id="text56">𝑉</text>
    <text
       font-family="'Cambria Math', 'Cambria Math_MSFontService', sans-serif"
       font-weight="400"
       font-size="48px"
       transform="rotate(20.620335,-591.67607,2382.3784)"
       id="text58">𝐸</text>
    <text
       font-family="'Cambria Math', 'Cambria Math_MSFontService', sans-serif"
       font-weight="400"
       font-size="35px"
       transform="rotate(20.620335,-632.79259,2452.9291)"
       id="text60">𝑃</text>
    <text
       font-family="'Cambria Math', 'Cambria Math_MSFontService', sans-serif"
       font-weight="400"
       font-size="48px"
       transform="translate(463.223,500)"
       id="text62">𝜆</text>
    <path
       d="m 530.494,464.145 c 4.562,1.203 8.066,3.8 10.511,7.793 2.446,3.992 3.668,8.808 3.668,14.449 0,5.656 -1.219,10.472 -3.656,14.449 -2.438,3.976 -5.945,6.566 -10.523,7.769 l -0.563,-1.804 c 3.609,-1.203 6.293,-3.578 8.051,-7.125 1.758,-3.547 2.637,-8.055 2.637,-13.524 0,-5.281 -0.875,-9.668 -2.625,-13.16 -1.75,-3.492 -4.461,-5.84 -8.133,-7.043 z m -23.219,0 0.633,1.804 c -3.656,1.203 -6.363,3.551 -8.121,7.043 -1.758,3.492 -2.637,7.879 -2.637,13.16 0,5.469 0.879,9.977 2.637,13.524 1.758,3.547 4.441,5.922 8.051,7.125 l -0.563,1.804 c -4.578,-1.203 -8.086,-3.793 -10.523,-7.769 -2.438,-3.977 -3.657,-8.793 -3.657,-14.449 0,-5.641 1.223,-10.457 3.668,-14.449 2.446,-3.993 5.95,-6.59 10.512,-7.793 z"
       fill-rule="evenodd"
       id="path64" />
    <text
       font-family="'Cambria Math', 'Cambria Math_MSFontService', sans-serif"
       font-weight="400"
       font-size="48px"
       transform="translate(508.797,500)"
       id="text66">𝑡</text>
    <text
       font-family="'Cambria Math', 'Cambria Math_MSFontService', sans-serif"
       font-weight="400"
       font-size="48px"
       transform="translate(65.6662,370)"
       id="text68">𝜌</text>
    <text
       font-family="'Cambria Math', 'Cambria Math_MSFontService', sans-serif"
       font-weight="400"
       font-size="48px"
       transform="translate(93.4195,370)"
       id="text70">(</text>
    <text
       font-family="'Cambria Math', 'Cambria Math_MSFontService', sans-serif"
       font-weight="400"
       font-size="48px"
       transform="translate(113.42,370)"
       id="text72">1</text>
    <text
       font-family="'Cambria Math', 'Cambria Math_MSFontService', sans-serif"
       font-weight="400"
       font-size="48px"
       transform="translate(150.586,370)"
       id="text74">−</text>
    <text
       font-family="'Cambria Math', 'Cambria Math_MSFontService', sans-serif"
       font-weight="400"
       font-size="48px"
       transform="translate(197.086,370)"
       id="text76">𝑉</text>
    <text
       font-family="'Cambria Math', 'Cambria Math_MSFontService', sans-serif"
       font-weight="400"
       font-size="48px"
       transform="translate(227.086,370)"
       id="text78">𝐸</text>
    <text
       font-family="'Cambria Math', 'Cambria Math_MSFontService', sans-serif"
       font-weight="400"
       font-size="35px"
       transform="translate(254.506,380)"
       id="text80">𝑃</text>
    <text
       font-family="'Cambria Math', 'Cambria Math_MSFontService', sans-serif"
       font-weight="400"
       font-size="48px"
       transform="translate(279.986,370)"
       id="text82">)</text>
    <path
       d="m 391.713,226.131 654.527,249.696 -1.42,3.737 -654.533,-249.695 z m 654.087,245.247 9.07,9.883 -13.35,1.328 z"
       id="path84" />
  </g>
</svg>
