<svg width="1280" height="720" xmlns="http://www.w3.org/2000/svg" xmlns:xlink="http://www.w3.org/1999/xlink" overflow="hidden"><g><rect x="0" y="0" width="1280" height="720" fill="#FFFFFF"/><path d="M754.5 596C754.5 587.992 760.992 581.5 769 581.5L877 581.5C885.008 581.5 891.5 587.992 891.5 596L891.5 654C891.5 662.008 885.008 668.5 877 668.5L769 668.5C760.992 668.5 754.5 662.008 754.5 654Z" stroke="#042433" stroke-width="3" stroke-miterlimit="8" stroke-dasharray="3 3" fill="none" fill-rule="evenodd"/><text font-family="Cambria Math,Cambria Math_MSFontService,sans-serif" font-weight="400" font-size="48" transform="translate(789.932 641)">𝐼</text><text font-family="Cambria Math,Cambria Math_MSFontService,sans-serif" font-weight="400" font-size="35" transform="translate(805.285 650)">𝑣𝑠</text><path d="M0-2 4-2 4 2 0 2ZM8-2 12-2 12 2 8 2ZM16-2 20-2 20 2 16 2ZM24-2 28-2 28 2 24 2ZM32-2 36-2 36 2 32 2ZM40-2 44-2 44 2 40 2ZM48-2 52-2 52 2 48 2ZM56-2 60-2 60 2 56 2ZM64-2 68-2 68 2 64 2ZM72-2 76-2 76 2 72 2ZM80-2 84-2 84 2 80 2ZM88-2 92-2 92 2 88 2ZM96-2 100-2 100 2 96 2ZM104-2 108-2 108 2 104 2ZM112-2 116-2 116 2 112 2ZM120-2 124-2 124 2 120 2ZM128-2 132-2 132 2 128 2ZM136-2 140-2 140 2 136 2ZM144-2 148-2 148 2 144 2ZM152-2 155.341-2 155.341 2.659 151.341 2.659 151.341 0 153.341 2 152 2ZM155.341 6.659 155.341 10.659 151.341 10.659 151.341 6.659ZM155.341 14.659 155.341 18.659 151.341 18.659 151.341 14.659ZM155.341 22.659 155.341 26.659 151.341 26.659 151.341 22.659ZM155.341 30.659 155.341 34.659 151.341 34.659 151.341 30.659ZM155.341 38.659 155.341 42.659 151.341 42.659 151.341 38.659ZM155.341 46.659 155.341 50.659 151.341 50.659 151.341 46.659ZM155.341 54.659 155.341 58.659 151.341 58.659 151.341 54.659ZM155.341 62.659 155.341 66.659 151.341 66.659 151.341 62.659ZM155.341 70.659 155.341 74.659 151.341 74.659 151.341 70.659ZM155.341 78.659 155.341 82.659 151.341 82.659 151.341 78.659ZM155.341 86.659 155.341 90.659 151.341 90.659 151.341 86.659ZM155.341 94.659 155.341 98.659 151.341 98.659 151.341 94.659ZM155.341 102.659 155.341 106.659 151.341 106.659 151.341 102.659ZM155.341 110.659 155.341 114.659 151.341 114.659 151.341 110.659ZM155.341 118.659 155.341 122.659 151.341 122.659 151.341 118.659ZM155.341 126.659 155.341 130.659 151.341 130.659 151.341 126.659ZM155.341 134.659 155.341 138.659 151.341 138.659 151.341 134.659ZM155.341 142.659 155.341 146.659 151.341 146.659 151.341 142.659ZM155.341 150.659 155.341 154.659 151.341 154.659 151.341 150.659ZM155.341 158.659 155.341 162.659 151.341 162.659 151.341 158.659ZM155.341 166.659 155.341 170.659 151.341 170.659 151.341 166.659ZM155.341 174.659 155.341 178.659 151.341 178.659 151.341 174.659ZM155.341 182.659 155.341 186.659 151.341 186.659 151.341 182.659ZM155.341 190.659 155.341 194.659 151.341 194.659 151.341 190.659ZM155.341 198.659 155.341 202.659 151.341 202.659 151.341 198.659ZM155.341 206.659 155.341 210.659 151.341 210.659 151.341 206.659ZM155.341 214.659 155.341 218.659 151.341 218.659 151.341 214.659ZM155.341 222.659 155.341 226.659 151.341 226.659 151.341 222.659ZM159.341 224.883 153.341 236.883 147.341 224.883Z" transform="matrix(1.83697e-16 1 1 -1.83697e-16 517 471)"/><path d="M499.5 454C499.5 444.335 507.559 436.5 517.5 436.5 527.441 436.5 535.5 444.335 535.5 454 535.5 463.665 527.441 471.5 517.5 471.5 507.559 471.5 499.5 463.665 499.5 454Z" stroke="#042433" stroke-width="3" stroke-miterlimit="8" fill-rule="evenodd"/><path d="M0-2 4-2 4 2 0 2ZM8-2 12-2 12 2 8 2ZM16-2 20-2 20 2 16 2ZM24-2 28-2 28 2 24 2ZM32-2 36-2 36 2 32 2ZM40-2 44-2 44 2 40 2ZM48-2 52-2 52 2 48 2ZM56-2 60-2 60 2 56 2ZM64-2 68-2 68 2 64 2ZM72-2 76-2 76 2 72 2ZM80-2 84-2 84 2 80 2ZM88-2 92-2 92 2 88 2ZM96-2 100-2 100 2 96 2ZM104-2 108-2 108 2 104 2ZM112-2 116-2 116 2 112 2ZM120-2 124-2 124 2 120 2ZM128-2 132-2 132 2 128 2ZM136-2 140-2 140 2 136 2ZM144-2 148-2 148 2 144 2ZM152-2 156-2 156 2 152 2ZM160-2 164-2 164 2 160 2ZM168-2 172-2 172 2 168 2ZM176-2 180-2 180 2 176 2ZM184-2 188-2 188 2 184 2ZM192-2 196-2 196 2 192 2ZM200-2 204-2 204 2 200 2ZM208-2 212-2 212 2 208 2ZM216-2 220-2 220 2 216 2ZM224-2 228-2 228 2 224 2ZM232-2 236-2 236 2 232 2ZM240-2 244-2 244 2 240 2ZM248-2 252-2 252 2 248 2ZM256-2 260-2 260 2 256 2ZM263.42 2.58005 263.42 6.58005 259.42 6.58005 259.42 2.58005ZM263.42 10.5801 263.42 14.5801 259.42 14.5801 259.42 10.5801ZM263.42 18.5801 263.42 22.5801 259.42 22.5801 259.42 18.5801ZM263.42 26.5801 263.42 30.5801 259.42 30.5801 259.42 26.5801ZM263.42 34.5801 263.42 38.5801 259.42 38.5801 259.42 34.5801ZM263.42 42.5801 263.42 46.5801 259.42 46.5801 259.42 42.5801ZM263.42 50.5801 263.42 54.5801 259.42 54.5801 259.42 50.5801ZM263.42 58.5801 263.42 62.5801 259.42 62.5801 259.42 58.5801ZM263.42 66.58 263.42 70.58 259.42 70.58 259.42 66.58ZM263.42 74.58 263.42 78.58 259.42 78.58 259.42 74.58ZM263.42 82.58 263.42 86.58 259.42 86.58 259.42 82.58ZM263.42 90.58 263.42 94.58 259.42 94.58 259.42 90.58ZM263.42 98.58 263.42 102.58 259.42 102.58 259.42 98.58ZM263.42 106.58 263.42 110.58 259.42 110.58 259.42 106.58ZM263.42 114.58 263.42 117.708 259.42 117.708 259.42 114.58ZM267.42 115.708 261.42 127.708 255.42 115.708Z" transform="matrix(1 0 0 -1 891 624.708)"/><path d="M59.5001 93.0003C59.5001 84.992 65.992 78.5001 74.0003 78.5001L182 78.5001C190.008 78.5001 196.5 84.992 196.5 93.0003L196.5 151C196.5 159.008 190.008 165.5 182 165.5L74.0003 165.5C65.992 165.5 59.5001 159.008 59.5001 151Z" stroke="#042433" stroke-width="3" stroke-miterlimit="8" fill="none" fill-rule="evenodd"/><text font-family="Cambria Math,Cambria Math_MSFontService,sans-serif" font-weight="400" font-size="48" transform="translate(109.729 138)">𝑆</text><path d="M758.5 93.0003C758.5 84.992 764.992 78.5001 773 78.5001L881 78.5001C889.008 78.5001 895.5 84.992 895.5 93.0003L895.5 151C895.5 159.008 889.008 165.5 881 165.5L773 165.5C764.992 165.5 758.5 159.008 758.5 151Z" stroke="#042433" stroke-width="3" stroke-miterlimit="8" fill="none" fill-rule="evenodd"/><text font-family="Cambria Math,Cambria Math_MSFontService,sans-serif" font-weight="400" font-size="48" transform="translate(796.186 138)">𝐼</text><text font-family="Cambria Math,Cambria Math_MSFontService,sans-serif" font-weight="400" font-size="35" transform="translate(811.539 148)">𝑚</text><path d="M1084.5 93.0003C1084.5 84.992 1090.99 78.5001 1099 78.5001L1207 78.5001C1215.01 78.5001 1221.5 84.992 1221.5 93.0003L1221.5 151C1221.5 159.008 1215.01 165.5 1207 165.5L1099 165.5C1090.99 165.5 1084.5 159.008 1084.5 151Z" stroke="#042433" stroke-width="3" stroke-miterlimit="8" fill="none" fill-rule="evenodd"/><text font-family="Cambria Math,Cambria Math_MSFontService,sans-serif" font-weight="400" font-size="48" transform="translate(1131.26 138)">𝑅</text><path d="M59.5001 425C59.5001 416.992 65.992 410.5 74.0003 410.5L182 410.5C190.008 410.5 196.5 416.992 196.5 425L196.5 483C196.5 491.008 190.008 497.5 182 497.5L74.0003 497.5C65.992 497.5 59.5001 491.008 59.5001 483Z" stroke="#042433" stroke-width="3" stroke-miterlimit="8" fill="none" fill-rule="evenodd"/><text font-family="Cambria Math,Cambria Math_MSFontService,sans-serif" font-weight="400" font-size="48" transform="translate(99.8953 469)">𝑆</text><text font-family="Cambria Math,Cambria Math_MSFontService,sans-serif" font-weight="400" font-size="35" transform="translate(123.122 479)">𝑣</text><path d="M758.5 425C758.5 416.992 764.992 410.5 773 410.5L881 410.5C889.008 410.5 895.5 416.992 895.5 425L895.5 483C895.5 491.008 889.008 497.5 881 497.5L773 497.5C764.992 497.5 758.5 491.008 758.5 483Z" stroke="#042433" stroke-width="3" stroke-miterlimit="8" fill="none" fill-rule="evenodd"/><text font-family="Cambria Math,Cambria Math_MSFontService,sans-serif" font-weight="400" font-size="48" transform="translate(786.269 469)">𝐼</text><text font-family="Cambria Math,Cambria Math_MSFontService,sans-serif" font-weight="400" font-size="35" transform="translate(801.622 479)">𝑣𝑚</text><path d="M1084.5 425C1084.5 416.992 1090.99 410.5 1099 410.5L1207 410.5C1215.01 410.5 1221.5 416.992 1221.5 425L1221.5 483C1221.5 491.008 1215.01 497.5 1207 497.5L1099 497.5C1090.99 497.5 1084.5 491.008 1084.5 483Z" stroke="#042433" stroke-width="3" stroke-miterlimit="8" fill="none" fill-rule="evenodd"/><text font-family="Cambria Math,Cambria Math_MSFontService,sans-serif" font-weight="400" font-size="48" transform="translate(1121.02 469)">𝑅</text><text font-family="Cambria Math,Cambria Math_MSFontService,sans-serif" font-weight="400" font-size="35" transform="translate(1150.87 479)">𝑣</text><path d="M0.000105041-2 551.71-1.97102 551.71 2.02898-0.000105041 2ZM549.711-5.97113 561.71 0.0295013 549.71 6.02887Z" transform="matrix(1 0 0 -1 196 122.03)"/><path d="M895 120 1073.73 120 1073.73 124 895 124ZM1071.73 116 1083.73 122 1071.73 128Z"/><path d="M196 451 747.712 451 747.712 455 196 455ZM745.71 447 757.71 453 745.71 459Z"/><path d="M895 451 1073.73 451 1073.73 455 895 455ZM1071.73 447 1083.73 453 1071.73 459Z"/><path d="M2-8.59661e-07 2.0001 234.252-1.9999 234.252-2 8.59661e-07ZM6.0001 232.252 0.000104987 244.252-5.9999 232.252Z" transform="matrix(-1 0 0 1 128 165)"/><text font-family="Cambria Math,Cambria Math_MSFontService,sans-serif" font-weight="400" font-size="48" transform="translate(958.415 429)">𝛾</text><text font-family="Cambria Math,Cambria Math_MSFontService,sans-serif" font-weight="400" font-size="35" transform="translate(978.988 439)">𝑚</text><text font-family="Cambria Math,Cambria Math_MSFontService,sans-serif" font-weight="400" font-size="48" transform="translate(305.522 97)">𝜆</text><path d="M372.792 61.1227C377.354 62.3258 380.858 64.9235 383.304 68.9156 385.749 72.9078 386.972 77.7242 386.972 83.3649 386.972 89.0211 385.753 93.8375 383.315 97.8141 380.878 101.791 377.37 104.38 372.792 105.584L372.229 103.779C375.839 102.576 378.522 100.201 380.28 96.6539 382.038 93.1071 382.917 88.5992 382.917 83.1305 382.917 77.8492 382.042 73.4625 380.292 69.9703 378.542 66.4781 375.831 64.1305 372.159 62.9274ZM349.574 61.1227 350.206 62.9274C346.55 64.1305 343.843 66.4781 342.085 69.9703 340.328 73.4625 339.449 77.8492 339.449 83.1305 339.449 88.5992 340.328 93.1071 342.085 96.6539 343.843 100.201 346.527 102.576 350.136 103.779L349.574 105.584C344.996 104.38 341.488 101.791 339.05 97.8141 336.613 93.8375 335.394 89.0211 335.394 83.3649 335.394 77.7242 336.617 72.9078 339.062 68.9156 341.507 64.9235 345.011 62.3258 349.574 61.1227Z" fill-rule="evenodd"/><text font-family="Cambria Math,Cambria Math_MSFontService,sans-serif" font-weight="400" font-size="48" transform="translate(351.095 97)">𝑡</text><text font-family="Cambria Math,Cambria Math_MSFontService,sans-serif" font-weight="400" font-size="48" transform="translate(304.861 428)">𝜆</text><path d="M372.131 392.374C376.694 393.578 380.198 396.175 382.643 400.167 385.088 404.16 386.311 408.976 386.311 414.617 386.311 420.273 385.092 425.089 382.655 429.066 380.217 433.042 376.71 435.632 372.131 436.835L371.569 435.031C375.178 433.828 377.862 431.453 379.62 427.906 381.378 424.359 382.256 419.851 382.256 414.382 382.256 409.101 381.381 404.714 379.631 401.222 377.881 397.73 375.17 395.382 371.499 394.179ZM348.913 392.374 349.546 394.179C345.89 395.382 343.183 397.73 341.425 401.222 339.667 404.714 338.788 409.101 338.788 414.382 338.788 419.851 339.667 424.359 341.425 427.906 343.183 431.453 345.866 433.828 349.476 435.031L348.913 436.835C344.335 435.632 340.827 433.042 338.39 429.066 335.952 425.089 334.733 420.273 334.733 414.617 334.733 408.976 335.956 404.16 338.401 400.167 340.847 396.175 344.351 393.578 348.913 392.374Z" fill-rule="evenodd"/><text font-family="Cambria Math,Cambria Math_MSFontService,sans-serif" font-weight="400" font-size="48" transform="translate(350.435 428)">𝑡</text><text font-family="Cambria Math,Cambria Math_MSFontService,sans-serif" font-weight="400" font-size="48" transform="translate(86.014 304)">𝜌</text><path d="M754.5 263C754.5 254.992 760.992 248.5 769 248.5L877 248.5C885.008 248.5 891.5 254.992 891.5 263L891.5 321C891.5 329.008 885.008 335.5 877 335.5L769 335.5C760.992 335.5 754.5 329.008 754.5 321Z" stroke="#042433" stroke-width="3" stroke-miterlimit="8" fill="none" fill-rule="evenodd"/><text font-family="Cambria Math,Cambria Math_MSFontService,sans-serif" font-weight="400" font-size="48" transform="translate(799.848 308)">𝐼</text><text font-family="Cambria Math,Cambria Math_MSFontService,sans-serif" font-weight="400" font-size="35" transform="translate(815.202 318)">𝑠</text><path d="M0-2 155.341-2 155.341 226.883 151.341 226.883 151.341 0 153.341 2 0 2ZM159.341 224.883 153.341 236.883 147.341 224.883Z" transform="matrix(1.83697e-16 1 1 -1.83697e-16 517 139)"/><text font-family="Cambria Math,Cambria Math_MSFontService,sans-serif" font-weight="400" font-size="48" transform="translate(611.862 266)">𝑝</text><text font-family="Cambria Math,Cambria Math_MSFontService,sans-serif" font-weight="400" font-size="35" transform="translate(636.822 276)">𝑠</text><path d="M499.5 121.5C499.5 111.559 507.559 103.5 517.5 103.5 527.441 103.5 535.5 111.559 535.5 121.5 535.5 131.441 527.441 139.5 517.5 139.5 507.559 139.5 499.5 131.441 499.5 121.5Z" stroke="#042433" stroke-width="3" stroke-miterlimit="8" fill-rule="evenodd"/><path d="M0-2 263.42-2 263.42 116.523 259.42 116.523 259.42 0 261.42 2 0 2ZM267.42 114.523 261.42 126.523 255.42 114.523Z" transform="matrix(1 0 0 -1 891 291.523)"/><text font-family="Cambria Math,Cambria Math_MSFontService,sans-serif" font-weight="400" font-size="48" transform="translate(962.094 264)">𝛾</text><text font-family="Cambria Math,Cambria Math_MSFontService,sans-serif" font-weight="400" font-size="35" transform="translate(982.667 274)">𝑠</text><text font-family="Cambria Math,Cambria Math_MSFontService,sans-serif" font-weight="400" font-size="48" transform="translate(570.04 97)">1</text><text font-family="Cambria Math,Cambria Math_MSFontService,sans-serif" font-weight="400" font-size="48" transform="translate(607.206 97)">−</text><text font-family="Cambria Math,Cambria Math_MSFontService,sans-serif" font-weight="400" font-size="48" transform="translate(653.706 97)">𝑝</text><text font-family="Cambria Math,Cambria Math_MSFontService,sans-serif" font-weight="400" font-size="35" transform="translate(678.666 107)">𝑠</text><text font-family="Cambria Math,Cambria Math_MSFontService,sans-serif" font-weight="400" font-size="48" transform="translate(954.22 97)">𝛾</text><text font-family="Cambria Math,Cambria Math_MSFontService,sans-serif" font-weight="400" font-size="35" transform="translate(974.794 106)">𝑚</text></g></svg>